<?xml version="1.0" encoding="UTF-8"?>
<svg width="26px" height="31px" viewBox="0 0 26 31" version="1.1" xmlns="http://www.w3.org/2000/svg" xmlns:xlink="http://www.w3.org/1999/xlink">
    <!-- Generator: Sketch 52.6 (67491) - http://www.bohemiancoding.com/sketch -->
    <title>ph_icon_Pineapple</title>
    <desc>Created with Sketch.</desc>
    <g id="Icon-list" stroke="none" stroke-width="1" fill="none" fill-rule="evenodd">
        <g id="Icons-Copy-3" transform="translate(-92.000000, -350.000000)">
            <g id="ph_icon_Pineapple" transform="translate(92.000000, 350.000000)">
                <g id="Background_Shadow" transform="translate(2.000000, 0.000000)" fill="#CCCCCC">
                    <path d="M18.83,11.84 L24,6.52 C22.6133471,7.10950491 21.1734463,7.56491539 19.7,7.88 L19.86,1.68 L17.66,6.5 L14.14,0.41 L14.7,9.12 C13.5274752,8.83526689 12.3089598,8.7944228 11.12,9 C8.56402715,9.45000415 6.20978835,10.6795176 4.38,12.52 C3.45631389,13.4170518 2.64686301,14.424667 1.97,15.52 C1.58284411,16.1583694 1.24840196,16.8272537 0.97,17.52 C-0.177786539,19.9393639 0.0193156131,22.7821834 1.49,25.02 C2.51227481,26.4897351 3.84330916,27.7183822 5.39,28.62 C6.86576073,29.5802264 8.52950059,30.2143568 10.27,30.48 C12.9368894,30.8363999 15.5949391,29.7655856 17.27,27.66 C17.7711646,27.0858996 18.2227803,26.4703643 18.62,25.82 C19.3133591,24.6972898 19.8610884,23.4909412 20.25,22.23 C21.0607682,19.7691233 21.0887177,17.1174194 20.33,14.64 C20.0015488,13.6244399 19.4934948,12.6760725 18.83,11.84 Z" id="Path" style="mix-blend-mode: multiply;"></path>
                </g>
                <g id="Icon">
                    <polygon id="Path" fill="#709D38" points="17.4 6.51 21.9 1.54 19.81 8.01 17.76 8.62"></polygon>
                    <polygon id="Path" fill="#84AB55" points="17.63 9.81 18.79 7.92 16.14 0.41 14.94 9.51"></polygon>
                    <path d="M17,9.4 C17,9.4 17,8.48 18.52,7.65 C20.04,6.82 26,6.52 26,6.52 L18.41,11.67 L17,9.4 Z" id="Path" fill="#B8D492"></path>
                    <path d="M13.76,14.89 L17.19,9.33 C15.4829219,8.30278105 13.4636088,7.92305082 11.5,8.26 L13.68,14.9 L13.76,14.9 L13.76,14.89 Z" id="Path" fill="#D8562A"></path>
                    <polygon id="Path" fill="#F1A72A" points="8.55 23.32 8.6 23.24 8.53 23.25"></polygon>
                    <path d="M13.68,14.9 L11.5,8.26 C8.94402715,8.71000415 6.58978835,9.93951759 4.76,11.78 L6.16,16 L13.68,14.9 Z" id="Path" fill="#F1762A"></path>
                    <polygon id="Path" fill="#F1A72A" points="13.76 14.89 13.68 14.9 13.7 14.98"></polygon>
                    <polygon id="Path" fill="#F1A72A" points="13.68 14.9 6.16 16.02 8.53 23.25 8.6 23.24 13.7 14.98"></polygon>
                    <path d="M8.53,23.25 L1.87,24.25 C2.8917852,25.7201615 4.22292327,26.9489043 5.77,27.85 L8.56,23.33 L8.53,23.25 Z" id="Path" fill="#D8562A"></path>
                    <path d="M4.76,11.78 C3.83623832,12.676983 3.02677955,13.684608 2.35,14.78 C1.96276615,15.4183263 1.62832075,16.0872171 1.35,16.78 L6.16,16 L4.76,11.78 Z" id="Path" fill="#D8562A"></path>
                    <path d="M6.16,16 L1.35,16.72 C0.202213461,19.1393639 0.399315613,21.9821834 1.87,24.22 L8.53,23.22 L6.16,16 Z" id="Path" fill="#F1762A"></path>
                    <path d="M5.76,27.85 C7.23576073,28.8102264 8.89950059,29.4443568 10.64,29.71 L8.55,23.33 L5.76,27.85 Z" id="Path" fill="#F1A72A"></path>
                    <path d="M17.61,26.88 L16,22.13 L8.6,23.24 L8.55,23.32 L10.64,29.7 C13.2968516,30.045382 15.9407776,28.9756731 17.61,26.88 Z" id="Path" fill="#FBC652"></path>
                    <path d="M17.61,26.88 C18.1270653,26.2949009 18.5921581,25.6658547 19,25 C19.6929769,23.8770861 20.2406835,22.6707875 20.63,21.41 L16,22.13 L17.61,26.88 Z" id="Path" fill="#F1A72A"></path>
                    <path d="M20.67,13.86 C20.0833091,11.9854045 18.8500437,10.3800331 17.19,9.33 L13.76,14.89 L20.67,13.86 Z" id="Path" fill="#F1A72A"></path>
                    <polygon id="Path" fill="#F8D95C" points="8.6 23.24 16.05 22.13 13.7 14.98"></polygon>
                    <path d="M13.7,15 L16,22.13 L20.55,21.45 C21.3601127,18.9890146 21.38806,16.3375143 20.63,13.86 L13.72,14.86 L13.7,15 Z" id="Path" fill="#FBC652"></path>
                    <path d="M9.22,28.48 C9.22,28.48 15.3,29.84 17.9,24.16 C20.5,18.48 17.9,11.77 17.9,11.77 C17.9,11.77 18.28,20 16,23.24 C14.3942161,25.7000092 12.0053733,27.5462535 9.22,28.48 Z" id="Path" fill="#FFCC67" style="mix-blend-mode: screen;"></path>
                </g>
            </g>
        </g>
    </g>
</svg>