<?xml version="1.0" encoding="UTF-8"?>
<svg width="27px" height="28px" viewBox="0 0 27 28" version="1.1" xmlns="http://www.w3.org/2000/svg" xmlns:xlink="http://www.w3.org/1999/xlink">
    <!-- Generator: Sketch 52.6 (67491) - http://www.bohemiancoding.com/sketch -->
    <title>ph_icon_Jalapeños</title>
    <desc>Created with Sketch.</desc>
    <g id="Icon-list" stroke="none" stroke-width="1" fill="none" fill-rule="evenodd">
        <g id="Icons-Copy-3" transform="translate(-96.000000, -1129.000000)">
            <g id="ph_icon_Jalapeños" transform="translate(96.000000, 1129.000000)">
                <g id="Background_Shadow" transform="translate(2.000000, 0.000000)" fill="#CCCCCC">
                    <path d="M24.22,1 C23.8238972,0.886069865 23.4116143,0.838758718 23,0.86 C20.8,1 20.33,2.2 19.46,4.19 C18.59,6.18 17.9,8.82 16.64,8.78 C13.64,8.46 12.93,10.33 11.26,13.98 C9.32,18.23 5.21,21.06 3.13,22.56 C1.98,23.39 0.27,24.56 0.05,25.56 C-0.13,26.37 0.67,27.06 3.51,27.34 C14.7,28.44 21.71,17.73 21.51,13.34 C21.4324902,12.0235375 20.8985258,10.7752631 20,9.81 C19.56,9.55 18.6,8.57 19.87,5.09 C20.81,2.5 21.62,1.29 23.33,1.55 C23.1751169,1.51595446 23.0180821,1.4925663 22.86,1.48 C23.2444147,1.53736912 23.6250844,1.61751011 24,1.72 C24.17,1.77 24.56,1.09 24.22,1 Z" id="Path" style="mix-blend-mode: multiply;"></path>
                </g>
                <g id="Icon">
                    <path d="M10.74,21.9 C4.18,25.87 1.1,26 0.59,25 C0.81,24 2.59,22.8 3.75,22 C5.88,20.5 10.1,17.66 12.1,13.41 C14.1,9.16 14.73,7.31 19.36,8.54 C19.5765201,8.5658166 19.7905666,8.6092948 20,8.67 C18.9603322,14.2067903 15.5862024,19.0274963 10.74,21.9 Z" id="Path" fill="#2F6704"></path>
                    <path d="M0.59,25 C1.11,26 4.3,25.71 10.86,21.74 C15.6692379,18.9224799 19.0077902,14.1447706 20,8.66 C21.7479243,9.07076209 22.9876108,10.6245025 23,12.42 C23.18,16.78 15.63,27.9 4.14,26.8 C1.22,26.52 0.41,25.83 0.59,25 Z" id="Path" fill="#1E4601"></path>
                    <path d="M18,9 C17.08,8.77 15.4,8.53 14.82,9.72 C12.7091856,15.0125587 8.93663245,19.4764542 4.07,22.44 C3.82,22.59 3.58,22.91 3.89,22.82 C5,22.5 7.3,21.42 7.58,21.34 C9.8,20.76 11.15,18.64 12.87,17.42 C14.59,16.2 16.27,14.15 16.53,12.42 C16.76,10.88 17.16,9.73 18.19,9.3 C18.31,9.26 18.34,9.09 18,9 Z" id="Path" fill="#56792B"></path>
                    <path d="M22,14.49 C21.3040419,16.4556042 20.2305823,18.266218 18.84,19.82 C16.092056,22.8920292 12.4929843,25.0779258 8.5,26.1 C7.86,26.25 7.17,26.24 7.86,26 C9.34,25.49 11.73,24.59 12.06,24 C12.55,23.17 14.65,22.81 16.2,21.27 C17.75,19.73 17.8,19.13 19.01,17.81 C20.1356228,16.5900824 21.1217148,15.2484607 21.95,13.81 C22.13,13.54 22.33,13.5 22,14.49 Z" id="Path" fill="#142802"></path>
                    <path d="M17,9.17 C16.144747,8.97510452 15.2807268,9.45895583 15,10.29 C14.6846541,11.5020569 14.1927212,12.6611315 13.54,13.73 C12.98,14.4 14.91,13.82 15.6,11.9 C16.29,9.98 16.66,9.3 17,9.17 Z" id="Path" fill="#AEBF99"></path>
                    <path d="M20.91,5.7 C21.91,3.82 22.38,0.7 25.29,1.36 C23.53,1.1 22.7,2.36 21.73,4.91 C20.43,8.4 20.88,9.01 21.34,9.27 L20.09,8.91 C20.1258933,7.79299333 20.4057722,6.69736983 20.91,5.7 Z" id="Path" fill="#4D5D0E"></path>
                    <path d="M21.32,4 C22.22,2 22.7,0.8 25,0.66 C25.4081153,0.64462177 25.8161788,0.691835731 26.21,0.8 C26.55,0.89 26.16,1.57 25.99,1.52 C25.758211,1.44461242 25.5207968,1.38776677 25.28,1.35 C22.37,0.73 21.9,3.93 20.93,5.82 C20.4255645,6.77187081 20.1386669,7.82382867 20.09,8.9 L17.61,8.18 C18.91,8.23 20.42,6 21.32,4 Z" id="Path" fill="#879B1F"></path>
                    <path d="M12.81,14.83 C12.5509548,14.9389378 12.3434261,15.1428884 12.23,15.4 C12.06,15.59 11.84,15.86 12.23,15.93 C12.76,16.04 13.3,14.93 12.97,14.83" id="Path" fill="#AEBF99"></path>
                </g>
            </g>
        </g>
    </g>
</svg>