<svg xmlns="http://www.w3.org/2000/svg" viewBox="4106.222 -207.474 170 170">
  <defs>
    <style>
      .cls-1 {
        fill: #646464;
      }
    </style>
  </defs>
  <g id="Group_2396" data-name="Group 2396" transform="translate(4106.222 -207.474)">
    <path id="Path_3435" data-name="Path 3435" class="cls-1" d="M76.447,199.051H14.923A11.551,11.551,0,0,1,3.379,187.506V124.222a11.551,11.551,0,0,1,11.545-11.545H72.505V109.3H14.923A14.782,14.782,0,0,0,0,124.152v63.284a14.931,14.931,0,0,0,14.923,14.923H79.685a20.812,20.812,0,0,1-1.83-1.689A15.471,15.471,0,0,1,76.447,199.051Z" transform="translate(0 -32.359)"/>
    <path id="Path_3436" data-name="Path 3436" class="cls-1" d="M32.571,120.971H81.565V119H30.6v79.333H83.4c-.141-.352-.282-.634-.422-.985a5.516,5.516,0,0,1-.352-.986H32.641V120.971Z" transform="translate(-9.06 -35.232)"/>
    <path id="Path_3437" data-name="Path 3437" class="cls-1" d="M15.7,157.385v24.638a.986.986,0,0,0,1.971,0V157.385a.962.962,0,0,0-.986-.985A1.007,1.007,0,0,0,15.7,157.385Z" transform="translate(-4.648 -46.305)"/>
    <path id="Path_3438" data-name="Path 3438" class="cls-1" d="M187.377,0H124.023A14.931,14.931,0,0,0,109.1,14.923V155.006a15.433,15.433,0,0,0,1.267,5.983,4.3,4.3,0,0,0,.493.986c.211.352.352.7.563.986a14.843,14.843,0,0,0,3.1,3.52,16.534,16.534,0,0,0,2.6,1.689,15.139,15.139,0,0,0,6.9,1.689h63.354A14.931,14.931,0,0,0,202.3,154.936V14.923A14.842,14.842,0,0,0,187.377,0Zm11.615,82.29v72.787a11.551,11.551,0,0,1-11.544,11.545H124.094a11.535,11.535,0,0,1-8.306-3.52,12.249,12.249,0,0,1-.845-.985c-.211-.352-.493-.634-.7-.986a11.6,11.6,0,0,1-1.689-5.983V14.923A11.551,11.551,0,0,1,124.094,3.379h63.354a11.551,11.551,0,0,1,11.544,11.545Z" transform="translate(-32.301 0)"/>
    <path id="Path_3439" data-name="Path 3439" class="cls-1" d="M119,85.859V155.83h79.263V30.6H119Zm1.971,0V32.571h75.321V153.929H120.971V85.859Z" transform="translate(-35.232 -9.06)"/>
    <path id="Path_3440" data-name="Path 3440" class="cls-1" d="M172.114,211.9a7.841,7.841,0,0,0-7.814,7.814,7.608,7.608,0,0,0,1.267,4.153,5.315,5.315,0,0,0,.774.986,13.509,13.509,0,0,0,1.056.986,7.679,7.679,0,0,0,9.433,0,4.736,4.736,0,0,0,1.056-.986,5.315,5.315,0,0,0,.774-.986,7.608,7.608,0,0,0,1.267-4.153A7.841,7.841,0,0,0,172.114,211.9Zm4.012,11.967a6.352,6.352,0,0,1-1.408.986,5.285,5.285,0,0,1-2.6.634,5.481,5.481,0,0,1-2.6-.634,6.35,6.35,0,0,1-1.408-.986,5.631,5.631,0,0,1-1.76-4.153,5.772,5.772,0,0,1,11.545,0A5.912,5.912,0,0,1,176.126,223.867Z" transform="translate(-48.644 -62.736)"/>
    <path id="Path_3441" data-name="Path 3441" class="cls-1" d="M157.385,17.671h24.638a.986.986,0,0,0,0-1.971H157.385a.962.962,0,0,0-.985.986A1.007,1.007,0,0,0,157.385,17.671Z" transform="translate(-46.305 -4.648)"/>
    <path id="Path_3442" data-name="Path 3442" class="cls-1" d="M20.538,71.546l.422-4.505a47.753,47.753,0,0,1,41.18-41.18l-6.406,8.025a1.755,1.755,0,0,0,.211,2.393,1.683,1.683,0,0,0,2.393-.211l9.01-11.052a1.377,1.377,0,0,0-.282-1.971l-11.9-8.166a1.688,1.688,0,0,0-2.323.422,1.708,1.708,0,0,0,.422,2.393l7.673,4.928A51.07,51.07,0,0,0,17.722,65.844L17.3,70.912A2.1,2.1,0,0,0,20.538,71.546Z" transform="translate(-5.122 -4.32)"/>
  </g>
</svg>
