<svg xmlns="http://www.w3.org/2000/svg" viewBox="1647.778 223 29.002 29">
 <defs>
    <style>
      .cls-1 {
        fill:#fff;
      }
    </style>
  </defs>
  <path id="Path_3434" class="cls-1" data-name="Path 3434" d="M.713.084a3.339,3.339,0,0,1,1.1-.14c8.457.017,16.915,0,25.355,0a1.524,1.524,0,0,1,1.674,1.674c.017,8.527,0,17.072,0,25.6a1.58,1.58,0,0,1-1.691,1.709H1.55A1.58,1.58,0,0,1-.141,27.218c0-8.527-.017-17.072,0-25.6A1.746,1.746,0,0,1,.713.084Zm5.72,14.352a5.075,5.075,0,0,0,3.4,4.778,4.984,4.984,0,0,0,5.441-1.447A5.821,5.821,0,0,0,16.3,13.721c-1.6-.017-3.226-.017-4.83,0v1.726c.959.035,1.936.017,2.895.035A2.832,2.832,0,0,1,12.728,17.4a3.191,3.191,0,1,1-2.162-6,3.574,3.574,0,0,1,2.982.575,18.2,18.2,0,0,0,1.273-1.325,5.041,5.041,0,0,0-3.627-1.238A4.961,4.961,0,0,0,6.433,14.436Zm13.009-2.18c0,.488-.017.959-.017,1.447-.488,0-.959,0-1.447.017v1.43c.488,0,.959,0,1.447.017,0,.488,0,.959.017,1.447h1.43c0-.488,0-.959.017-1.447h1.447v-1.43c-.488,0-.959,0-1.447-.017,0-.488,0-.959-.017-1.447C20.4,12.256,19.93,12.256,19.442,12.256Z" transform="translate(1647.928 223.067)"/>
</svg>
