<svg xmlns="http://www.w3.org/2000/svg" viewBox="1482.198 183 29.006 29">
  <defs>
    <style>
      .cls-1 {
        fill: #fff;
      }
    </style>
  </defs>
  <g id="Group_2271" data-name="Group 2271" transform="translate(1482.198 183)">
    <path id="Path_2895" data-name="Path 2895" class="cls-1" d="M14.5,2.613c3.873,0,4.328.017,5.859.086a7.912,7.912,0,0,1,2.693.5,4.5,4.5,0,0,1,1.669,1.082A4.429,4.429,0,0,1,25.8,5.951a8.06,8.06,0,0,1,.5,2.693c.069,1.531.086,1.986.086,5.859s-.017,4.328-.086,5.859a7.912,7.912,0,0,1-.5,2.693,4.5,4.5,0,0,1-1.082,1.669,4.429,4.429,0,0,1-1.669,1.082,8.06,8.06,0,0,1-2.693.5c-1.531.069-1.986.086-5.859.086s-4.328-.017-5.859-.086a7.912,7.912,0,0,1-2.693-.5,4.5,4.5,0,0,1-1.669-1.082,4.429,4.429,0,0,1-1.082-1.669,8.06,8.06,0,0,1-.5-2.693c-.069-1.531-.086-1.986-.086-5.859s.017-4.328.086-5.859a7.912,7.912,0,0,1,.5-2.693A4.5,4.5,0,0,1,4.276,4.282,4.429,4.429,0,0,1,5.945,3.2a8.06,8.06,0,0,1,2.693-.5c1.531-.075,1.991-.086,5.859-.086M14.5,0c-3.937,0-4.431.017-5.98.086A10.627,10.627,0,0,0,5,.76,7.067,7.067,0,0,0,2.434,2.434,7.191,7.191,0,0,0,.76,5,10.633,10.633,0,0,0,.086,8.523C.017,10.066,0,10.561,0,14.5s.017,4.431.086,5.98A10.7,10.7,0,0,0,.76,24a7.066,7.066,0,0,0,1.675,2.567A7.191,7.191,0,0,0,5,28.24a10.633,10.633,0,0,0,3.522.673c1.548.069,2.037.086,5.98.086s4.431-.017,5.98-.086A10.7,10.7,0,0,0,24,28.24a7.066,7.066,0,0,0,2.567-1.675A7.191,7.191,0,0,0,28.246,24a10.634,10.634,0,0,0,.673-3.522c.069-1.548.086-2.037.086-5.98s-.017-4.431-.086-5.98A10.7,10.7,0,0,0,28.246,5a7.067,7.067,0,0,0-1.675-2.567A7.191,7.191,0,0,0,24,.754,10.634,10.634,0,0,0,20.483.081C18.929.017,18.434,0,14.5,0Z" transform="translate(0 0)"/>
    <path id="Path_2896" data-name="Path 2896" class="cls-1" d="M129.947,122.6a7.447,7.447,0,1,0,7.447,7.447A7.448,7.448,0,0,0,129.947,122.6Zm0,12.276a4.834,4.834,0,1,1,4.834-4.834A4.834,4.834,0,0,1,129.947,134.876Z" transform="translate(-115.45 -115.544)"/>
    <ellipse id="Ellipse_155" data-name="Ellipse 155" class="cls-1" cx="1.738" cy="1.738" rx="1.738" ry="1.738" transform="translate(20.5 5.019)"/>
  </g>
</svg>
