<?xml version="1.0" encoding="utf-8"?>
<!-- Generator: Adobe Illustrator 23.0.0, SVG Export Plug-In . SVG Version: 6.00 Build 0)  -->
<svg version="1.1" id="Layer_1" xmlns="http://www.w3.org/2000/svg" xmlns:xlink="http://www.w3.org/1999/xlink" x="0px" y="0px"
	 viewBox="0 0 29 28" style="enable-background:new 0 0 29 28;" xml:space="preserve">
<style type="text/css">
	.st0{fill:#414042;}
</style>
<path class="st0" d="M26.6,13.8c0,0.3-0.1,0.7-0.1,1c-0.5,3.3-2.2,5.9-4.8,7.9c-1.6,1.2-3.4,2-5.5,2.2c-4.5,0.5-8.3-1-11.2-4.5
	c-1.4-1.7-2.2-3.6-2.5-5.8c-0.1-0.5-0.1-1.1-0.1-1.6c0-0.9,0-1.8,0-2.7c0-1.1,0.5-1.9,1.3-2.6c0.9-0.7,1.9-1,3-1.1
	c1.3-0.1,2.5,0,3.7,0.6c0.8,0.4,1.5,1.1,1.9,2c0.1,0.3,0.1,0.5,0.1,0.8c0,0.9,0,1.9,0,2.8c0,0.7,0.3,1.4,0.9,1.8
	c0.7,0.5,1.4,0.6,2.1,0.3c0.7-0.3,1.2-0.9,1.3-1.7c0.1-1,0-2,0.1-3c0-0.3,0-0.6,0.1-0.9c0.3-1,1-1.6,1.9-2c1.2-0.6,2.4-0.8,3.7-0.6
	c1,0.1,2,0.4,2.9,1c0.7,0.5,1.2,1.2,1.4,2c0,0,0,0,0,0.1C26.6,11.1,26.6,12.4,26.6,13.8z M18.1,12.7c0.1,2.2-1.5,3.7-3.3,3.8
	c-0.9,0.1-1.7-0.2-2.5-0.7c-1-0.8-1.5-1.8-1.5-3.1c-2.4,1.3-4.7,1.3-7.1,0c-0.2,3,1.2,7,5.1,9.3c3.9,2.3,7.8,2.2,11.6-0.2
	c3.2-2.1,4.7-5.2,4.8-9.1C22.8,14,20.5,14,18.1,12.7z M7.5,12.3c0.2,0,0.7-0.1,1.1-0.1c0.7-0.2,1.4-0.5,2-1.1c0.5-0.6,0.5-1.3,0-1.8
	c-0.4-0.4-0.8-0.7-1.3-0.9c-1-0.4-2-0.4-3.1-0.2C5.4,8.3,4.7,8.6,4.2,9.2C3.9,9.6,3.7,10,3.9,10.4c0.1,0.5,0.4,0.8,0.8,1.1
	C5.5,12.1,6.4,12.2,7.5,12.3z M21.8,12.3c0.2,0,0.7-0.1,1.1-0.2c0.7-0.2,1.4-0.4,1.9-1c0.5-0.6,0.5-1.3,0-1.9
	c-0.4-0.4-0.8-0.7-1.3-0.9c-1-0.4-2-0.4-3.1-0.2c-0.7,0.2-1.4,0.5-1.9,1.1c-0.5,0.6-0.5,1.3,0,1.8c0.2,0.2,0.3,0.3,0.5,0.5
	C19.8,12.1,20.7,12.2,21.8,12.3z"/>
</svg>
