<svg xmlns="http://www.w3.org/2000/svg" viewBox="1494 1582.889 38.277 42">
<defs>
    <style>
      .cls-1 {
        fill: none;
        stroke: #9fc058;
        stroke-linejoin: round;
        stroke-miterlimit: 10;
      }
	  .cls-2{
	  fill:#9fc058;
	  }
    </style>
  </defs>

  <g id="Group_2291" data-name="Group 2291" transform="translate(1494 1582.889)">
    <path id="Path_3223" class="cls-1" data-name="Path 3223" d="M46.76,5.849H59.951a.558.558,0,0,0,.56-.56V3.578a.506.506,0,0,0-.171-.389A10.03,10.03,0,0,0,53.356,0a10.081,10.081,0,0,0-6.984,3.173.557.557,0,0,0-.171.389V5.273A.561.561,0,0,0,46.76,5.849Zm.482-2.084a8.983,8.983,0,0,1,6.113-2.738,9.018,9.018,0,0,1,6.129,2.738V4.822H47.242Z" transform="translate(-39.013)"/>
    <path id="Path_3224" class="cls-2"  data-name="Path 3224" d="M85.449,10.424a1.524,1.524,0,1,0-1.524,1.524A1.527,1.527,0,0,0,85.449,10.424Zm-2.022,0a.5.5,0,1,1,.5.5A.5.5,0,0,1,83.427,10.424Z" transform="translate(-69.582 -7.516)"/>
    <path id="Path_3225" class="cls-2"  data-name="Path 3225" d="M27.658,61a3.449,3.449,0,0,1-3.438,3.438H4.48A3.449,3.449,0,0,1,1.042,61V32.28A3.449,3.449,0,0,1,4.48,28.842h.747a.345.345,0,0,1,.342.342v.264A1.65,1.65,0,0,0,7.218,31.1H21.467a1.65,1.65,0,0,0,1.649-1.649v-.264a.345.345,0,0,1,.342-.342H24.2a3.449,3.449,0,0,1,3.438,3.438v2.178l.809-.824a1.255,1.255,0,0,1,.218-.187V32.28a4.481,4.481,0,0,0-4.48-4.48h-.747a1.388,1.388,0,0,0-1.384,1.384v.264a.607.607,0,0,1-.607.607H7.218a.607.607,0,0,1-.607-.607v-.264A1.388,1.388,0,0,0,5.227,27.8H4.48A4.481,4.481,0,0,0,0,32.28V61.011a4.478,4.478,0,0,0,4.48,4.464H24.22A4.481,4.481,0,0,0,28.7,61V46.544L27.673,47.6V61Z" transform="translate(0 -23.476)"/>
    <path id="Path_3226" class="cls-1" data-name="Path 3226" d="M43.58,61.733V60.116A2.832,2.832,0,0,0,40.733,57.3H24.447A2.842,2.842,0,0,0,21.6,60.116v23.5a2.832,2.832,0,0,0,2.847,2.816H40.733A2.842,2.842,0,0,0,43.58,83.62V74.893l-1.027,1.058v7.684a1.8,1.8,0,0,1-1.8,1.789h-16.3a1.8,1.8,0,0,1-1.8-1.789V60.116a1.8,1.8,0,0,1,1.8-1.789H40.733a1.8,1.8,0,0,1,1.8,1.789v2.676Z" transform="translate(-18.24 -48.387)"/>
    <path id="Path_3227" class="cls-2" data-name="Path 3227" d="M36.224,139.744l3.578-4.06L39.024,135l-2.8,3.189-1.447-1.618-.778.684Z" transform="translate(-28.711 -114)"/>
    <path id="Path_3228" class="cls-2" data-name="Path 3228" d="M36.224,195.489l-1.447-1.618-.778.684,2.224,2.489,3.578-4.06-.778-.684Z" transform="translate(-28.711 -162.387)"/>
    <path id="Path_3229" class="cls-2" data-name="Path 3229" d="M39.8,78.484l-.778-.684-2.8,3.189-1.447-1.618L34,80.056l2.224,2.489Z" transform="translate(-28.711 -65.698)"/>
    <path id="Path_3230" class="cls-2" data-name="Path 3230" d="M79.813,97.593V96.8H67.4v1.027H79.564Z" transform="translate(-56.916 -81.742)"/>
    <path id="Path_3231" class="cls-2" data-name="Path 3231" d="M73.3,154H67.4v1.027h5.538C73.062,154.653,73.187,154.311,73.3,154Z" transform="translate(-56.916 -130.044)"/>
    <rect id="Rectangle_714" class="cls-2" data-name="Rectangle 714" width="12.398" height="1.027" transform="translate(10.484 32.869)"/>
    <path id="Path_3232" class="cls-2" data-name="Path 3232" d="M115.127,68.887h0a.589.589,0,0,0-.436-.187.556.556,0,0,0-.42.187L103.18,80.211c-.031.031-.078.078-2.427,6.938a.513.513,0,0,0,.124.529.494.494,0,0,0,.513.124c6.7-2.4,6.751-2.442,6.782-2.473L119.264,74a.629.629,0,0,0,0-.871Zm-.124.124Zm-7.42,15.509L102,86.527l1.96-5.709,10.733-10.967,3.624,3.7Z" transform="translate(-85.058 -58.013)"/>
    <path id="Path_3233" class="cls-2"  data-name="Path 3233" d="M202.374,45.8l-1.82-1.867-.016-.016A2.15,2.15,0,0,0,199,43.3a2.371,2.371,0,0,0-1.711.747l-2.038,2.084a.629.629,0,0,0,0,.871l4.153,4.231a.611.611,0,0,0,.436.171.556.556,0,0,0,.42-.187l2.038-2.084A2.4,2.4,0,0,0,202.374,45.8Zm-1.96-1.758Zm1.167,4.4-1.773,1.8-3.624-3.7,1.773-1.82a1.481,1.481,0,0,1,1.027-.451,1.162,1.162,0,0,1,.856.358h0l1.82,1.867A1.365,1.365,0,0,1,201.581,48.449Z" transform="translate(-164.73 -36.564)"/>
    <path id="Path_3234" class="cls-2" data-name="Path 3234" d="M117.5,155.716l3.516-1.4L118.9,152.2Zm2.287-1.649-1.058.42.42-1.058Z" transform="translate(-99.222 -128.524)"/>
    <path id="Path_3235" class="cls-2"  data-name="Path 3235" d="M139.839,86.239l-8.54,8.68a.4.4,0,0,0-.047.576.344.344,0,0,0,.28.093.462.462,0,0,0,.3-.156l8.54-8.68a.421.421,0,0,0,.062-.576h0a.344.344,0,0,0-.28-.093A.463.463,0,0,0,139.839,86.239Z" transform="translate(-110.75 -72.69)"/>
    <path id="Path_3236" class="cls-2"  data-name="Path 3236" d="M144.187,108.695a.344.344,0,0,0,.28.093.462.462,0,0,0,.3-.156l8.54-8.68a.421.421,0,0,0,.062-.576h0a.344.344,0,0,0-.28-.093.462.462,0,0,0-.3.156l-8.556,8.68A.418.418,0,0,0,144.187,108.695Z" transform="translate(-121.678 -83.837)"/>
    <path id="Path_3237" class="cls-2"  data-name="Path 3237" d="M137.694,102.095a.344.344,0,0,0,.28.093.462.462,0,0,0,.3-.156l8.54-8.68a.421.421,0,0,0,.062-.576h0a.344.344,0,0,0-.28-.093.462.462,0,0,0-.3.156l-8.54,8.68A.406.406,0,0,0,137.694,102.095Z" transform="translate(-116.197 -78.264)"/>
  </g>
</svg>
