<svg xmlns="http://www.w3.org/2000/svg" viewBox="1495.5 1679.147 34.687 31.024">
  <defs>
    <style>
      .cls-1 {
        fill: none;
        stroke: #9fc058;
        stroke-linejoin: round;
        stroke-miterlimit: 10;
      }
    </style>
  </defs>
  <g id="Group_2293" data-name="Group 2293" transform="translate(1414.556 1437)">
    <path id="Path_3362" data-name="Path 3362" class="cls-1" d="M28.828,24.126v-.732a24.509,24.509,0,0,1,4.394.732c1.245,0,1.465-.952,1.465-2.2s-.22-2.2-1.465-2.2a24.509,24.509,0,0,1-4.394.732v-.732A.692.692,0,0,0,28.1,19H7.591a.692.692,0,0,0-.732.732v.732a24.509,24.509,0,0,1-4.394-.732c-1.245,0-1.465.952-1.465,2.2s.22,2.2,1.465,2.2a24.509,24.509,0,0,1,4.394-.732v.732a.692.692,0,0,0,.732.732H28.1A.692.692,0,0,0,28.828,24.126Z" transform="translate(80.444 236.862)"/>
    <path id="Path_3363" data-name="Path 3363" class="cls-1" d="M28.473,27c0,1.758,1.538,6.444.293,9.3-1.172,2.71-6.664,1.611-8.275,0-1.684-1.684-5.126-.366-6.518-1.758-1.684-1.538.586-6.005.586-7.543" transform="translate(77.138 234.721)"/>
    <path id="Path_3364" data-name="Path 3364" class="cls-1" d="M28.72,12.639c0-2.636.659-3.588.659-5.859,0-3.735-3.149-3.076-8.056-5.126C16.49-.4,14,2.606,14,5.755c0,2.05.659,3.955.659,6.884" transform="translate(76.965 241.685)"/>
  </g>
</svg>
