




<svg xmlns="http://www.w3.org/2000/svg" viewBox="1496 1631.644 35.612 42">
  <defs>
    <style>
      .cls-1 {
        fill: none;
        stroke: #000;
        stroke-miterlimit: 10;
      }
    </style>
  </defs>
  <g id="Group_2292" data-name="Group 2292" transform="translate(1496 1631.644)">
    <g id="Group_1910" data-name="Group 1910" transform="translate(7.187)">
      <path id="Path_3252" data-name="Path 3252" d="M46.76,5.849H59.951a.558.558,0,0,0,.56-.56V3.578a.506.506,0,0,0-.171-.389A10.03,10.03,0,0,0,53.356,0a10.081,10.081,0,0,0-6.984,3.173.557.557,0,0,0-.171.389V5.273A.561.561,0,0,0,46.76,5.849Zm.482-2.084a8.983,8.983,0,0,1,6.113-2.738,9.018,9.018,0,0,1,6.129,2.738V4.822H47.242Z" transform="translate(-46.2)"/>
      <path id="Path_3253" data-name="Path 3253" d="M85.449,10.424a1.524,1.524,0,1,0-1.524,1.524A1.527,1.527,0,0,0,85.449,10.424Zm-2.022,0a.5.5,0,1,1,.5.5A.5.5,0,0,1,83.427,10.424Z" transform="translate(-76.769 -7.516)"/>
    </g>
    <path id="Path_3254" data-name="Path 3254" d="M27.658,61a3.449,3.449,0,0,1-3.438,3.438H4.48A3.449,3.449,0,0,1,1.042,61V32.28A3.449,3.449,0,0,1,4.48,28.842h.747a.345.345,0,0,1,.342.342v.264A1.65,1.65,0,0,0,7.218,31.1H21.467a1.65,1.65,0,0,0,1.649-1.649v-.264a.345.345,0,0,1,.342-.342H24.2a3.449,3.449,0,0,1,3.438,3.438v6.533l.809-.824a1.255,1.255,0,0,1,.218-.187V32.28a4.481,4.481,0,0,0-4.48-4.48h-.747a1.388,1.388,0,0,0-1.384,1.384v.264a.607.607,0,0,1-.607.607H7.218a.607.607,0,0,1-.607-.607v-.264A1.388,1.388,0,0,0,5.227,27.8H4.48A4.481,4.481,0,0,0,0,32.28V61.011a4.478,4.478,0,0,0,4.48,4.464H24.22A4.481,4.481,0,0,0,28.7,61V46.544L27.673,47.6V61Z" transform="translate(0 -23.476)"/>
    <path id="Path_3255" data-name="Path 3255" d="M43.58,66.4V60.116A2.832,2.832,0,0,0,40.733,57.3H24.447A2.842,2.842,0,0,0,21.6,60.116v23.5a2.832,2.832,0,0,0,2.847,2.816H40.733A2.842,2.842,0,0,0,43.58,83.62V74.893l-1.027,1.058v7.684a1.8,1.8,0,0,1-1.8,1.789h-16.3a1.8,1.8,0,0,1-1.8-1.789V60.116a1.8,1.8,0,0,1,1.8-1.789H40.733a1.8,1.8,0,0,1,1.8,1.789v7.342Z" transform="translate(-18.24 -48.387)"/>
    <path id="Path_3256" data-name="Path 3256" d="M36.224,139.744l3.578-4.06L39.024,135l-2.8,3.189-1.447-1.618-.778.684Z" transform="translate(-28.711 -114)"/>
    <path id="Path_3257" data-name="Path 3257" class="cls-1" d="M108.627,92.564l11.822-13.409L117.9,76.9l-9.287,10.516-4.76-5.336L101.3,84.336Z" transform="translate(-85.542 -64.938)"/>
    <path id="Path_3258" data-name="Path 3258" d="M36.224,195.489l-1.447-1.618-.778.684,2.224,2.489,3.578-4.06-.778-.684Z" transform="translate(-28.711 -162.387)"/>
    <path id="Path_3259" data-name="Path 3259" d="M39.8,78.484l-.778-.684-2.8,3.189-1.447-1.618L34,80.056l2.224,2.489Z" transform="translate(-28.711 -65.698)"/>
    <g id="Group_1911" data-name="Group 1911" transform="translate(10.484 15.058)">
      <path id="Path_3260" data-name="Path 3260" d="M79.813,97.593V96.8H67.4v1.027H79.564Z" transform="translate(-67.4 -96.8)"/>
      <path id="Path_3261" data-name="Path 3261" d="M73.3,154H67.4v1.027h5.538C73.062,154.653,73.187,154.311,73.3,154Z" transform="translate(-67.4 -145.102)"/>
      <rect id="Rectangle_718" data-name="Rectangle 718" width="12.398" height="1.027" transform="translate(0 17.811)"/>
    </g>
  </g>
</svg>
