<svg xmlns="http://www.w3.org/2000/svg" viewBox="1495 1759.6 36.661 34">
  <defs>
    <style>
      .cls-1 {
        fill-rule: evenodd;
		fill:#9fc058;
      }
    </style>
  </defs>
  <path id="Path_3452" data-name="Path 3452" class="cls-1" d="M8.87,23.23,17.317,20.7A3.554,3.554,0,0,1,22,23.1l.127.549-.549.169-4.688,1.6,4.646,1.1,4.012-3.168a3.551,3.551,0,0,1,5.237.38l.38.465-.465.38-9,7.053H6.631L5.744,34,0,31.846,3.886,21.414,8.87,23.23Zm27.791-4.773H.634V17.275H3A15.77,15.77,0,0,1,15.754,3.759,2.392,2.392,0,0,1,15.627,3,2.933,2.933,0,0,1,16.514.887,3,3,0,0,1,21.625,3a3.72,3.72,0,0,1-.084.718A15.77,15.77,0,0,1,34.3,17.232h2.365v1.225ZM4.181,17.232H33.071a14.364,14.364,0,0,0-4.646-8.785,14.5,14.5,0,0,0-9.841-3.8,14.29,14.29,0,0,0-9.757,3.8,14.8,14.8,0,0,0-4.646,8.785ZM16.937,3.548c.549-.042,1.14-.084,1.732-.084s1.14.042,1.732.084c0-.042,0-.042.042-.084A1.584,1.584,0,0,0,20.484,3a1.9,1.9,0,0,0-.507-1.267,1.719,1.719,0,0,0-1.267-.507,1.9,1.9,0,0,0-1.267.507A1.719,1.719,0,0,0,16.937,3c0,.169.042.338.042.465-.084.042-.042.084-.042.084Zm-7.6,20.78L7.053,30.41H21.287l8.194-6.42a2.5,2.5,0,0,0-3.168.253l-4.477,3.506L14.7,26.1l-2.661.929-.38-1.14,9.038-3a2.518,2.518,0,0,0-3.041-1.056l-8.32,2.492ZM8.067,24.2,4.561,22.892,1.52,31.128l3.506,1.309Z" transform="translate(1495 1759.6)"/>
</svg>
