<?xml version="1.0" encoding="utf-8"?>
<!-- Generator: Adobe Illustrator 23.0.0, SVG Export Plug-In . SVG Version: 6.00 Build 0)  -->
<svg version="1.1" id="Layer_1" xmlns="http://www.w3.org/2000/svg" xmlns:xlink="http://www.w3.org/1999/xlink" x="0px" y="0px"
	 viewBox="0 0 29 28" style="enable-background:new 0 0 29 28;" xml:space="preserve">
<style type="text/css">
	.st0{fill:#414042;}
</style>
<path class="st0" d="M28.5,15c-1.2,1.7-2.9,1.8-4.6,1.8c-3.9,0-7.7,0-11.6,0c-2.5,0-5,0.1-7.5,0.2c-1.7,0-4.3-2.4-4.4-4
	c0-1,0.9-1.4,1.7-1.6C3.1,11.1,4,11.1,5,11.1c4.2,0,8.5,0,12.7,0c1.9,0,3.9-0.1,5.8,0.2C25.8,11.6,27.4,13,28.5,15z M25.1,16
	c0.6-0.2,1.2-0.4,1.8-0.7c0.2-0.1,0.3-0.7,0.2-0.8c-1.4-1.8-4.4-3-6.6-2.4c-0.6,0.2-0.8,0.5-0.4,1C21.4,14.6,22.9,15.8,25.1,16z
	 M19.9,14.5c0-0.1,0.1-0.2,0.1-0.3c-0.4-0.2-0.7-0.5-1.1-0.5c-2,0-4,0-6,0c-3.7,0-7.3,0-11.1,0c0.1,0.8,0.6,1,1.2,1
	c3.6-0.1,7.1-0.1,10.7-0.2C15.9,14.5,17.9,14.5,19.9,14.5z M1.5,12.4c0,0.1,0,0.3,0.1,0.4c0.3,0,0.6,0,1,0c3.8,0,7.7,0,11.5,0
	c1.3,0,2.7,0,4,0c0.3,0,0.6-0.3,0.9-0.4c-0.3-0.1-0.5-0.3-0.8-0.4c-0.5-0.1-1,0-1.6,0c-4.4,0-8.7,0-13.1,0
	C2.9,12.1,2.2,12.3,1.5,12.4z M21.5,15.9c0-0.1,0-0.2,0-0.3c-5.9,0-11.7,0-17.6,0c0,0.1,0,0.2,0,0.3C9.8,15.9,15.7,15.9,21.5,15.9z"
	/>
</svg>
