<svg xmlns="http://www.w3.org/2000/svg" viewBox="1495 2138.422 37.171 35">
  <defs>
    <style>
      .cls-1 {
        fill: #e13c3f;
      }

      .cls-2 {
        fill: #fff;
      }
    </style>
  </defs>
  <g id="Group_2296" data-name="Group 2296" transform="translate(1495 2138.422)">
    <path id="Path_254" data-name="Path 254" class="cls-1" d="M37.053,14.046S35.827,3.8,27.027,1.037A18.1,18.1,0,0,0,16.67.474,23.3,23.3,0,0,0,5.865,5.2,15.177,15.177,0,0,0,.877,13.019a13.354,13.354,0,0,0-.149,5.5c.116.7,1.11,1.342,1.11.215C1.954,6.142,12.328,3.788,12.692,3.722c.133-.033.265-.05.381-.083a1.747,1.747,0,0,1,.5-.05.13.13,0,0,1,.033.249c-.829.4-4.06,1.491-5.817,3.033a13.964,13.964,0,0,0-4.839,8.435A36.586,36.586,0,0,0,3.064,22.6a11.515,11.515,0,0,0,1.972,4.557,18.138,18.138,0,0,0,6.977,5.137,26.487,26.487,0,0,0,3.232.7.2.2,0,0,1-.033.4c-1.143.182-3.878-.447-6.148-1.558A13.521,13.521,0,0,1,5.036,28.6c-1.259-1.359-1.939-2.784-2.4-2.7-.779.166-.116,1.806.232,2.436a13.514,13.514,0,0,0,4.673,4.706,16.5,16.5,0,0,0,8.982,1.889c7.142-.6,11.534-4.044,13.489-6.728a15.7,15.7,0,0,0,3.629-9.744c-.017-.779.066-6.148-1.707-8.949-.4-.63-1.607-3.248-6.148-5.485a8.938,8.938,0,0,0-3.165-.994c-.53-.017-1.607-.066-1.508-.7.066-.447,2.718.149,3,.215a20.278,20.278,0,0,1,6.032,3.281c5.253,4.01,4.723,12.512,4.723,12.512-.232,9.032-5.5,12.86-9.313,15.13-.066.05-.348.4-.265.53s.265.116.447.1a8.766,8.766,0,0,0,4.093-2.187c6.264-4.905,6.579-8.75,6.944-10.192a26.773,26.773,0,0,0,.282-7.673M2.07,22.68a8.163,8.163,0,0,0,.149,1.409.493.493,0,0,1-.646.547,1.936,1.936,0,0,1-.845-.365,1.485,1.485,0,0,1-.464-.812c-.2-.7-.613-2.751.663-2.734a.928.928,0,0,1,.713.348A3.04,3.04,0,0,1,2.07,22.68" transform="translate(-0.038 0.028)"/>
    <path id="Path_255" data-name="Path 255" class="cls-2" d="M59.413,80.307c-.182-.066-.348-.133-.481-.182-.481-.2-1.657-.5-2.6-.746-.53-.133-1.061-.282-1.177-.315a12.869,12.869,0,0,1-.447-1.624,3.924,3.924,0,0,0-.133-.53c-.083-.3-.2-.464-.481-.431h-.017c-.1.017-1.508.365-3.795.961-1.541.4-3.132.8-3.232.812-.133.017-.2.083-1.21,1.657-.3.464-.679,1.061-.729,1.127-.033.017-.249.116-.481.232-.63.3-1.823.845-2.834,1.425a22.511,22.511,0,0,0-3.447,2.32.273.273,0,0,0,0,.315.5.5,0,0,0,.464.166.312.312,0,0,0,.133-.033c.215-.05,7.06-1.425,10.971-2.071.978-.166,2.221-.315,3.679-.481,3.6-.381,7.209-.58,7.424-.563a.707.707,0,0,0,.58-.232.755.755,0,0,0,.182-.481c-.033-.365-.779-.713-2.37-1.326" transform="translate(-31.959 -63.797)"/>
  </g>
</svg>
