<svg xmlns="http://www.w3.org/2000/svg" viewBox="1412 2179 202.191 50">
  <defs>
    <style>
      .cls-1 {
        fill: #da1a32;
      }

      .cls-2 {
        fill: #fff;
      }
    </style>
  </defs>
  <g id="Group_2297" data-name="Group 2297" transform="translate(1412 2179)">
    <path id="Path_254" data-name="Path 254" class="cls-1" d="M52.917,20.078S51.165,5.448,38.594,1.494C31.586-.731,28.083-.068,23.8.689c-5.043.876-11.1,3.03-15.435,6.747A21.681,21.681,0,0,0,1.236,18.61a19.078,19.078,0,0,0-.213,7.86c.166.994,1.586,1.918,1.586.308C2.775,8.786,17.6,5.424,18.116,5.329c.189-.047.379-.071.545-.118a2.5,2.5,0,0,1,.71-.071.186.186,0,0,1,.047.355c-1.184.568-5.8,2.131-8.31,4.332A19.949,19.949,0,0,0,4.2,21.877a52.266,52.266,0,0,0,.166,10.417A16.45,16.45,0,0,0,7.178,38.8a25.912,25.912,0,0,0,9.967,7.339,37.841,37.841,0,0,0,4.616.994.286.286,0,0,1-.047.568c-1.634.26-5.54-.639-8.783-2.225a19.315,19.315,0,0,1-5.753-4.616c-1.8-1.941-2.77-3.977-3.433-3.859-1.113.237-.166,2.58.331,3.48a19.305,19.305,0,0,0,6.676,6.723,23.572,23.572,0,0,0,12.831,2.7c10.2-.852,16.477-5.776,19.271-9.612,1.634-2.249,5.279-6.984,5.185-13.92-.024-1.113.095-8.783-2.438-12.784-.568-.9-2.3-4.64-8.783-7.836A12.769,12.769,0,0,0,32.3,4.335c-.758-.024-2.3-.095-2.154-.994.095-.639,3.883.213,4.285.308a28.969,28.969,0,0,1,8.617,4.687c7.5,5.729,6.747,17.874,6.747,17.874-.331,12.9-7.86,18.371-13.3,21.614-.095.071-.5.568-.379.758s.379.166.639.142c2.083-.213,4.119-1.752,5.847-3.125,8.949-7.008,9.4-12.5,9.919-14.56a38.247,38.247,0,0,0,.4-10.961M2.941,32.412a11.662,11.662,0,0,0,.213,2.012.7.7,0,0,1-.923.781,2.766,2.766,0,0,1-1.207-.521,2.121,2.121,0,0,1-.663-1.16c-.284-.994-.876-3.93.947-3.906a1.326,1.326,0,0,1,1.018.5,4.343,4.343,0,0,1,.616,2.3" transform="translate(-0.038 0.028)"/>
    <path id="Path_255" data-name="Path 255" class="cls-2" d="M68.461,81.949c-.26-.095-.5-.189-.687-.26-.687-.284-2.367-.71-3.717-1.065-.758-.189-1.515-.4-1.681-.45a18.383,18.383,0,0,1-.639-2.32,5.605,5.605,0,0,0-.189-.758c-.118-.426-.284-.663-.687-.616h-.024c-.142.024-2.154.521-5.421,1.373-2.2.568-4.474,1.136-4.616,1.16-.189.024-.284.118-1.728,2.367-.426.663-.971,1.515-1.042,1.61-.047.024-.355.166-.687.331-.9.426-2.6,1.207-4.048,2.036a32.161,32.161,0,0,0-4.924,3.314.39.39,0,0,0,0,.45.719.719,0,0,0,.663.237.446.446,0,0,0,.189-.047c.308-.071,10.085-2.036,15.672-2.959,1.4-.237,3.172-.45,5.256-.687,5.137-.545,10.3-.829,10.606-.8a1.01,1.01,0,0,0,.829-.331,1.078,1.078,0,0,0,.26-.687c-.047-.521-1.113-1.018-3.385-1.894" transform="translate(-29.242 -58.363)"/>
    <path id="Path_256" data-name="Path 256" d="M798,142.3h1.586v.331h-.592v1.681h-.379v-1.681H798Zm1.87,0h.592l.544,1.539h0l.545-1.539h.592v2.012h-.379v-1.681h0l-.592,1.681h-.308l-.592-1.681h0v1.681h-.379V142.3Z" transform="translate(-609.09 -108.605)"/>
    <path id="Path_257" data-name="Path 257" d="M363.078,69.925c.663-1.965,1.515-6.51-1.255-7.221a3.639,3.639,0,0,0-2.936.639c0,1.042,1.136.829,1.16,1.847-.71,2.107-3.693,6.013-1.136,8.357,2.3,2.107,6.037-.426,7.2-1.278.876-.663,1.633-1.539,2.367-1.657.26,2.7,1.3,4.545,3.717,4.877.71-.781.095-1.681.118-2.675a26.012,26.012,0,0,1,.923-5.019c.379-1.657,1.326-3.48.071-5.019-1.444-.331-2.06.876-2.7,1.657a16.244,16.244,0,0,1-7.528,5.492m-66.24-9.351c-1.918-.687-5.161-.237-8-.4-2.557-.142-5.895-1.065-5.729,1.136.189,2.6,5.421,2.32,8.144,2.06-1.918,1.776-4.19,3.5-6.368,5.3-1.894,1.586-5.35,3.456-4.4,7.008,2.131,1.207,4.664,0,7.481-.118,5.3-.189,9.825,1.4,14.867.947,1.965-.166,5.066-.829,4.9-2.983-1.113-.663-2.06.024-3.149.142-5.185.545-10.062-2.344-15.956-1.965,1.515-1.586,3.5-3.149,5.256-4.806,1.586-1.491,3.93-3.409,2.959-6.321M281.118,59.3a1.015,1.015,0,0,0-1.468.331c-2.344,2.817-7.647,7.221-7.173,11.837.166,1.657,1.113,3.74,3.243,3.03.616-.545.379-1.3.663-2.012,1.7-4.167,6.629-7.079,4.735-13.186m23.153,8.878c1.515-1.373,2.746-2.7,4.474-4.309,1.16-1.089,4.285-2.983,3.385-5.327-.5-1.278-2.7-1.539-4.285-1.539-2.249,0-5.114.687-7.434.616-.8-.024-1.539-.687-2.178-.189-2.107,4.38,4.522,4.1,7.789,3.741-2.367,2.557-6.51,4.1-8.57,6.96a3.415,3.415,0,0,0-.734,3.172c.876.71,1.87.213,2.841.189,4.356-.142,9.351,1.3,12.618-.237a16.846,16.846,0,0,0,1.728-1.326c3.977,1.278,6.794-.994,9.115-2.273,1.4,1.894,7.126,2.012,7.6-.45-.9-1.539-3.385-.663-3.859-2.367-.473-1.752,2.533-4.285.663-6.179-.734-.5-1.539.284-1.989-.024-5.705-.71-11.648,2.391-13.092,6.605a6.82,6.82,0,0,0,.118,3.527c-2.415.971-5.54-.237-8.191-.592m13.115-2.249c.616-2.509,2.888-3.48,5.469-4.143.71.024-.308.758-.237,1.16a3.458,3.458,0,0,0-.379,1.491c-1.586.521-2.723,1.468-4.853,1.491m68.134-12.05c-2.06-.545-2.912,1.042-4.119,2.486-.971,1.16-1.562,2.344-2.131,2.486-1.373.4-3.527-.876-4.687-.545a1.592,1.592,0,0,0-1.065,1.326c-.047,1.8,2.131,2.06,3.883,2.7a30.365,30.365,0,0,0-2.32,6.013c-.5,2.083-1.065,5.161.118,7.363,1.42-.237,1.776-1.941,2.249-3.007a77.259,77.259,0,0,1,5.279-10.677,52.866,52.866,0,0,0,9.162-1.776c.923-.237,2.225-.142,2.557-1.16-.663-.781-1.965-.521-3.03-.521-2.533-.024-5.256.142-6.96.118.568-1.255,2.32-2.794,1.065-4.806M288.363,50.3c-2.533-.829-6.7,1.16-8.049,3.125-.876,1.255-1.16,3.741.5,4.19,2.107.568,3.693-1.847,4.593-2.817,1.373-1.491,2.557-2.533,2.959-4.5m57.859,10.464c.876-1.7,1.444-3.243,2.391-5.35.4-.923,2.723-5.161.521-5.682-.024,0-.142-.024-.166,0-3.74,1.042-6.392,8.191-8.712,11.15-2.841-.071-6.321-.284-6.155,1.8.118,1.7,2.6,2.036,4.048,2.865-.521,1.657-3.717,8.333-.994,10.038,2.841,1.8,4.332-2.391,4.972-4.143a43.5,43.5,0,0,1,2.344-5.847c2.249-.166,4.735-.923,6.558-.947-.5,1.941-1.586,4.664-.4,7.2,2.083,1.349,3.646-.118,4.356-1.468,1.16-2.154,1.326-5.966,2.178-7.694,1.349-.8,3.433-.9,3.764-2.651-.781-.758-1.965.024-2.983-.024a42.484,42.484,0,0,1,1.468-4.332c.474-1.444,1.42-3.2.284-4.687-2.32.4-3.314,2.509-4.309,4.143-1.089,1.823-1.965,3.764-3.03,5.492-2.083.047-3.93.26-6.132.142M262.155,65c.852-.971,2.391-.781,3.717-1.136,2.344-.639,5.966-2.344,5.871-5.3-.095-2.6-2.6-4.119-5.54-4.569-2.06,7.079-5.54,13.376-8.854,19.531-.994,1.87-1.989,4.616-4.593,4.83-1.278-1.113-.852-2.723-.639-3.859a42.284,42.284,0,0,1,3.5-9.848,44.068,44.068,0,0,1,7.244-10.819c-1.207.047-1.965.213-2.865-.355-.758-3.456,2.841-4.19,5.327-4.356,5.729-.355,11.506,2.912,11.364,8.783-.118,4.782-5.256,7.907-10.109,8.286-1.373.142-3.48.308-4.427-1.184" transform="translate(-192.255 -37.461)"/>
  </g>
</svg>
