<svg xmlns="http://www.w3.org/2000/svg" viewBox="4183.426 1258.25 44.954 43">
  <defs>
    <style>
      .cls-1 {
        fill: #bfbfbf;
      }
    </style>
  </defs>
  <path id="Path_3561" data-name="Path 3561" class="cls-1" d="M24.631,1.176,30.848,10.4a2.638,2.638,0,0,0,1.463,1.071L43,14.551A2.636,2.636,0,0,1,44.354,18.7L37.51,27.43a2.574,2.574,0,0,0-.549,1.724l.366,11.1a2.656,2.656,0,0,1-3.553,2.586l-10.45-3.788a2.67,2.67,0,0,0-1.8,0l-10.45,3.788A2.663,2.663,0,0,1,7.52,40.257l.366-11.1a2.72,2.72,0,0,0-.549-1.724L.518,18.679a2.632,2.632,0,0,1,1.358-4.154l10.685-3.083a2.638,2.638,0,0,0,1.463-1.071l6.217-9.2A2.636,2.636,0,0,1,24.631,1.176Z" transform="translate(4183.467 1258.25)"/>
</svg>
