<svg xmlns="http://www.w3.org/2000/svg" viewBox="1495 846.223 37 37">
  <defs>
    <style>
      .cls-1 {
        fill: #fff;
      }
    </style>
  </defs>
  <g id="Group_2282" data-name="Group 2282" transform="translate(1495 846.223)">
    <g id="Call_Icon" data-name="Call Icon" transform="translate(0)">
      <ellipse id="Oval" cx="18.5" cy="18.5" rx="18.5" ry="18.5" transform="translate(0)"/>
    </g>
    <path id="Path_2382" data-name="Path 2382" class="cls-1" d="M17.756,17.4l-.472-1.772a2.613,2.613,0,0,0-1.653-1.772L12.5,12.8c-.827-.354-1.24-1.772-1.3-2.244a2.547,2.547,0,0,0,.827-1.89c0-.413.177-.472.118-.472a.157.157,0,0,0,.177-.177,6.436,6.436,0,0,0,.413-1.594V6.359a1.062,1.062,0,0,0-.354-.531V3.82c0-1.181-.354-1.653-.768-1.89C11.556,1.34,11.025.1,8.84.1A3.935,3.935,0,0,0,5.178,3.879a11.916,11.916,0,0,1-.059,1.594v.413c-.177.059-.3.3-.354.413v.059a4.54,4.54,0,0,0,.413,1.594c.059.059.118.177.177.177,0,0,.177.059.177.472a3.078,3.078,0,0,0,1.181,1.949c-.059.472-.413,1.831-1.24,2.185L2.226,13.8A2.613,2.613,0,0,0,.572,15.571L.1,17.343a.355.355,0,0,0,.059.236.157.157,0,0,0,.177.177H17.461a.307.307,0,0,0,.236-.118A.355.355,0,0,0,17.756,17.4Z" transform="translate(9.993 8.332)"/>
  </g>
</svg>
