<?xml version="1.0" encoding="utf-8"?>
<!-- Generator: Adobe Illustrator 23.0.0, SVG Export Plug-In . SVG Version: 6.00 Build 0)  -->
<svg version="1.1" id="Layer_1" xmlns="http://www.w3.org/2000/svg" xmlns:xlink="http://www.w3.org/1999/xlink" x="0px" y="0px"
	 viewBox="0 0 29 28" style="enable-background:new 0 0 29 28;" xml:space="preserve">
<style type="text/css">
	.st0{fill:#414042;}
</style>
<g>
	<path class="st0" d="M28,16c-0.3,0-0.5,0.2-0.5,0.5c0,0.8-4.4,2.4-12.8,2.4c-0.6,0-1.1,0-1.7,0c0.1-0.3,0.2-0.7,0.3-1
		c0-0.1,0.1-0.2,0.1-0.4c0.4,0,0.8,0,1.2,0c5.5,0,13.8-0.9,13.8-3.3c0-0.9-0.9-1.5-2.8-2.1c-0.3-0.1-0.5,0.1-0.6,0.3
		c-0.1,0.3,0.1,0.5,0.3,0.6c1.7,0.5,2.1,1,2.1,1.2c0,0.8-4.4,2.4-12.8,2.4c-0.3,0-0.6,0-0.9,0c0.5-1.6,0.8-3.2-0.2-4.1
		c-0.5-0.5-1-0.5-1.3-0.4c-1.2,0.3-1.8,2.6-1.9,3c-0.1,0.3,0.1,0.5,0.3,0.6c0.3,0.1,0.5-0.1,0.6-0.3c0.2-0.9,0.8-2.2,1.2-2.3
		c0.1,0,0.2,0,0.3,0.2c0.6,0.6,0.3,2.1-0.2,3.4c-7.2-0.2-10.9-1.6-10.9-2.3c0-0.2,0.6-0.8,2.7-1.4c0.3-0.1,0.4-0.3,0.3-0.6
		c-0.1-0.3-0.3-0.4-0.6-0.3c-2.3,0.6-3.4,1.3-3.4,2.3c0,2.1,6.3,3.1,11.6,3.3c0,0,0,0.1,0,0.1c-0.2,0.5-0.3,0.9-0.4,1.3
		c-6.7-0.3-10.2-1.6-10.2-2.3c0-0.3-0.2-0.5-0.5-0.5s-0.5,0.2-0.5,0.5c0,2,5.8,3,10.9,3.3c0,0,0,0.1,0,0.1c0,1.6,1,2.7,1.1,2.7
		c0.1,0.1,0.2,0.1,0.3,0.1s0.2,0,0.3-0.1c0.2-0.2,0.2-0.5,0-0.7c0,0-0.8-0.8-0.8-2c0,0,0,0,0,0c0.7,0,1.3,0,1.9,0
		c5.5,0,13.8-0.9,13.8-3.3C28.4,16.2,28.2,16,28,16z"/>
	<path class="st0" d="M8.3,8.9c0,0-4.2,2.2-2.1,6.3c0.1,0.2,0.3,0.3,0.4,0.3c0.1,0,0.1,0,0.2-0.1C7,15.3,7.1,15.1,7,14.8
		c-1.7-3.3,1.6-5,1.7-5.1C8.9,9.6,9,9.4,8.9,9.1C8.8,8.9,8.5,8.8,8.3,8.9z"/>
	<path class="st0" d="M9.5,10.8c0.3-0.1,0.4-0.3,0.4-0.6C9.8,9.9,9.6,9.8,9.3,9.8c-0.1,0-2.7,0.6-1.8,5.3c0,0.2,0.2,0.4,0.5,0.4
		c0,0,0.1,0,0.1,0c0.3-0.1,0.4-0.3,0.4-0.6C7.7,11.3,9.4,10.8,9.5,10.8z"/>
	<path class="st0" d="M11.5,11.2c0.2-0.1,0.4-0.4,0.3-0.6c-0.1-0.2-0.4-0.4-0.6-0.3c0,0-3.2,1.1-2.2,4.8c0.1,0.2,0.2,0.4,0.5,0.4
		c0,0,0.1,0,0.1,0c0.3-0.1,0.4-0.3,0.3-0.6C9.1,12.1,11.4,11.2,11.5,11.2z"/>
	<path class="st0" d="M4.7,11.2C4.7,11.2,4.7,11.2,4.7,11.2c0.3,0,0.5-0.3,0.5-0.5c0,0-0.2-1.4,0.6-2.1c0.4-0.4,1.2-0.5,2.1-0.2
		C8.1,8.4,8.4,8.3,8.5,8c0.1-0.3-0.1-0.5-0.3-0.6c-1.3-0.3-2.3-0.2-3,0.4c-1.1,1-0.9,2.9-0.9,2.9C4.2,11.1,4.4,11.2,4.7,11.2z"/>
	<path class="st0" d="M9.8,9.2c0,0,2.4-3,5.4-2.9c1.7,0.1,3.4,1.2,4.8,3.3c0.1,0.1,0.2,0.2,0.4,0.2c0.1,0,0.2,0,0.3-0.1
		c0.2-0.1,0.3-0.4,0.1-0.7c-1.6-2.4-3.5-3.6-5.6-3.7c-3.4-0.1-6,3.1-6.1,3.2C8.9,8.8,8.9,9.1,9.1,9.2C9.3,9.4,9.6,9.4,9.8,9.2z"/>
	<path class="st0" d="M18.6,10.1c0.1,0.1,0.2,0.2,0.4,0.2c0.1,0,0.2,0,0.3-0.1c0.2-0.2,0.3-0.5,0.1-0.7c-1.2-1.7-2.6-2.6-4.2-2.6
		c-2.6-0.1-4.6,2-4.6,2.1c-0.2,0.2-0.2,0.5,0,0.7c0.2,0.2,0.5,0.2,0.7,0c0,0,1.8-1.9,3.9-1.8C16.3,7.9,17.5,8.7,18.6,10.1z"/>
	<path class="st0" d="M12.5,10.2c0,0,2.5-1.6,3.6-0.1c0.1,0.1,0.2,0.2,0.4,0.2c0.1,0,0.2,0,0.3-0.1c0.2-0.2,0.3-0.5,0.1-0.7
		c-1.3-1.8-3.8-0.9-4.9-0.1c-0.2,0.1-0.3,0.4-0.1,0.7C12,10.3,12.3,10.4,12.5,10.2z"/>
	<path class="st0" d="M14.7,12.2c0,0.3,0.2,0.5,0.5,0.5c0.2,0,4.5,0,6.5-2c0.2-0.2,0.2-0.5,0-0.7c-0.2-0.2-0.5-0.2-0.7,0
		c-1.7,1.7-5.8,1.8-5.8,1.8C14.9,11.7,14.7,11.9,14.7,12.2z"/>
	<path class="st0" d="M15.1,13.1c-0.3,0-0.5,0.2-0.5,0.5c0,0.3,0.2,0.5,0.5,0.5c0.2,0,5.5,0,8-3.5c0.2-0.2,0.1-0.5-0.1-0.7
		c-0.2-0.2-0.5-0.1-0.7,0.1C20.1,13.1,15.2,13.1,15.1,13.1z"/>
	<path class="st0" d="M14.7,15.1c0,0.2,0.2,0.4,0.5,0.4c0,0,0,0,0.1,0c0.3,0,7.9-1,9.9-4.5c0.1-0.2,0.1-0.5-0.2-0.6
		c-0.2-0.1-0.5-0.1-0.6,0.2c-1.8,3.1-9.1,4-9.2,4C14.8,14.6,14.6,14.8,14.7,15.1z"/>
</g>
</svg>
