<svg xmlns="http://www.w3.org/2000/svg" viewBox="1407.687 223 35.693 29">
  <defs>
    <style>
      .cls-1 {
        fill-rule: evenodd;
		fill:#fff;
      }
    </style>
  </defs>
  <path id="Fill-1" class="cls-1" d="M52.677,21.644a11.9,11.9,0,0,1-4.592,1.63v0a7.362,7.362,0,0,0-12.5,6.73h0A20.393,20.393,0,0,1,20.4,22.365a7.367,7.367,0,0,0,2.233,9.729,4.733,4.733,0,0,1-3.216-.833c-.05,2.565,1.183,5.964,5.68,7.2a5.831,5.831,0,0,1-3.066.233c.234,2.165,3.266,5,6.582,5C27.436,45.053,22.99,47.533,18,46.744A22.125,22.125,0,0,0,29.519,50,20.457,20.457,0,0,0,50.128,28.495c0-.013,0-.026,0-.04,0-.031,0-.061,0-.093s0-.072,0-.107a12.7,12.7,0,0,0,3.569-3.77,12.9,12.9,0,0,1-4.083,1.159,7.823,7.823,0,0,0,3.067-4" transform="translate(1389.687 202)"/>
</svg>
