<svg xmlns="http://www.w3.org/2000/svg" viewBox="1559.113 183 41.298 29">
  <defs>
    <style>
      .cls-1 {
        fill: #fff;
      }
    </style>
  </defs>
  <path id="Path_3432" data-name="Path 3432" class="cls-1" d="M40.885,6.286S40.472,3.441,39.233,2.2A5.851,5.851,0,0,0,35.1.459C29.321,0,20.649,0,20.649,0h0S11.976,0,6.195.413a5.784,5.784,0,0,0-4.13,1.744C.826,3.4.413,6.241.413,6.241A62.747,62.747,0,0,0,0,12.94v3.12a62.747,62.747,0,0,0,.413,6.7S.826,25.6,2.065,26.843c1.56,1.652,3.625,1.606,4.543,1.744,3.3.321,14.041.413,14.041.413s8.673,0,14.454-.413a5.784,5.784,0,0,0,4.13-1.744c1.239-1.239,1.652-4.084,1.652-4.084a62.466,62.466,0,0,0,.413-6.653v-3.12A61.625,61.625,0,0,0,40.885,6.286Zm-24.5,13.582V8.259l11.15,5.828Z" transform="translate(1559.113 183)"/>
</svg>
