<?xml version="1.0" encoding="UTF-8"?>
<svg width="30px" height="22px" viewBox="0 0 30 22" version="1.1" xmlns="http://www.w3.org/2000/svg" xmlns:xlink="http://www.w3.org/1999/xlink">
    <!-- Generator: Sketch 52.6 (67491) - http://www.bohemiancoding.com/sketch -->
    <title>ph_icon_Chiffonnade_de_jambon_cru-v2</title>
    <desc>Created with Sketch.</desc>
    <g id="Icon-list" stroke="none" stroke-width="1" fill="none" fill-rule="evenodd">
        <g id="Icons-Copy-3" transform="translate(-443.000000, -695.000000)">
            <g id="ph_icon_Chiffonnade_de_jambon_cru-v2" transform="translate(443.000000, 695.000000)">
                <path d="M29.23,4.67 C29.2118182,4.54735086 29.1816745,4.42677595 29.14,4.31 L29.08,4.19 C29.08,4.13 29.08,4.07 29,4.02 C28.9700993,3.98579805 28.9433254,3.94898399 28.92,3.91 L28.86,3.82 L28.74,3.71 C28.5310109,3.50917435 28.3554634,3.27623629 28.22,3.02 C28.1092717,2.8991008 28.0332607,2.75053383 28,2.59 C28.1026177,2.1345923 27.8764908,1.66877474 27.4551891,1.46769894 C27.0338875,1.26662314 26.5295162,1.38379384 26.24,1.75 C25.73,2.43 26.24,2.66 25.86,3.3 C25.5705141,3.711881 25.211881,4.07051406 24.8,4.36 C23.4486998,4.66190378 22.1136398,5.03238294 20.8,5.47 C17.37,6.27 12.43,5.12 5.5,8.07 C4.05649375,8.58546697 2.86499837,9.63383978 2.17,11 C1.7052563,11.699723 1.40759068,12.4969194 1.3,13.33 C1.2426994,13.6629407 1.25977414,14.0044356 1.35,14.33 C2.1,16.33 2.9,18.92 6.71,20.69 C7.03384116,20.837611 7.36807071,20.9612759 7.71,21.06 C9.55592057,21.8866486 11.6737794,21.8500075 13.49,20.96 C22.2,15.17 21.95,10.82 23.32,8.68 C23.9321985,7.67660141 24.6943548,6.77280542 25.58,6 C25.6692574,5.9536701 25.7476544,5.88890733 25.81,5.81 C26.39,5.43 27.01,5.13 27.56,5.49 C28.62,6.11 29.39,5.69 29.23,4.67 Z" id="Path" fill="#CCCCCC" style="mix-blend-mode: multiply;"></path>
                <path d="M23.65,4.18 C24.3022947,3.77444119 24.8833939,3.26429014 25.37,2.67 C25.75,2.03 25.24,1.8 25.76,1.12 C26.054352,0.747894953 26.5696596,0.633849634 26.9935373,0.846999604 C27.4174151,1.06014957 27.6331663,1.54181297 27.51,2 C27.5939453,2.3929044 27.8090649,2.74555937 28.12,3 C28.4394357,3.2453098 28.6538728,3.60270509 28.72,4 C28.88,5 28.07,5.41 27.02,4.74 C25.97,4.07 24.74,5.74 23.85,5.94 C23.2178753,6.06678697 22.5747142,6.13043312 21.93,6.1300022 C22.2369595,5.28638354 22.8513083,4.58988343 23.65,4.18 Z" id="Path" fill="#E7DACB"></path>
                <path d="M28.3,3.43 C28.3,3.57 28.53,3.56 28.63,3.7 C28.5280485,3.42396991 28.3514983,3.18164602 28.12,3 C27.9110109,2.79917435 27.7354634,2.56623629 27.6,2.31 C27.74,2.77 28.2,3.15 28.3,3.43 Z" id="Path" fill="#B7B0A7"></path>
                <path d="M27,1.17 C26.665747,0.934938077 26.2094367,0.981848485 25.93,1.28 C25.8,1.45 25.81,1.54 25.93,1.45 C26.2128477,1.16446461 26.6532117,1.10684689 27,1.31 C27.13,1.38 27.11,1.27 27,1.17 Z" id="Path" fill="#FFFFFF"></path>
                <path d="M28.72,4 C28.6593264,3.60316939 28.4480083,3.24500312 28.13,3 C28.31,3.39 28.5,4 28.13,4.11 C27.57,4.32 27.31,3.85 26.68,3.94 C26.05,4.03 26.09,3.32 25.91,2.94 C25.73,2.56 26.11,4.06 25.84,4.14 C25.1776291,4.36298972 24.5297198,4.62682911 23.9,4.93 C23.36,5.22 24.05,4.4 24.28,3.79 C23.93,4.05 23.64,4.24 23.64,4.24 C22.8317144,4.6618203 22.2160757,5.37767926 21.92,6.24 C22.5697342,6.22465794 23.2162966,6.1442564 23.85,6 C24.74,5.79 26,4.15 27.06,4.83 C28.12,5.51 28.88,5.05 28.72,4 Z" id="Path" fill="#B7B0A7"></path>
                <path d="M18.76,12.61 C20.1499325,11.4492232 21.3099636,10.0381913 22.18,8.45 C18.48,12.79 20,9.6 19,10.54" id="Path" fill="#8B543E"></path>
                <g id="Icon" transform="translate(0.000000, 3.000000)">
                    <path d="M22.79,5.11 C23.3937154,4.06254118 24.1637675,3.12024057 25.07,2.32 C25.23,2.22 25.35,2.09 25.27,2.12 C24.39,2.38 23.45,2.75 23.51,2.58 C23.57,2.41 24.35,1.99 23.85,2.07 C23.35,2.15 22.37,2.5 22.85,2.19 C23.3919791,1.77516267 23.8703748,1.28329105 24.27,0.73 C24.38,0.51 21.27,1.6 20.27,1.83 C16.84,2.63 11.9,1.49 4.97,4.43 C3.51789787,4.96449024 2.32842901,6.0393115 1.65,7.43 C0.937592552,8.36370838 0.65416647,9.55555139 0.87,10.71 L1,11 C1.29702015,11.8654658 1.67188758,12.7022235 2.12,13.5 C3.12071697,15.1306558 4.60691271,16.4070357 6.37,17.15 C8.67,18.21 11.01,18.46 12.96,17.39 C21.67,11.59 21.42,7.24 22.79,5.11 Z" id="Path" fill="#8F1923"></path>
                    <path d="M0.84,10.75 C1.59,12.75 2.39,15.35 6.2,17.11 C10.01,18.87 14.44,17.49 14.88,14.23 C15.32,10.97 12,9.53 12.1,8 C12.2,6.47 8.63,4.8 5.52,5.23 C1.61,5.69 0.39,9.58 0.84,10.75 Z" id="Path" fill="#F3B3AD"></path>
                    <path d="M13.06,16 C13.06,16 15.7,14.33 13.59,11.42 C11.48,8.51 9.95,9.42 8.59,9.29 C7.23,9.16 6.1,10.6 7.74,12.41 C9.38,14.22 9.45,16.66 8.21,16.95 C6.97,17.24 10.41,18.15 13.06,16 Z" id="Path" fill="#E87B75"></path>
                    <path d="M6.15,10.75 C6.45088611,11.2453471 6.59064613,11.8218572 6.55,12.4 C6.52072193,12.5769842 6.42169338,12.7348355 6.27508581,12.8382126 C6.12847825,12.9415897 5.94653815,12.9818574 5.77,12.95 L5.66,12.95 C4.58049993,12.4396074 3.92235282,11.3215502 4,10.13 C4.07536279,9.76787879 4.42634827,9.53240751 4.79,9.6 L4.86,9.6 C5.39938864,9.83945235 5.85042514,10.2415392 6.15,10.75 Z" id="Path" fill="#FFFFFF"></path>
                    <path d="M5.87,11.2 C6.03555824,11.4622567 6.1126659,11.7706873 6.09,12.08 C6.04534524,12.2729641 5.85320245,12.3936119 5.66,12.35 C5.08149341,12.0823705 4.72764969,11.4860046 4.77,10.85 C4.79353908,10.7569726 4.85324428,10.6771927 4.9358582,10.6283754 C5.01847212,10.5795581 5.11715697,10.5657438 5.21,10.59 C5.49023994,10.7165154 5.72184418,10.9305739 5.87,11.2 Z" id="Path" fill="#E87B75"></path>
                    <path d="M7.93,16.61 C7.93,16.61 9.51,15.43 7.55,12.94 C7.42192897,12.8155243 7.21807103,12.8155243 7.09,12.94 C6.79,13.31 6.17,13.73 5.18,12.89 C3.69,11.62 5.18,13.77 4.43,14.05 C3.68,14.33 3.72,15.05 5.11,15.96 C6.5,16.87 7.5,17 7.93,16.61 Z" id="Path" fill="#E87B75"></path>
                    <path d="M8.37,8.56 C7.84463578,8.63689147 7.36129035,8.89091242 7,9.28 C6.84,9.45 6.49,9.86 5.7,9.28 C5.34298516,9.04301973 4.88836909,9.00892353 4.5,9.19 C3.77,9.59 4.5,8.25 3.98,8.04 C3.46,7.83 2.7,6.22 4.26,5.85 C5.82,5.48 9.18,5.2 11.17,7.32 C11.67,7.84 9.17,8.45 8.37,8.56 Z" id="Path" fill="#E87B75"></path>
                    <path d="M4,12 C3.76,11.55 3.27,10.41 3.85,9.63 C3.85,9.63 4.01,8.56 3.64,8.47 C3.22097149,8.18620254 2.97880057,7.70564461 3,7.2 C3,7.07 2.89,6.94 2.62,7.2 C1.90721688,7.85404822 1.45002109,8.74008657 1.33,9.7 C1.17,11.47 2.89,13.88 3.18,14.21 C3.47,14.54 3.53,13.73 3.92,13.64 C4.31,13.55 4,13 4,12.48 C4.04555612,12.3232427 4.04555612,12.1567573 4,12 Z" id="Path" fill="#E87B75"></path>
                    <path d="M4.78,13.75 C4.2,14.68 5.57,16.37 8.29,16.75 C10.0153954,16.8686941 11.6917407,16.146003 12.79,14.81 C12.9299108,14.6683153 13.0478785,14.5065311 13.14,14.33 C13.5709995,13.2840531 13.1385108,12.0817345 12.14,11.55 C11.36,11.25 10.34,11.73 10.01,13.38 C9.98692785,13.7303903 9.82519421,14.0571465 9.56057913,14.2879809 C9.29596404,14.5188154 8.95027925,14.6347008 8.6,14.61 C8.50056892,14.6250853 8.39943108,14.6250853 8.3,14.61 L8.11,14.55 C6.39,14 5.08,13.27 4.78,13.75 Z" id="Path" fill="#B13E3B"></path>
                </g>
                <path d="M22.15,8.39 C22.66,7.63 24.3,5.9 24.26,5.8 C24.05,5.31 18.06,11.85 18.48,12.59 C19.4,14.1 14.48,14.24 15.11,15.07 C15.74,15.9 14.92,18.66 14.92,18.66 C21.49,13.58 20.88,10.37 22.15,8.39 Z" id="Path" fill="#000000" opacity="0.2" style="mix-blend-mode: multiply;"></path>
                <path d="M10.92,6.65 C12.84,6.12 18.15,5.75 17.92,5.51 C15.6892051,5.45043233 13.458056,5.61458594 11.26,6 C9.51,6.35 6.33,7.44 6.5,7.58 C6.67,7.72 8.79,7.31 10.92,6.65 Z" id="Path" fill="#FFFFFF" opacity="0.2" style="mix-blend-mode: screen;"></path>
            </g>
        </g>
    </g>
</svg>