<?xml version="1.0" encoding="UTF-8"?>
<svg width="26px" height="27px" viewBox="0 0 26 27" version="1.1" xmlns="http://www.w3.org/2000/svg" xmlns:xlink="http://www.w3.org/1999/xlink">
    <!-- Generator: Sketch 52.6 (67491) - http://www.bohemiancoding.com/sketch -->
    <title>ph_icon_Sweetcorn</title>
    <desc>Created with Sketch.</desc>
    <g id="Icon-list" stroke="none" stroke-width="1" fill="none" fill-rule="evenodd">
        <g id="Icons-Copy-3" transform="translate(-96.000000, -985.000000)">
            <g id="ph_icon_Sweetcorn" transform="translate(96.000000, 985.000000)">
                <g id="Background_Shadow" transform="translate(1.000000, 1.000000)" fill="#CCCCCC">
                    <path d="M22.75,18 C22.75,18 21.63,17.26 19.41,16 C20.05,15.21 27.41,6 23.53,1.82 L23.47,1.76 L23.41,1.69 C19.19,-2.13 5.61,8.18 3.41,11.83 C0.46,16.83 0.72,20.06 1.41,21.83 C1.42214982,21.9388027 1.38116465,22.0467993 1.29988818,22.1201464 C1.21861172,22.1934934 1.1069891,22.2232161 1,22.2 C0.62,22.2 -0.25,22.35 1.52,24.09 C3.29,25.83 3.67,25.17 3.63,24.79 C3.61739527,24.6876589 3.65191563,24.5851272 3.72384998,24.5112487 C3.79578434,24.4373701 3.89735918,24.4001284 4,24.41 C5.8,25.02 9.15,25.54 14,22.48 C17.59,20.23 19.52,18.96 21.66,18.56 C22.92,18.34 22.75,18 22.75,18 Z" id="Path" style="mix-blend-mode: multiply;"></path>
                </g>
                <g id="Icon">
                    <path d="M1.1,22.86 C1.20463214,22.8705014 1.30823535,22.8319963 1.38061131,22.7557082 C1.45298727,22.67942 1.48599005,22.573935 1.47,22.47 L2.69,23.93 L4.21,25 C4.10536786,24.9894986 4.00176465,25.0280037 3.92938869,25.1042918 C3.85701273,25.18058 3.82400995,25.286065 3.84,25.39 C3.89,25.78 3.71,26.47 1.84,24.74 C-0.03,23.01 0.7,22.83 1.1,22.86 Z" id="Path" fill="#678A18"></path>
                    <path d="M10.73,15.51 C10.73,15.51 12.47,11.57 9.36,6.42 C9.36,6.42 19.28,-2.58 23.82,1.67 L10.73,15.51 Z" id="Path" fill="#FFD500"></path>
                    <path d="M10.73,15.51 C10.73,15.51 14.53,13.51 19.87,16.28 C19.87,16.28 28.24,5.81 23.7,1.55 L10.73,15.51 Z" id="Path" fill="#F09100"></path>
                    <path d="M15.14,8.6 C15.66,8.11 16.14,7.6 16.69,7.19 L15,5.62 C14.49,6 15.14,8.6 15.14,8.6 Z" id="Path" fill="#FFE666"></path>
                    <path d="M14.9,8.83 L13.12,7.16 C12.53,7.67 11.88,11.03 11.91,11.94 C12.87,10.85 13.88,9.8 14.9,8.83 Z" id="Path" fill="#FFE666"></path>
                    <path d="M20.78,3.88 C21.37,3.44 21.9,3.06 22.33,2.76 L21.54,2 C21,2.2 20.78,3.88 20.78,3.88 Z" id="Path" fill="#FFE666"></path>
                    <path d="M22.39,2.38 L23.39,1.71 C23.2511517,1.60196328 23.1040326,1.50499848 22.95,1.42 C22.6465084,1.65580108 22.4458698,1.99975286 22.39,2.38 Z" id="Path" fill="#FFE666"></path>
                    <path d="M18.83,5.39 C19.42,4.91 19.98,4.48 20.5,4.09 L19.28,2.95 C18.69,3.24 18.83,5.39 18.83,5.39 Z" id="Path" fill="#FFE666"></path>
                    <path d="M17,7 C17.51,6.48 18,6 18.57,5.61 L17.06,4.2 C16.5,4.55 17,7 17,7 Z" id="Path" fill="#FFE666"></path>
                    <path d="M23.75,19 C23.75,19 17.06,12.43 10.75,15.55 L8.22,18 L23.75,19 Z" id="Path" fill="#4D6812"></path>
                    <path d="M6.44,2.7 C6.44,2.7 13.44,8.98 10.73,15.51 L8.36,18.14 L6.44,2.7 Z" id="Path" fill="#678A18"></path>
                    <path d="M23.08,18.52 C20.58,17.25 14.83,13.77 8.84,17.37 L2.47,24.15 C2.47,24.15 6.33,27.77 14.33,22.53 C16.6709342,20.8353309 19.3828874,19.724493 22.24,19.29 C23.93,19.1 24.12,19 23.08,18.52 Z" id="Path" fill="#678A18"></path>
                    <path d="M6.79,3.23 C8.22,5.65 12.05,11.17 8.79,17.37 L2.47,24.15 C2.47,24.15 -1.39,20.53 3.33,12.21 C4.87539181,9.76674846 5.81479364,6.98968464 6.07,4.11 C6.15,2.41 6.19,2.23 6.79,3.23 Z" id="Path" fill="#89B820"></path>
                    <path d="M11.32,5.5 C10.48,6.15 10,6.61 10,6.61 C10.36,7.2 12.08,7.22 12.65,6.73 L11.32,5.5 Z" id="Path" fill="#FFEE99"></path>
                    <path d="M21.32,1.66 L20.64,1 C19.8568325,1.05446476 19.0838718,1.20905692 18.34,1.46 C19.323239,1.63373408 20.3223635,1.70078941 21.32,1.66 Z" id="Path" fill="#FFEE99"></path>
                    <path d="M19,2.54 L18,1.6 C17.2768221,1.86286785 16.5719325,2.17355382 15.89,2.53 C16.921041,2.67952992 17.9680187,2.68289641 19,2.54 Z" id="Path" fill="#FFEE99"></path>
                    <path d="M22.77,1.32 C22.245907,1.11945314 21.6910413,1.01118665 21.13,1 L21.71,1.54 C22.1,1.45 22.45,1.37 22.77,1.32 Z" id="Path" fill="#FFEE99"></path>
                    <path d="M14.57,5.18 L13.35,4 C12.69,4.44 12.09,4.88 11.59,5.26 C11.59,5.29 14,5.58 14.57,5.18 Z" id="Path" fill="#FFEE99"></path>
                    <path d="M16.67,3.77 L15.54,2.7 C14.88,3.06 14.24,3.44 13.64,3.83 C13.64,3.83 16.09,4.12 16.67,3.77 Z" id="Path" fill="#FFEE99"></path>
                    <path d="M17.54,10.85 C18,10.3 18.44,9.75 18.85,9.21 L20.52,10.78 C20.15,11.33 17.54,10.85 17.54,10.85 Z" id="Path" fill="#E07F00"></path>
                    <path d="M17.32,11.11 L19.1,12.78 C18.63,13.4 15.31,14.26 14.41,14.29 C15.44,13.26 16.41,12.18 17.32,11.11 Z" id="Path" fill="#E07F00"></path>
                    <path d="M21.89,4.92 C22.29,4.3 22.64,3.76 22.89,3.3 L23.7,4 C23.55,4.63 21.89,4.92 21.89,4.92 Z" id="Path" fill="#E07F00"></path>
                    <path d="M23.29,3.22 C23.61,2.69 23.82,2.32 23.89,2.22 C24.0077469,2.35120055 24.1147581,2.49165277 24.21,2.64 C23.9873655,2.94234484 23.658791,3.14948964 23.29,3.22 Z" id="Path" fill="#E07F00"></path>
                    <path d="M20.5,7 C20.94,6.38 21.34,5.79 21.69,5.25 L22.91,6.4 C22.66,7 20.5,7 20.5,7 Z" id="Path" fill="#E07F00"></path>
                    <path d="M19.05,8.94 C19.49,8.36 19.91,7.79 20.3,7.24 L21.8,8.65 C21.49,9.24 19.05,8.94 19.05,8.94 Z" id="Path" fill="#E07F00"></path>
                    <path d="M20.87,14.47 C20.27,15.34 19.87,15.88 19.87,15.88 C19.26,15.56 19.13,13.88 19.58,13.25 L20.87,14.47 Z" id="Path" fill="#C46B00"></path>
                    <path d="M24.08,4.24 L24.76,4.88 C24.7569671,5.66345364 24.6527721,6.44323564 24.45,7.2 C24.2199983,6.22961485 24.0959393,5.23714294 24.08,4.24 Z" id="Path" fill="#C46B00"></path>
                    <path d="M23.34,6.64 L24.34,7.58 C24.121926,8.31707642 23.8546595,9.038696 23.54,9.74 C23.3280901,8.72118558 23.2607619,7.67759816 23.34,6.64 Z" id="Path" fill="#C46B00"></path>
                    <path d="M24.32,2.77 C24.5528134,3.28158353 24.6949287,3.82974259 24.74,4.39 L24.16,3.85 C24.23,3.46 24.29,3.09 24.32,2.77 Z" id="Path" fill="#C46B00"></path>
                    <path d="M21,11.2 L22.23,12.35 C21.83,13.04 21.43,13.66 21.08,14.18 C21.06,14.18 20.62,11.77 21,11.2 Z" id="Path" fill="#C46B00"></path>
                    <path d="M22.26,9 L23.4,10.07 C23.08,10.76 22.74,11.42 22.4,12.07 C22.39,12 21.95,9.61 22.26,9 Z" id="Path" fill="#C46B00"></path>
                    <path d="M2.61,23.15 C2.61,23.15 0.78,20.31 2.61,15 C2.83,14.36 3.29,13.56 3.15,14.41 C2.82,16.41 2.53,19.87 4.15,21.41 L2.61,23.15 Z" id="Path" fill="#B8D479"></path>
                    <path d="M3.56,24 C3.56,24 6.5,25.65 11.7,23.45 C12.32,23.19 13.1,22.68 12.25,22.87 C10.3,23.32 6.84,23.87 5.17,22.27 L3.56,24 Z" id="Path" fill="#4D6812"></path>
                </g>
            </g>
        </g>
    </g>
</svg>