<?xml version="1.0" encoding="UTF-8"?>
<svg width="28px" height="18px" viewBox="0 0 28 18" version="1.1" xmlns="http://www.w3.org/2000/svg" xmlns:xlink="http://www.w3.org/1999/xlink">
    <!-- Generator: Sketch 52.6 (67491) - http://www.bohemiancoding.com/sketch -->
    <title>ph_icon_chicken 1</title>
    <desc>Created with Sketch.</desc>
    <defs>
        <radialGradient cx="30.7150848%" cy="29.1307379%" fx="30.7150848%" fy="29.1307379%" r="84.2434404%" gradientTransform="translate(0.307151,0.291307),scale(0.625366,1.000000),rotate(-14.452428),translate(-0.307151,-0.291307)" id="radialGradient-1">
            <stop stop-color="#EC5332" offset="22%"></stop>
            <stop stop-color="#EA5131" offset="52%"></stop>
            <stop stop-color="#E24B2E" offset="67%"></stop>
            <stop stop-color="#D54128" offset="79%"></stop>
            <stop stop-color="#C23320" offset="89%"></stop>
            <stop stop-color="#A92016" offset="98%"></stop>
            <stop stop-color="#A31B13" offset="100%"></stop>
        </radialGradient>
        <radialGradient cx="30.6551626%" cy="52.7334787%" fx="30.6551626%" fy="52.7334787%" r="43.5878944%" gradientTransform="translate(0.306552,0.527335),scale(0.668219,1.000000),rotate(-29.604451),translate(-0.306552,-0.527335)" id="radialGradient-2">
            <stop stop-color="#EC5332" offset="22%"></stop>
            <stop stop-color="#EA5131" offset="52%"></stop>
            <stop stop-color="#E24B2E" offset="67%"></stop>
            <stop stop-color="#D54128" offset="79%"></stop>
            <stop stop-color="#C23320" offset="89%"></stop>
            <stop stop-color="#A92016" offset="98%"></stop>
            <stop stop-color="#A31B13" offset="100%"></stop>
        </radialGradient>
        <radialGradient cx="-1090.92%" cy="357.893307%" fx="-1090.92%" fy="357.893307%" r="554.645308%" gradientTransform="translate(-10.909200,3.578933),scale(1.000000,0.534405),rotate(-29.604451),translate(10.909200,-3.578933)" id="radialGradient-3">
            <stop stop-color="#EC5332" offset="22%"></stop>
            <stop stop-color="#EA5131" offset="52%"></stop>
            <stop stop-color="#E24B2E" offset="67%"></stop>
            <stop stop-color="#D54128" offset="79%"></stop>
            <stop stop-color="#C23320" offset="89%"></stop>
            <stop stop-color="#A92016" offset="98%"></stop>
            <stop stop-color="#A31B13" offset="100%"></stop>
        </radialGradient>
        <radialGradient cx="28.8334369%" cy="43.6305441%" fx="28.8334369%" fy="43.6305441%" r="52.1450538%" gradientTransform="translate(0.288334,0.436305),scale(0.571159,1.000000),rotate(-29.604451),translate(-0.288334,-0.436305)" id="radialGradient-4">
            <stop stop-color="#EC5332" offset="22%"></stop>
            <stop stop-color="#EA5131" offset="52%"></stop>
            <stop stop-color="#E24B2E" offset="67%"></stop>
            <stop stop-color="#D54128" offset="79%"></stop>
            <stop stop-color="#C23320" offset="89%"></stop>
            <stop stop-color="#A92016" offset="98%"></stop>
            <stop stop-color="#A31B13" offset="100%"></stop>
        </radialGradient>
        <radialGradient cx="28.8193741%" cy="43.884559%" fx="28.8193741%" fy="43.884559%" r="39.6143669%" gradientTransform="translate(0.288194,0.438846),scale(0.800110,1.000000),rotate(-29.604451),translate(-0.288194,-0.438846)" id="radialGradient-5">
            <stop stop-color="#EC5332" offset="22%"></stop>
            <stop stop-color="#EA5131" offset="52%"></stop>
            <stop stop-color="#E24B2E" offset="67%"></stop>
            <stop stop-color="#D54128" offset="79%"></stop>
            <stop stop-color="#C23320" offset="89%"></stop>
            <stop stop-color="#A92016" offset="98%"></stop>
            <stop stop-color="#A31B13" offset="100%"></stop>
        </radialGradient>
        <radialGradient cx="29.4111423%" cy="44.0662049%" fx="29.4111423%" fy="44.0662049%" r="36.8068913%" gradientTransform="translate(0.294111,0.440662),scale(0.893532,1.000000),rotate(-29.604451),translate(-0.294111,-0.440662)" id="radialGradient-6">
            <stop stop-color="#EC5332" offset="22%"></stop>
            <stop stop-color="#EA5131" offset="52%"></stop>
            <stop stop-color="#E24B2E" offset="67%"></stop>
            <stop stop-color="#D54128" offset="79%"></stop>
            <stop stop-color="#C23320" offset="89%"></stop>
            <stop stop-color="#A92016" offset="98%"></stop>
            <stop stop-color="#A31B13" offset="100%"></stop>
        </radialGradient>
        <radialGradient cx="50.2979274%" cy="49.7547255%" fx="50.2979274%" fy="49.7547255%" r="67.3041884%" gradientTransform="translate(0.502979,0.497547),scale(0.606270,1.000000),translate(-0.502979,-0.497547)" id="radialGradient-7">
            <stop stop-color="#EC5332" offset="22%"></stop>
            <stop stop-color="#EA5131" offset="52%"></stop>
            <stop stop-color="#E24B2E" offset="67%"></stop>
            <stop stop-color="#D54128" offset="79%"></stop>
            <stop stop-color="#C23320" offset="89%"></stop>
            <stop stop-color="#A92016" offset="98%"></stop>
            <stop stop-color="#A31B13" offset="100%"></stop>
        </radialGradient>
    </defs>
    <g id="Icon-list" stroke="none" stroke-width="1" fill="none" fill-rule="evenodd">
        <g id="Icons-Copy-3" transform="translate(-445.000000, -976.000000)">
            <g id="ph_icon_chicken-1" transform="translate(445.000000, 976.000000)">
                <path d="M1.15,12.86 C-1.85,4.43 12.87,-3.14 20.08,3.5 C27.29,10.14 29.08,15.08 25.46,15.64 C21.84,16.2 4,21 1.15,12.86 Z" id="Path" fill="url(#radialGradient-1)"></path>
                <path d="M22.82,6.27 L22.29,6.81 L22.05,6.88 C20.7,7.39 19.89,7.6 15.17,7.2 C14.0831668,7.0513901 12.9763904,7.20357185 11.97,7.64 C9.25,8.79 7.79,11.57 8.71,13.84 C9.63,16.11 12.81,17.12 15.56,16.05 C16.8232519,15.5744105 17.8689382,14.6532107 18.5,13.46 C19.6888251,11.6754776 21.2645252,10.1818096 23.11,9.09 C23.6411261,8.83892689 24.202426,8.65742869 24.78,8.55 C24.1655397,7.75742879 23.51137,6.99645591 22.82,6.27 Z" id="Path" fill="#602108" opacity="0.8"></path>
                <path d="M25.83,4.71 C25.9548399,5.02346748 26.2293388,5.25284328 26.56,5.32 C27.09,5.41 28.18,6.71 26.85,7.32 C25.52,7.93 24.85,6.97 23.02,7.75 C21.19,8.53 20.19,7.22 21.97,6.17 C21.97,6.17 23.6,5.54 23.67,4.83 C23.6368835,4.4512584 23.7603464,4.07548159 24.0116361,3.79018279 C24.2629258,3.50488399 24.620108,3.33496586 25,3.32 C26.13,3 25.83,4.71 25.83,4.71 Z" id="Path" fill="#E6E6E6"></path>
                <path d="M22.42,8 C23.94,7.5 22.36,7.61 22.02,7.46 C20.58,6.84 22.66,5.88 21.74,6.24 C20.43,6.76 19.63,6.97 15.02,6.57 C13.9551022,6.41902553 12.8692348,6.57514066 11.89,7.02 C9.23,8.2 7.81,11.02 8.71,13.35 C9.61,15.68 12.5,16.6 15.16,15.43 C15.9951107,15.063189 16.7368186,14.5128896 17.33,13.82 C17.5873042,13.5041051 17.8212566,13.1698875 18.03,12.82 C18.89,11.39 20.89,8.51 22.42,8 Z" id="Path" fill="url(#radialGradient-2)"></path>
                <g id="Group" opacity="0.4" style="mix-blend-mode: multiply;" transform="translate(8.000000, 3.000000)">
                    <path d="M17.38,1.53 C17.5056169,1.83704865 17.7753327,2.06181181 18.1,2.13 L18.18,2.13 C18.0287259,2.01455039 17.9084653,1.86336572 17.83,1.69 C17.83,1.69 18.09,0.21 17.18,0.26 C17.4016398,0.643958609 17.4729072,1.09650644 17.38,1.53 Z" id="Path" fill="url(#radialGradient-3)"></path>
                    <path d="M18.56,2.32 L18.41,2.32 C18.92,2.69 19.47,3.64 18.41,4.14 C17.1,4.75 16.41,3.79 14.64,4.56 C14.4557277,4.66999387 14.2572001,4.75411572 14.05,4.81 C12.55,5.3 10.58,8.13 9.73,9.51 C9.52924966,9.86023862 9.30191544,10.1945537 9.05,10.51 C8.46493274,11.1937793 7.73354633,11.7371925 6.91,12.1 C4.83206274,13.1767647 2.27889007,12.5682585 0.91,10.67 C1.91,12.77 4.68,13.57 7.22,12.45 C8.05511072,12.083189 8.79681858,11.5328896 9.39,10.84 C9.64730421,10.5241051 9.88125656,10.1898875 10.09,9.84 C10.96,8.44 12.96,5.56 14.48,5.06 C14.6906985,5.00511002 14.8926632,4.92095803 15.08,4.81 C16.91,4.03 17.57,5 18.91,4.38 C20.25,3.76 19.09,2.41 18.56,2.32 Z" id="Path" fill="url(#radialGradient-4)"></path>
                </g>
                <path d="M9.44,13.74 C9.44,13.74 8.23,11 10,9 C12.57,6.08 15.83,7.32 17.39,7.22 C17.63,7.22 17.7,7.28 17.54,7.36 C16.14,8.11 13.67,7.65 12.18,8.93 C10.49,10.37 11.4,14.85 9.44,13.74 Z" id="Path" fill="url(#radialGradient-5)" style="mix-blend-mode: screen;"></path>
                <path d="M2.6,13.91 C2.6,13.91 0.76,12 1.78,8.43 C2.69,5.27 7.3,0.6 15,1.75 C15.59,1.84 16.29,2.05 15.47,2.06 C13.64,2.06 10.38,2.38 8.41,4.22 C5.57,6.88 4.22,8.71 5.41,10.48 C6.6,12.25 3.8,11.38 3.07,12.62 C2.34,13.86 3.81,15.15 2.6,13.91 Z" id="Path" fill="url(#radialGradient-6)" style="mix-blend-mode: screen;"></path>
                <path d="M19.54,7.07 C20.65,6.93 23.54,6.27 23.94,5 C23.9563147,4.6585445 24.0237306,4.32146456 24.14,4 C24.4,3.58 25.23,3.46 25.14,4.15 C25.14,4.15 24.46,3.67 24.37,5.07 C24.37,5.79 22.37,7.18 19.69,7.18 C19.45,7.18 19.12,7.13 19.54,7.07 Z" id="Path" fill="url(#radialGradient-7)" style="mix-blend-mode: screen;"></path>
            </g>
        </g>
    </g>
</svg>