<?xml version="1.0" encoding="UTF-8"?>
<svg width="26px" height="29px" viewBox="0 0 26 29" version="1.1" xmlns="http://www.w3.org/2000/svg" xmlns:xlink="http://www.w3.org/1999/xlink">
    <!-- Generator: Sketch 52.6 (67491) - http://www.bohemiancoding.com/sketch -->
    <title>ph_icon_Red Onions</title>
    <desc>Created with Sketch.</desc>
    <g id="Icon-list" stroke="none" stroke-width="1" fill="none" fill-rule="evenodd">
        <g id="Icons-Copy-3" transform="translate(-92.000000, -886.000000)">
            <g id="ph_icon_Red-Onions" transform="translate(92.000000, 886.000000)">
                <g id="Background_Shadow" transform="translate(1.000000, 2.000000)" fill="#CCCCCC">
                    <path d="M24.08,16.46 C23.76,7.86 16.57,5.34 13.61,2.34 C13.18,1.91 11.69,1.12 11.34,0.76 C11.1374496,0.450249662 10.8673561,0.190412871 10.55,-8.8817842e-16 C11.0795676,0.674850729 11.1197996,1.61225797 10.65,2.33 C7.65,5.33 0.5,7.85 0.18,16.45 C-0.06,23.04 5.37,26.45 11.91,26.45 L12.35,26.45 C18.89,26.41 24.33,23.05 24.08,16.46 Z" id="Path" style="mix-blend-mode: multiply;"></path>
                </g>
                <g id="Icon">
                    <path d="M24.62,17.45 C24.29,8.85 16.94,6.33 13.92,3.33 C13.4444294,2.61648863 13.4766105,1.67921231 14,1 C13.6734534,1.18475424 13.3930822,1.44119132 13.18,1.75 C12.82,2.11 12.62,1.33 12.38,0.75 C12.13,1.34 11.93,2.12 11.58,1.75 C11.3721245,1.44387552 11.0988854,1.18771392 10.78,1 C11.3095676,1.67485073 11.3497996,2.61225797 10.88,3.33 C7.88,6.33 0.5,8.85 0.18,17.45 C-0.07,24.04 5.49,27.45 12.18,27.45 L12.63,27.45 L13.44,27.45 C19.76,27.12 24.86,23.77 24.62,17.45 Z" id="Path" fill="#901947"></path>
                    <path d="M13.17,8.58 C13.1942613,8.61835712 13.220984,8.65510085 13.25,8.69 L13.44,8.86 C14.0296397,9.37490618 14.6508478,9.85250162 15.3,10.29 C17.61,11.93 20.49,13.97 20.66,18.29 C20.7771818,19.8645731 20.2169394,21.4143345 19.12,22.55 C17.9400809,23.6751191 16.4353854,24.3994726 14.82,24.62 C14.38,24.7 14.01,24.62 14.28,24.62 C15.7900275,24.4365453 17.196685,23.757833 18.28,22.69 C19.254953,21.6310694 19.7473638,20.2153886 19.64,18.78 C19.49,14.78 16.95,12.92 14.9,11.42 C14.36,11.02 13.84,10.64 13.4,10.25 L13.18,10 L13.18,8.58 L13.17,8.58 Z" id="Path" fill="#EDD2DD"></path>
                    <path d="M13.23,15.76 L13.23,13.16 L13.46,13.37 C13.76,13.63 14.12,13.88 14.46,14.14 C15.91,15.14 17.72,16.45 17.83,19.14 C17.8919848,20.1317791 17.5282493,21.1029527 16.83,21.81 C16.3231905,22.3349071 15.6945739,22.7265043 15,22.95 C14.75,23.03 14.67,23.01 14.87,22.95 C15.2429475,22.7923657 15.5823602,22.5649592 15.87,22.28 C16.3847985,21.7457112 16.6530547,21.0206945 16.61,20.28 C16.53,18.2 15.15,17.22 14.04,16.44 L13.45,16.01 L13.23,15.76 Z" id="Path" fill="#EDD2DD"></path>
                    <path d="M21.4,23.63 C19.4140629,25.4682502 16.8343772,26.5327697 14.13,26.63 C13.9,26.63 13.79,26.56 13.96,26.55 C16.397947,26.4637811 18.7173811,25.4768636 20.47,23.78 C21.8021342,22.3300002 22.4753291,20.39366 22.33,18.43 C22.13,12.97 18.65,10.43 15.86,8.35 C15.0037978,7.74564675 14.1947982,7.07705206 13.44,6.35 L13.39,6.35 C13.2934919,6.24555607 13.2126497,6.12766112 13.15,6 L13.15,4.32 C13.2239945,4.44818159 13.3147994,4.56589164 13.42,4.67 C14.2808806,5.45529347 15.2001942,6.17402957 16.17,6.82 C19.33,9.05 23.25,11.82 23.48,17.76 C23.6622064,19.9246275 22.9044734,22.0630375 21.4,23.63 Z" id="Path" fill="#EDD2DD"></path>
                    <path d="M10.36,4.88 C10.36,4.88 2.5,21 12.1,26.34 C12.1,26.34 1.78,27.24 1.26,18.49 C0.82,11.26 10.36,4.88 10.36,4.88 Z" id="Path" fill="#6C1335"></path>
                </g>
            </g>
        </g>
    </g>
</svg>