<?xml version="1.0" encoding="UTF-8"?>
<svg width="29px" height="27px" viewBox="0 0 29 27" version="1.1" xmlns="http://www.w3.org/2000/svg" xmlns:xlink="http://www.w3.org/1999/xlink">
    <!-- Generator: Sketch 52.6 (67491) - http://www.bohemiancoding.com/sketch -->
    <title>ph_icon_Pepperoni</title>
    <desc>Created with Sketch.</desc>
    <g id="Icon-list" stroke="none" stroke-width="1" fill="none" fill-rule="evenodd">
        <g id="Icons-Copy-3" transform="translate(-94.000000, -302.000000)">
            <g id="ph_icon_Pepperoni" transform="translate(94.000000, 302.000000)">
                <g id="Background_Shadow" transform="translate(1.000000, 2.000000)" fill="#CCCCCC">
                    <path d="M23.88,2.5 C21.49,0.27 18.55,-0.4 16.18,0.5 C14.55,0.85 10.64,4.19 7.75,6.62 C1.55,11.84 0.81,15.87 2.24,19.51 C1.78901661,19.5716039 1.3533288,19.3208779 1.18,18.9 C0.75,18.23 0.56,18.63 0.85,19.4 C0.91,19.57 1.45,20.05 1.51,20.21 C1.83,21.11 0.65,20.85 1.26,21.51 C1.87,22.17 1.86,20.9 2.26,22.19 C2.66,23.48 2.08,20.66 3.35,21.68 C5.67,25.05 9.66,25.76 15.71,22.54 C17.97,21.33 24.19,16.83 24.6,16.54 C25.1987062,16.10235 25.7136078,15.5603483 26.12,14.94 C28.46,11.38 27.45,5.83 23.88,2.5 Z" id="Path" style="mix-blend-mode: multiply;"></path>
                </g>
                <g id="Icon">
                    <path d="M7.67,7.13 C10.67,4.63 14.67,1.2 16.33,0.84 C17.99,0.48 25,17.29 25,17.29 C25,17.29 18.26,22.19 15.85,23.47 C9.07,27.08 4.85,25.88 2.55,21.58 C0.44,17.52 0.61,13.08 7.67,7.13 Z" id="Path" fill="#901922"></path>
                    <path d="M21.39,18.07 C19.3262595,18.0021459 17.3647555,17.1553765 15.9,15.7 C12.37,12.41 11.36,6.92 13.63,3.47 C14.6907421,1.80662688 16.5373961,0.811401481 18.51,0.84 C20.5737405,0.90785406 22.5352445,1.75462354 24,3.21 C27.53,6.5 28.54,12 26.26,15.44 C25.1992579,17.1033731 23.3526039,18.0985985 21.38,18.07 L21.39,18.07 Z" id="Path" fill="#E87A75"></path>
                    <path d="M18.51,1.21 C20.4808147,1.27708764 22.3530751,2.08816227 23.75,3.48 C27.15,6.65 28.14,11.93 25.96,15.23 C24.9689803,16.7847833 23.243588,17.7155871 21.4,17.69 C19.4291853,17.6229124 17.5569249,16.8118377 16.16,15.42 C12.76,12.24 11.77,6.97 13.95,3.67 C14.9410197,2.11521666 16.666412,1.1844129 18.51,1.21 Z M18.51,0.46 C16.4133373,0.437642486 14.4526251,1.49544483 13.32,3.26 C10.94,6.86 12,12.56 15.64,16 C17.1745198,17.5220755 19.2296241,18.4048769 21.39,18.47 C23.4866627,18.4923575 25.4473749,17.4345552 26.58,15.67 C29,12 27.92,6.35 24.25,2.93 C22.7149122,1.40876648 20.6601562,0.526114747 18.5,0.46 L18.51,0.46 Z" id="Shape" fill="#901922" fill-rule="nonzero"></path>
                    <path d="M17.53,8.44 C18.3,9.19 19.11,9.13 19.33,8.53 C20.47,7.33 19.83,6.89 19.59,5.87 C18.59,5.3 17.87,5.09 17.13,6.52 C16.83,6.39 17,8.07 17.53,8.44 Z" id="Path" fill="#901922" opacity="0.5"></path>
                    <path d="M20.73,6.14 C21.2149823,6.45085247 21.8490236,6.39321235 22.27,6 C22.4328324,5.74789816 22.4811665,5.43858698 22.4030075,5.14882691 C22.3248486,4.85906685 22.1275229,4.61601917 21.86,4.48 C21.54,3.9 20.78,3.68 20.5,4.58 C20.3930298,5.11092721 20.4743566,5.66253507 20.73,6.14 Z" id="Path" fill="#ED9591"></path>
                    <path d="M20.09,3.35 C20.1583399,3.42749016 20.2566798,3.47188238 20.36,3.47188238 C20.4633202,3.47188238 20.5616601,3.42749016 20.63,3.35 C20.7319012,3.1132331 20.6933345,2.83940976 20.53,2.64 C20.38,2.17 20.06,2.44 19.84,2.64 C19.7617492,2.76407291 19.744527,2.91711587 19.7932457,3.05547687 C19.8419644,3.19383787 19.9512753,3.30232692 20.09,3.35 Z" id="Path" fill="#901922"></path>
                    <g id="Group" opacity="0.5" transform="translate(13.000000, 6.000000)" fill="#901922">
                        <path d="M5.2,4.69 C5.2683399,4.76749016 5.36667979,4.81188238 5.47,4.81188238 C5.57332021,4.81188238 5.6716601,4.76749016 5.74,4.69 C5.8311029,4.45706284 5.78901599,4.19306313 5.63,4 C5.48,3.53 5.16,3.8 4.94,4 C4.86979399,4.12391148 4.85823794,4.27260093 4.90845591,4.40587169 C4.95867387,4.53914245 5.06547987,4.6432317 5.2,4.69 Z" id="Path"></path>
                        <path d="M6.56,8.4 C6.6283399,8.47749016 6.72667979,8.52188238 6.83,8.52188238 C6.93332021,8.52188238 7.0316601,8.47749016 7.1,8.4 C7.18238397,8.17744188 7.14461465,7.92816439 7,7.74 C6.85,7.27 6.53,7.54 6.31,7.74 C6.25002622,7.85989343 6.24292312,7.99940433 6.29040975,8.12476903 C6.33789638,8.25013374 6.43564535,8.34992794 6.56,8.4 Z" id="Path"></path>
                        <path d="M1.08,1.74 C1.17779131,1.8671849 1.32465392,1.94726911 1.48453396,1.96059245 C1.64441401,1.97391578 1.80250624,1.91924448 1.92,1.81 C2.0711911,1.44011826 2.00579755,1.01698349 1.75,0.71 C1.51,5.55111512e-17 1,0.38 0.67,0.64 C0.552073513,0.835805714 0.529875722,1.07470094 0.609706844,1.28888199 C0.689537966,1.50306305 0.862683143,1.66914862 1.08,1.74 Z" id="Path"></path>
                        <path d="M9.12,8.85 C9.36,8.85 9.53,9.06 9.72,8.85 C9.83027792,8.56504762 9.78485287,8.24328685 9.6,8 C9.55,7.7 9.22,7.78 9.11,7.88 C8.91603906,8.17536172 8.91999099,8.55869982 9.12,8.85 Z" id="Path"></path>
                    </g>
                    <path d="M24.2,12.58 C24.42,12.76 24.77,12.71 24.79,12.58 C25.06,12.19 24.9,12.09 24.71,11.86 C24.52,11.63 24.32,11.58 24.23,11.75 C23.9991883,11.9739217 23.9859566,12.3399992 24.2,12.58 Z" id="Path" fill="#ED9591"></path>
                    <g id="Group" opacity="0.6" transform="translate(23.000000, 5.000000)" fill="#F2BB7A">
                        <path d="M0.64,1.56 C0.872293366,1.5752572 1.10550356,1.5515982 1.33,1.49 C1.52569236,1.21088347 1.52569236,0.839116532 1.33,0.56 C1.22893456,0.481365642 1.09915474,0.449512686 0.973167184,0.472419513 C0.847179632,0.495326341 0.73691796,0.570823205 0.67,0.68 C0.55538005,0.960370281 0.544740126,1.27247473 0.64,1.56 Z" id="Path"></path>
                        <path d="M0.27,3.55 C0.516474542,3.75448137 0.857774952,3.80102234 1.15,3.67 C1.43515839,3.2541931 1.43515839,2.7058069 1.15,2.29 C0.978776076,2.1765113 0.764953505,2.14784097 0.569880923,2.21221492 C0.374808342,2.27658887 0.22004698,2.4268919 0.15,2.62 C0.0125896772,2.92799741 0.0589087885,3.28697053 0.27,3.55 Z" id="Path"></path>
                    </g>
                    <g id="Group" opacity="0.7" transform="translate(13.000000, 3.000000)" fill="#F6B9AE">
                        <path d="M7.72,10.13 C8.61,10.13 8.72,10.58 9.56,9.71 C9.37,9.71 9.41,8.48 8.92,8.11 C8.47,7.95 8.09,7.58 7.65,8.11 C7.1,9.07 7.6,9.2 7.72,10.13 Z" id="Path"></path>
                        <path d="M2.31,7.29 C2.84868868,7.49615092 3.45015069,7.45969868 3.96,7.19 C4.28579698,6.56249246 4.10782644,5.79128675 3.54,5.37 C3.47299602,5.15210916 3.30544453,4.97964218 3.08958164,4.90636762 C2.87371874,4.83309305 2.63580025,4.86792344 2.45,5 C1.88,6 2.2,6.41 2.31,7.29 Z" id="Path"></path>
                        <path d="M1.81,1.71 C1.82365769,1.81469724 1.90161774,1.89952651 2.00479223,1.92195575 C2.10796671,1.94438498 2.21410859,1.89957787 2.27,1.81 C2.45,1.56 2.49,1.03 2.19,1.13 C2.15748057,0.993691808 2.04881824,0.888641197 1.91148905,0.860746206 C1.77415986,0.832851214 1.63312324,0.887181725 1.55,1 C1.5404057,1.26157332 1.63375235,1.51648148 1.81,1.71 Z" id="Path"></path>
                        <path d="M2.66,8.54 C2.79,8.75 3.06,8.8 3.3,8.49 C3.35748056,8.24917395 3.29404805,7.9954439 3.13,7.81 C2.84917221,7.67889029 2.51556009,7.74805377 2.31,7.98 C2.28915138,8.22372973 2.43178119,8.45193741 2.66,8.54 Z" id="Path"></path>
                        <path d="M7.51,13.26 C7.84646682,13.4401764 8.26306116,13.3610235 8.51,13.07 C8.62187917,12.9307458 8.65274706,12.7431068 8.59137308,12.5753513 C8.5299991,12.4075958 8.38532988,12.2841777 8.21,12.25 C8,11.8 7.7,11.78 7.41,12.25 C7.25731381,12.5798234 7.29560077,12.9665217 7.51,13.26 Z" id="Path"></path>
                        <path d="M10.1,8.11 C10.62,8.11 10.72,8.38 11.19,7.86 C11.1065077,7.52772563 10.9786948,7.20819339 10.81,6.91 C10.54,6.82 10.32,6.6 10.06,6.91 C9.74,7.48 10,7.56 10.1,8.11 Z" id="Path"></path>
                        <path d="M6.9,6.43 C7.22523327,6.56238653 7.5929294,6.54032476 7.9,6.37 C8.09076028,5.99715127 7.98519293,5.5411003 7.65,5.29 C7.60883332,5.16090331 7.50791229,5.05959778 7.37897307,5.0179405 C7.25003385,4.97628321 7.10891742,4.99939202 7,5.08 C6.76720344,5.49262805 6.73054069,5.98757522 6.9,6.43 Z" id="Path"></path>
                        <path d="M6.6,3.13 C6.61075513,3.18943109 6.65610475,3.23661489 6.71506295,3.24971672 C6.77402115,3.26281854 6.8350863,3.23928246 6.87,3.19 C6.97,3.04 7,2.73 6.87,2.79 C6.85401948,2.70990643 6.79305131,2.64634314 6.71369303,2.62703977 C6.63433475,2.60773641 6.55098292,2.63619484 6.5,2.7 C6.47944506,2.85074792 6.51503653,3.00379125 6.6,3.13 Z" id="Path"></path>
                        <path d="M7.1,7.17 C7.18,7.29 7.34,7.33 7.48,7.17 C7.51330362,7.02834076 7.47604872,6.87932115 7.38,6.77 C7.21289198,6.6883296 7.01174272,6.72938047 6.89,6.87 C6.89300498,7.00322875 6.97584718,7.12157475 7.1,7.17 Z" id="Path"></path>
                        <path d="M10,10 C10.200426,10.1036462 10.4459838,10.0537022 10.59,9.88 C10.6598685,9.7975875 10.6800251,9.68397125 10.6427698,9.58255395 C10.6055145,9.48113665 10.5166028,9.40758631 10.41,9.39 C10.28,9.12 10.11,9.11 9.94,9.39 C9.83966868,9.58769901 9.86307251,9.82563792 10,10 Z" id="Path"></path>
                        <path d="M5.55,1.43 C5.64210077,1.53772783 5.79857545,1.5631021 5.92,1.49 C6.02500165,1.28605489 6.02500165,1.04394511 5.92,0.84 C5.79682067,0.752540733 5.62713271,0.7742956 5.53,0.89 C5.41233299,1.05337555 5.42057005,1.27577619 5.55,1.43 Z" id="Path"></path>
                        <path d="M10.05,13.2 C10.1447767,13.3044015 10.3009122,13.3255009 10.42,13.25 C10.5266935,13.0464682 10.5266935,12.8035318 10.42,12.6 C10.2968207,12.5125407 10.1271327,12.5342956 10.03,12.65 C9.90703479,12.8153921 9.91534692,13.0439758 10.05,13.2 Z" id="Path"></path>
                        <path d="M0.79,7 C0.882100772,7.10772783 1.03857545,7.1331021 1.16,7.06 C1.26669355,6.85646816 1.26669355,6.61353184 1.16,6.41 C1.03682067,6.32254073 0.867132709,6.3442956 0.77,6.46 C0.652332989,6.62337555 0.660570049,6.84577619 0.79,7 Z" id="Path"></path>
                    </g>
                    <path d="M25,10.54 C25.31922,10.898967 25.8385432,11.001196 26.27,10.79 C26.51,10.46 26.13,9.86 25.93,9.28 C25.42,8.85 25.12,8.69 24.88,9.14 C24.6855457,9.33016219 24.5863438,9.59733423 24.6095713,9.86832246 C24.6327989,10.1393107 24.7760207,10.3857035 25,10.54 Z" id="Path" fill="#901922"></path>
                    <g id="Group" opacity="0.5" style="mix-blend-mode: screen;" transform="translate(15.000000, 1.000000)" fill="#F4BDA1">
                        <path d="M10.72,6.09 C10.332912,5.56379562 9.99799748,5.0011392 9.72,4.41 C9.49006865,4.05690901 9.23260097,3.72253539 8.95,3.41 C8.2662533,2.68867204 7.48542759,2.06603085 6.63,1.56 C4.83612747,0.628553595 2.74453572,0.452154291 0.82,1.07 C1.10424992,1.21218712 1.4072878,1.31319974 1.72,1.37 C2.07,1.5 2.45,1.61 2.79,1.73 C3.3422156,1.85175872 3.86318317,2.08670487 4.32,2.42 C5,3 4.73,4 5.06,4.73 C5.44943756,5.3443304 5.99457146,5.8446115 6.64,6.18 C7.69,6.98 8.8,6.89 9,8.18 C9.12,8.94 10.24,9.76 10,13.05 C9.91,14.39 8.38,15.83 9.52,15.31 C10.2588195,14.7471259 10.8350872,13.998323 11.19,13.14 C11.9410137,10.9608929 11.8410031,8.57849771 10.91,6.47" id="Path"></path>
                    </g>
                    <path d="M12.26,4.63 C12.26,4.63 3.55,9.26 2.51,15.38 C2.46,15.7 2.51,16.01 2.8,15.43 C5.02187366,12.0579482 8.06357738,9.30527517 11.64,7.43 C11.7285045,6.47437141 11.9368046,5.53366131 12.26,4.63 Z" id="Path" fill="#AF2031"></path>
                    <path d="M20,19.35 C20,19.35 13,26.35 7.56,24.47 C7.27,24.37 7.04,24.16 7.66,24.1 C9.22,23.95 12.66,23.1 17.39,18.65 C18.2131349,19.0320667 19.0961486,19.2688903 20,19.35 Z" id="Path" fill="#7C1623"></path>
                    <path d="M2,20.36 C1.53271922,20.44023 1.07332742,20.1813001 0.9,19.74 C0.46,19.05 0.26,19.46 0.56,20.25 C0.63,20.42 1.18,20.92 1.23,21.09 C1.59,22 0.38,21.75 1,22.42 C1.62,23.09 1.62,21.8 2.06,23.12 C2.5,24.44 1.88,21.55 3.18,22.59" id="Path" fill="#901922"></path>
                </g>
            </g>
        </g>
    </g>
</svg>