<?xml version="1.0" encoding="UTF-8"?>
<svg width="30px" height="26px" viewBox="0 0 30 26" version="1.1" xmlns="http://www.w3.org/2000/svg" xmlns:xlink="http://www.w3.org/1999/xlink">
    <!-- Generator: Sketch 52.6 (67491) - http://www.bohemiancoding.com/sketch -->
    <title>ph_icon_Mushrooms</title>
    <desc>Created with Sketch.</desc>
    <defs>
        <radialGradient cx="403.176867%" cy="104.270677%" fx="403.176867%" fy="104.270677%" r="71.7749939%" gradientTransform="translate(4.031769,1.042707),scale(1.000000,0.588574),rotate(-94.916566),translate(-4.031769,-1.042707)" id="radialGradient-1">
            <stop stop-color="#C19A7B" offset="81%"></stop>
            <stop stop-color="#FFFFFF" offset="100%"></stop>
        </radialGradient>
        <radialGradient cx="-48.2951275%" cy="30.817856%" fx="-48.2951275%" fy="30.817856%" r="57.4765462%" gradientTransform="translate(-0.482951,0.308179),scale(0.815449,1.000000),rotate(-24.087452),translate(0.482951,-0.308179)" id="radialGradient-2">
            <stop stop-color="#C19A7B" offset="81%"></stop>
            <stop stop-color="#FFFFFF" offset="100%"></stop>
        </radialGradient>
        <radialGradient cx="1014.85789%" cy="-157.631846%" fx="1014.85789%" fy="-157.631846%" r="130.247368%" gradientTransform="translate(10.148579,-1.576318),scale(1.000000,0.385396),rotate(-90.000000),translate(-10.148579,1.576318)" id="radialGradient-3">
            <stop stop-color="#CFB098" offset="14%"></stop>
            <stop stop-color="#EADCD1" offset="60%"></stop>
            <stop stop-color="#FFFFFF" offset="100%"></stop>
        </radialGradient>
        <radialGradient cx="88.6754564%" cy="446.068421%" fx="88.6754564%" fy="446.068421%" r="130.247368%" gradientTransform="translate(0.886755,4.460684),scale(0.385396,1.000000),translate(-0.886755,-4.460684)" id="radialGradient-4">
            <stop stop-color="#CFB098" offset="14%"></stop>
            <stop stop-color="#EADCD1" offset="60%"></stop>
            <stop stop-color="#FFFFFF" offset="100%"></stop>
        </radialGradient>
    </defs>
    <g id="Icon-list" stroke="none" stroke-width="1" fill="none" fill-rule="evenodd">
        <g id="Icons-Copy-3" transform="translate(-91.000000, -791.000000)">
            <g id="ph_icon_Mushrooms" transform="translate(91.000000, 791.000000)">
                <g id="Background_Shadow" transform="translate(0.000000, 1.000000)" fill="#CCCCCC" fill-rule="nonzero">
                    <path d="M1.23,11.12 L1.23,11.17 C1.29739853,11.3456497 1.37761457,11.5161088 1.47,11.68 C1.47,11.68 1.47,11.78 1.55,11.83 C1.6296111,11.9645679 1.71640315,12.094756 1.81,12.22 L2,12.41 L2.24,12.7 L2.44,12.89 L2.71,13.1 L3,13.29 L3.24,13.44 L3.53,13.6 L3.75,13.7 L4.1,13.83 L4.29,13.89 L4.65,14 L4.81,14 L5.18,14 L5.76,14 L6.05,14 L6.15,14 C6.22741795,13.9679915 6.30117425,13.9277608 6.37,13.88 L6.44,13.88 C6.50098605,13.8300791 6.55189497,13.7689884 6.59,13.7 L6.59,13.65 C6.63391644,13.559865 6.65454475,13.4601615 6.65,13.36 C6.64273209,13.2935314 6.64273209,13.2264686 6.65,13.16 C6.70308832,13.1315493 6.75331927,13.098062 6.8,13.06 L7,12.9 C7.06018468,12.8492765 7.11096096,12.7883449 7.15,12.72 L7.15,12.67 C7.19520072,12.5803078 7.21589932,12.4802646 7.21,12.38 C7.21,12.33 7.21,12.28 7.21,12.23 C7.9469587,11.5800274 8.89738242,11.2240634 9.88,11.23 C9.05484099,12.0824446 8.35151417,13.0448918 7.79,14.09 C7.24,14.96 6.79,15.83 6.45,16.47 C5.85,17.19 4.7,17.87 5,18.24 C4.70316874,18.4088611 4.50587303,18.7103885 4.47,19.05 C4.48343372,19.0892688 4.50770126,19.1239367 4.54,19.15 L4.61,19.2 C4.72539019,19.2612744 4.85061159,19.3018868 4.98,19.32 C6.6693925,19.8310543 8.3066789,20.5007011 9.87,21.32 L10.26,21.51 C11.9576738,22.3670468 13.5771723,23.3708682 15.1,24.51 C15.1860885,24.5935537 15.2837568,24.664279 15.39,24.72 L15.46,24.72 C15.5206367,24.7461368 15.5893633,24.7461368 15.65,24.72 C15.70287,24.6861182 15.7446028,24.6374299 15.77,24.58 L15.7,24.64 C15.8497642,24.4239009 15.9520121,24.1785059 16,23.92 C16.0608653,23.9450045 16.1291347,23.9450045 16.19,23.92 C16.2458234,23.8867175 16.2909381,23.8381325 16.32,23.78 L16.25,23.84 C16.54,23.47 16.44,22.12 16.79,21.36 C17.7715774,19.6525294 18.5151279,17.8188869 19,15.91 L19.08,16.05 L19.15,16.18 C19.4590359,16.8298795 19.6195827,17.5403845 19.62,18.26 C19.62,18.26 19.62,18.34 19.62,18.38 C19.62,18.42 19.62,18.58 19.62,18.67 L19.62,18.75 C19.4420266,18.8871328 19.347492,19.1064528 19.37,19.33 C19.3031148,19.4311034 19.2184037,19.5192029 19.12,19.59 C18.61,19.93 18.83,20.72 19.48,21.45 C19.5742606,21.5524329 19.6744316,21.6492649 19.78,21.74 L19.89,21.84 L20.18,22.06 L20.39,22.2 L20.66,22.35 L20.96,22.5 L21.19,22.6 L21.59,22.74 L21.79,22.79 L22.28,22.88 L22.43,22.88 C22.6172157,22.9322409 22.8076127,22.9723245 23,23 L23.09,23 C23.32224,22.9845612 23.5529323,22.9511275 23.78,22.9 C24.6301599,22.6873426 25.4116682,22.2604394 26.05,21.66 C26.17,21.55 26.27,21.41 26.39,21.29 C26.51,21.17 26.67,21 26.8,20.84 C26.9286988,20.6728532 27.0488526,20.4992977 27.16,20.32 C27.26,20.17 27.36,20.01 27.46,19.84 C27.56,19.67 27.59,19.65 27.64,19.55 C27.64,19.65 27.52,19.73 27.47,19.82 L27.53,19.69 C27.59,19.61 27.64,19.52 27.69,19.43 C27.74,19.34 27.9,19.11 28,19 C28.1,18.89 28.14,18.8 28.19,18.69 C28.14,18.79 28.07,18.88 28.01,18.97 C30.43,14.68 29.3,7.25 20.12,2.53 C18.1611221,1.44375403 16.0185582,0.728436012 13.8,0.42 C9.9,5.55111512e-17 7,0.58 4.61,2.55 C3.64776977,3.34910218 2.85839062,4.33582613 2.29,5.45 C1.98503103,5.9007254 1.72384325,6.37956966 1.51,6.88 C1.51,6.76 1.59,6.64 1.64,6.52 C1.58,6.66 1.54,6.8 1.48,6.93 C1.42,7.06 1.33,7.3 1.27,7.48 C1.19293417,7.74253791 1.13281041,8.00975462 1.09,8.28 C1.09,8.43 1.01,8.57 0.99,8.71 C0.876504914,9.52097449 0.958798135,10.3473356 1.23,11.12 Z" id="Shape" style="mix-blend-mode: multiply;"></path>
                </g>
                <g id="Icon">
                    <path d="M2.55,12.51 L2.78,12.67 L3.08,12.85 L3.28,13 L3.62,13.1 L3.8,13.17 L4.16,13.28 L4.31,13.28 L4.67,13.34 L5.24,13.34 L5.53,13.29 L5.62,13.29 C5.70081304,13.2627204 5.77803814,13.2257866 5.85,13.18 L5.92,13.18 C5.9833317,13.129694 6.03746605,13.0687929 6.08,13 C6.12387288,12.9166141 6.14783252,12.8241984 6.15,12.73 C6.18373904,12.3603264 6.3727302,12.022323 6.67,11.8 C6.55914025,11.8966664 6.46161978,12.0076379 6.38,12.13 C7.17064443,11.2778262 8.31258935,10.8417437 9.47,10.95 C9.49143594,10.9871281 9.49143594,11.0328719 9.47,11.07 C9.4012854,11.2336503 9.27746017,11.3680891 9.12,11.45 C7.44,12.64 5.99,15.45 5.36,16.38 C4.86,17.15 3.44,17.84 3.58,18.27 C3.59064022,18.3081238 3.61136851,18.342671 3.64,18.37 L3.72,18.43 C3.83124843,18.4966299 3.95296497,18.5439642 4.08,18.57 C5.70534678,19.1554128 7.27220768,19.8919713 8.76,20.77 L9.13,20.98 C10.7451651,21.9318121 12.2742862,23.0226074 13.7,24.24 C13.77852,24.3263931 13.8695281,24.4005478 13.97,24.46 L14.04,24.46 C14.1008653,24.4850045 14.1691347,24.4850045 14.23,24.46 C14.284773,24.4298561 14.3298561,24.384773 14.36,24.33 L14.29,24.38 C14.59,24.03 14.57,22.71 14.95,21.99 C15.49,20.99 17.21,18.35 17.44,16.31 C17.44,15.93 17.58,15.77 17.69,15.78 C17.654011,15.7822967 17.6209631,15.8006567 17.6,15.83 C17.6438399,15.7949 17.7061601,15.7949 17.75,15.83 C17.8114663,15.8754139 17.8625929,15.9333574 17.9,16 L17.97,16.14 L18.04,16.27 C18.308775,16.9219892 18.4283593,17.6258278 18.39,18.33 C18.39,18.33 18.39,18.41 18.39,18.45 C18.39,18.49 18.39,18.64 18.39,18.73 C18.39,18.82 18.39,18.86 18.33,18.92 C18.2515681,19.1945114 18.077834,19.4320662 17.84,19.59 C17.32,19.9 17.49,20.68 18.09,21.43 C18.1779761,21.5348691 18.2714401,21.6350091 18.37,21.73 L18.48,21.83 L18.75,22.06 L18.95,22.21 L19.2,22.38 L19.49,22.55 L19.71,22.66 L20.09,22.82 L20.28,22.88 C20.4373705,22.9298666 20.5976771,22.9699433 20.76,23 L20.91,23 C21.0997677,23.0132883 21.2902323,23.0132883 21.48,23 L21.7,23 C21.9262959,23.0183356 22.1537041,23.0183356 22.38,23 C23.2226789,22.8691138 24.0178777,22.5248719 24.69,22 C24.82,21.9 24.92,21.77 25.04,21.66 C25.16,21.55 25.33,21.4 25.46,21.25 C25.59,21.1 25.72,20.93 25.84,20.76 C25.96,20.59 26.06,20.47 26.16,20.31 C26.26,20.15 26.3,20.13 26.35,20.03 C26.3,20.12 26.23,20.19 26.17,20.28 C28.77,16.22 28.07,8.89 19.36,3.76 C17.5115723,2.57531425 15.4606605,1.74138976 13.31,1.3 C9.52,0.69 6.62,1.11 4.2,2.9 C3.0392911,3.74525474 2.10222049,4.860815 1.47,6.15 C1.52,6 1.56,5.91 1.62,5.8 C1.55,5.93 1.5,6.07 1.44,6.2 C1.38,6.33 1.27,6.55 1.2,6.73 C1.1181857,6.9824918 1.05140204,7.23960891 1,7.5 C1,7.64 0.9,7.78 0.88,7.92 C0.732333906,8.70839509 0.773455788,9.52055227 1,10.29 L1,10.34 C1.05861339,10.5144686 1.12876828,10.6848448 1.21,10.85 L1.26,11 C1.32958163,11.1340503 1.40636037,11.2642403 1.49,11.39 L1.62,11.58 L1.87,11.88 L2.06,12.08 L2.3,12.31 L2.55,12.51 Z M25.55,21.1 C25.63,21.01 25.7,20.91 25.78,20.82 C25.7,20.91 25.63,21 25.55,21.1 Z" id="Shape" fill="#C19A7B" fill-rule="nonzero"></path>
                    <path d="M4.75,2.08 C7.17,0.29 10.08,-0.12 13.86,0.48 C16.0150079,0.906282712 18.0728168,1.72669414 19.93,2.9 C30.06,8.9 29.37,17.81 25.24,21.13 C21.11,24.45 17,19.65 18.5,18.77 C20,17.89 18.37,13.46 18.14,15.5 C17.91,17.54 16.2,20.16 15.65,21.18 C15.1,22.2 15.41,24.51 14.36,23.37 C12.934726,22.1520445 11.4055542,21.061213 9.79,20.11 C8.17728246,19.1598133 6.48408664,18.3533702 4.73,17.7 C3.23,17.33 5.39,16.48 6.02,15.51 C6.65,14.54 8.11,11.77 9.78,10.58 C11.45,9.39 6.78,10.12 6.78,11.85 C6.78,13.58 0.55,12.32 1.45,7.1 C1.87159476,5.06789999 3.05164399,3.2727948 4.75,2.08 Z" id="Path" fill="#FFE8D9"></path>
                    <path d="M26.44,10 C23.72,4.28 16.61,7.84 19.57,15.39 C21.07,19.19 16.64,18.83 20.31,21.32 C22.01,22.47 24.81,21 26.42,18.32 C28.03,15.64 27.29,11.82 26.44,10 Z" id="Path" fill="url(#radialGradient-1)" style="mix-blend-mode: multiply;"></path>
                    <path d="M9.17,9.29 C5.12,9.83 7.58,13.52 3.63,11.52 C1.8,10.6 1.72,7.43 3.33,4.71 C3.78174351,3.96168718 4.37233728,3.30660328 5.07,2.78 C5.25140566,3.05194002 5.49037969,3.2806723 5.77,3.45 C6.37854624,3.81630035 7.13101298,3.85016135 7.77,3.54 C8.02147216,3.930375 8.36483098,4.2531323 8.77,4.48 C9.33221578,4.8514498 10.0189907,4.98427478 10.6791626,4.8492396 C11.3393346,4.71420443 11.9187942,4.32237693 12.29,3.76 C12.4976975,3.40583225 12.6016516,3.0004111 12.59,2.59 C13.0456245,2.47365646 13.4371675,2.18269329 13.68,1.78 C13.7412885,1.67548898 13.7915581,1.56489584 13.83,1.45 C16.62,3.43 15.45,8.45 9.17,9.29 Z" id="Path" fill="url(#radialGradient-2)" style="mix-blend-mode: multiply;"></path>
                    <g id="Group" opacity="0.6" style="mix-blend-mode: screen;" transform="translate(1.000000, 5.000000)" fill="#E0CBBC">
                        <path d="M24.29,16.07 C24.9421774,15.5388216 25.4941868,14.895375 25.92,14.17 C25.490716,14.9334537 24.9246254,15.6114064 24.25,16.17 C20.35,19.31 16.48,15.17 17.32,13.99 C16.65,15.24 20.45,19.15 24.29,16.07 Z" id="Path"></path>
                        <path d="M9.15,5.22 C9.31,4.7 6.76,5.16 5.99,6.22 C6.73,5.07 9.53,4.59 9.15,5.22 Z" id="Path"></path>
                        <path d="M17.94,13.29 C18.51,12.08 17.69,9.63 17.3,10.02 C17.67,9.38 18.6,12.06 17.94,13.29 Z" id="Path"></path>
                        <path d="M3.78,12.65 C5.53416747,13.3031793 7.22737975,14.1096302 8.84,15.06 C10.4558903,16.0106952 11.9851062,17.1015581 13.41,18.32 C13.73,18.67 13.93,18.69 14.06,18.52 C13.93,18.75 13.73,18.77 13.37,18.38 C11.9479691,17.1624434 10.4221531,16.0716188 8.81,15.12 C7.19670403,14.1709022 5.5036057,13.3645056 3.75,12.71 C3.23,12.58 3.15,12.4 3.29,12.17 C3.2,12.37 3.31,12.53 3.78,12.65 Z" id="Path"></path>
                        <path d="M0.47,2 C-0.37,6.85 4.9,8.27 5.69,7.07 C5,8.43 -0.42,7 0.42,2.11 C0.558285711,1.37039177 0.814911918,0.65791638 1.18,0 C0.84146274,0.625997516 0.601955449,1.30066594 0.47,2 Z" id="Path"></path>
                    </g>
                    <ellipse id="Oval" fill="url(#radialGradient-3)" style="mix-blend-mode: multiply;" transform="translate(21.302861, 14.279333) rotate(-4.300000) translate(-21.302861, -14.279333) " cx="21.3028609" cy="14.2793335" rx="1.9" ry="4.93"></ellipse>
                    <ellipse id="Oval" fill="url(#radialGradient-4)" style="mix-blend-mode: multiply;" transform="translate(9.831921, 7.533634) rotate(-24.730000) translate(-9.831921, -7.533634) " cx="9.83192141" cy="7.53363434" rx="4.93" ry="1.9"></ellipse>
                    <path d="M7,17.18 C7,17.18 11.61,18.72 13.4,20.93 C13.5461617,19.8537402 13.8007905,18.7950205 14.16,17.77 C15.38,14.43 16.33,10.77 15.81,10.22 C15.29,9.67 12.42,12.22 9.81,14.93 C8.97406129,15.7977988 8.02958898,16.5540489 7,17.18 Z" id="Path" fill="#FFFAF7"></path>
                </g>
            </g>
        </g>
    </g>
</svg>