<?xml version="1.0" encoding="UTF-8"?>
<svg width="29px" height="28px" viewBox="0 0 29 28" version="1.1" xmlns="http://www.w3.org/2000/svg" xmlns:xlink="http://www.w3.org/1999/xlink">
    <!-- Generator: Sketch 52.6 (67491) - http://www.bohemiancoding.com/sketch -->
    <title>ph_icon_Tomato</title>
    <desc>Created with Sketch.</desc>
    <defs>
        <radialGradient cx="-819.890995%" cy="-2384.50073%" fx="-819.890995%" fy="-2384.50073%" r="96.7358465%" gradientTransform="translate(-8.198910,-23.845007),scale(0.473934,1.000000),rotate(-47.815557),translate(8.198910,23.845007)" id="radialGradient-1">
            <stop stop-color="#FFB56B" offset="0%"></stop>
            <stop stop-color="#F7A257" offset="29%"></stop>
            <stop stop-color="#E57526" offset="85%"></stop>
        </radialGradient>
        <linearGradient x1="45.3347933%" y1="-1.61082952%" x2="20.721119%" y2="70.260886%" id="linearGradient-2">
            <stop stop-color="#FED795" offset="0%"></stop>
            <stop stop-color="#000000" offset="100%"></stop>
        </linearGradient>
        <radialGradient cx="3098.78916%" cy="61.4098361%" fx="3098.78916%" fy="61.4098361%" r="72.0522883%" gradientTransform="translate(30.987892,0.614098),scale(1.000000,0.733895),rotate(106.127576),translate(-30.987892,-0.614098)" id="radialGradient-3">
            <stop stop-color="#FFB56B" offset="0%"></stop>
            <stop stop-color="#F7A257" offset="29%"></stop>
            <stop stop-color="#E57526" offset="85%"></stop>
        </radialGradient>
        <linearGradient x1="2799.50634%" y1="2615.96667%" x2="2843.63634%" y2="2559.64167%" id="linearGradient-4">
            <stop stop-color="#FED795" offset="0%"></stop>
            <stop stop-color="#000000" offset="100%"></stop>
        </linearGradient>
        <radialGradient cx="-1193.97%" cy="-388.386598%" fx="-1193.97%" fy="-388.386598%" r="96.0983496%" gradientTransform="translate(-11.939700,-3.883866),scale(1.000000,0.515464),rotate(126.469234),translate(11.939700,3.883866)" id="radialGradient-5">
            <stop stop-color="#FFB56B" offset="0%"></stop>
            <stop stop-color="#F7A257" offset="29%"></stop>
            <stop stop-color="#E57526" offset="85%"></stop>
        </radialGradient>
        <linearGradient x1="3060.42%" y1="-1061.59542%" x2="3120.12%" y2="-1099.1145%" id="linearGradient-6">
            <stop stop-color="#FED795" offset="0%"></stop>
            <stop stop-color="#000000" offset="100%"></stop>
        </linearGradient>
        <radialGradient cx="417.29897%" cy="-311.985017%" fx="417.29897%" fy="-311.985017%" r="65.341167%" gradientTransform="translate(4.172990,-3.119850),scale(0.591046,1.000000),rotate(-14.708304),translate(-4.172990,3.119850)" id="radialGradient-7">
            <stop stop-color="#FFB56B" offset="0%"></stop>
            <stop stop-color="#F7A257" offset="29%"></stop>
            <stop stop-color="#E57526" offset="85%"></stop>
        </radialGradient>
        <linearGradient x1="-399.293%" y1="1704.63%" x2="-408.576485%" y2="1776.12%" id="linearGradient-8">
            <stop stop-color="#FED795" offset="0%"></stop>
            <stop stop-color="#000000" offset="100%"></stop>
        </linearGradient>
        <radialGradient cx="498.816839%" cy="588.052469%" fx="498.816839%" fy="588.052469%" r="48.0353214%" gradientTransform="translate(4.988168,5.880525),scale(0.991401,1.000000),rotate(-40.364537),translate(-4.988168,-5.880525)" id="radialGradient-9">
            <stop stop-color="#FFB56B" offset="0%"></stop>
            <stop stop-color="#F7A257" offset="29%"></stop>
            <stop stop-color="#E57526" offset="85%"></stop>
        </radialGradient>
        <linearGradient x1="53.6157724%" y1="-21.0726006%" x2="67.8618545%" y2="35.1239219%" id="linearGradient-10">
            <stop stop-color="#FED795" offset="0%"></stop>
            <stop stop-color="#000000" offset="100%"></stop>
        </linearGradient>
        <radialGradient cx="2038.98148%" cy="-190.034722%" fx="2038.98148%" fy="-190.034722%" r="101.666667%" gradientTransform="translate(20.389815,-1.900347),scale(1.000000,0.375000),rotate(90.000000),translate(-20.389815,1.900347)" id="radialGradient-11">
            <stop stop-color="#FFB56B" offset="0%"></stop>
            <stop stop-color="#F7A257" offset="29%"></stop>
            <stop stop-color="#E57526" offset="85%"></stop>
        </radialGradient>
        <linearGradient x1="-1218.41667%" y1="157.820755%" x2="-1373.08333%" y2="128.330189%" id="linearGradient-12">
            <stop stop-color="#FED795" offset="0%"></stop>
            <stop stop-color="#000000" offset="100%"></stop>
        </linearGradient>
        <radialGradient cx="359.42%" cy="-1125.73276%" fx="359.42%" fy="-1125.73276%" r="53.2938955%" gradientTransform="translate(3.594200,-11.257328),scale(1.000000,0.862069),rotate(56.673710),translate(-3.594200,11.257328)" id="radialGradient-13">
            <stop stop-color="#FFB56B" offset="0%"></stop>
            <stop stop-color="#F7A257" offset="29%"></stop>
            <stop stop-color="#E57526" offset="85%"></stop>
        </radialGradient>
        <linearGradient x1="-1058.55903%" y1="2651.17%" x2="-1028.87903%" y2="2601.47%" id="linearGradient-14">
            <stop stop-color="#FED795" offset="0%"></stop>
            <stop stop-color="#000000" offset="100%"></stop>
        </linearGradient>
        <radialGradient cx="3086.69%" cy="-538.137097%" fx="3086.69%" fy="-538.137097%" r="48.0508116%" gradientTransform="translate(30.866900,-5.381371),scale(1.000000,0.806452),rotate(98.027238),translate(-30.866900,5.381371)" id="radialGradient-15">
            <stop stop-color="#FFB56B" offset="0%"></stop>
            <stop stop-color="#F7A257" offset="29%"></stop>
            <stop stop-color="#E57526" offset="85%"></stop>
        </radialGradient>
        <linearGradient x1="2042.82%" y1="2297.78%" x2="2096.58%" y2="2279.84%" id="linearGradient-16">
            <stop stop-color="#FED795" offset="0%"></stop>
            <stop stop-color="#000000" offset="100%"></stop>
        </linearGradient>
    </defs>
    <g id="Icon-list" stroke="none" stroke-width="1" fill="none" fill-rule="evenodd">
        <g id="Icons-Copy-3" transform="translate(-91.000000, -594.000000)">
            <g id="ph_icon_Tomato" transform="translate(90.000000, 594.000000)">
                <g id="Background_Shadow" transform="translate(2.000000, 2.000000)" fill="#CCCCCC">
                    <path d="M26.91,7.7 C26.51,6.09 24.35,1 21.91,0.29 L19.6,0.68 L19.27,0.9 L11.17,6.82 L8.09,9.07 L2.09,13.45 L1.09,14.21 L0.5,14.64 C-1.09,16.49 9.44,29.64 20.03,23.46 C21.2560063,22.7714601 22.3606894,21.8863623 23.3,20.84 C26.8478952,17.4689223 28.2376027,12.410541 26.91,7.7 Z" id="Path" style="mix-blend-mode: multiply;"></path>
                </g>
                <g id="Icon">
                    <path d="M24.1,21.45 C27.6740295,18.0611362 29.0789676,12.9725657 27.75,8.23 C27.35,6.61 25.18,1.49 22.75,0.78 L20.42,1.17 L20.09,1.4 L24.1,21.45 Z" id="Path" fill="#981A0C"></path>
                    <path d="M1.16,15.22 L20.06,1.39 C20.06,1.39 33.84,16.53 20.8,24.08 C10.15,30.26 -0.44,17.07 1.16,15.22 Z" id="Path" fill="#B91A0C"></path>
                    <path d="M1.75,14.78 L19.34,1.93 C19.34,1.93 32.48,14.87 20.34,23.22 C10.85,29.75 0.25,16.5 1.75,14.78 Z" id="Path" fill="#E6220C"></path>
                    <path d="M2.8,14 L18.22,2.75 C18.22,2.75 28.92,13.09 18.29,20.41 C10,26.13 1.48,15.53 2.8,14 Z" id="Path" fill="#EC5332" style="mix-blend-mode: screen;"></path>
                    <path d="M8.16,15.38 C7.97787527,14.8977358 7.70264889,14.4560145 7.35,14.08 C6.94074442,13.9207155 6.47573848,14.0660298 6.23,14.43 C5.90470478,15.0502818 5.8717321,15.7830079 6.14,16.43 C6.64,17.94 10.69,19.53 11.38,19.65 C13.6713805,19.8172212 15.9278168,19.0154971 17.6,17.44 C18.7830912,16.4134724 19.6674711,15.0869025 20.16,13.6 C20.332829,12.2687622 20.2923206,10.9184833 20.04,9.6 C19.8882067,8.66915916 19.4008692,7.8261008 18.67,7.23 C17.8546272,7.01226843 16.9902999,7.06848484 16.21,7.39 C15.3121889,7.77397943 14.5446588,8.4095361 14,9.22 C13.8053511,9.43279859 13.7273235,9.72746766 13.7911516,10.0087103 C13.8549797,10.2899529 14.0525621,10.5220722 14.32,10.63 C15.71,11.16 15.79,10.63 15.94,10.85 C16.09,11.07 15.45,11.2 15.72,12.02 C16.15,13.33 17.35,13.12 17.23,13.32 C17.11,13.52 15.81,13.32 15.23,14.32 C14.65,15.32 15.43,15.83 15.23,16.04 C15.03,16.25 14.63,15.04 13.6,15.65 L12.9,16.02 C12.01,16.52 12.66,17.78 12.41,17.82 C12.16,17.86 12.3,16.5 11.36,16.72 C10.42,16.94 10,17.21 9.36,16.81 C8.83070345,16.4587654 8.41402904,15.9622284 8.16,15.38 Z" id="Path" fill="#981A0C"></path>
                    <path d="M12.12,18.59 C12.0343179,18.5497252 11.9537482,18.4993691 11.88,18.44 C11.6492341,18.273178 11.4944809,18.0212542 11.45,17.74 L11.45,17.57 L11.17,17.65 C10.5217952,17.9222974 9.78443261,17.8817425 9.17,17.54 C8.5650461,17.1408851 8.0890871,16.5745981 7.8,15.91 C7.68986843,15.6381345 7.54894943,15.379783 7.38,15.14 C7.28296169,15.1960848 7.19524496,15.2669329 7.12,15.35 C6.97978011,15.7651462 6.97978011,16.2148538 7.12,16.63 C7.43,17.57 10.68,18.98 11.32,19.09 C11.6825887,19.1947316 12.0674113,19.1947316 12.43,19.09 C12.5248554,18.9186724 12.4919663,18.7048935 12.35,18.57 C12.2728364,18.568352 12.195721,18.5750577 12.12,18.59 Z" id="Path" fill="#FFFFFF" opacity="0.1" style="mix-blend-mode: screen;"></path>
                    <path d="M17.75,13.95 C17.5433978,14.2059668 17.2287811,14.3503204 16.9,14.34 C16.5064715,14.329416 16.1327796,14.512525 15.9,14.83 C15.7589629,15.0565064 15.7589629,15.3434936 15.9,15.57 C16.029876,15.8208531 16.029876,16.1191469 15.9,16.37 C15.8487925,16.4873783 15.7738948,16.5929159 15.68,16.68 C15.5608451,16.7001409 15.4391549,16.7001409 15.32,16.68 C15.0666234,16.6505069 14.834096,16.5252999 14.67,16.33 C14.46,16.12 14.44,16.11 14.22,16.23 L13.87,16.42 L13.58,16.57 C13.5292842,16.5976168 13.4876168,16.6392842 13.46,16.69 C13.3947575,16.8375089 13.3739079,17.0008314 13.4,17.16 L13.4,17.35 C13.4555999,17.5704247 13.4344371,17.8032151 13.34,18.01 C13.2372799,18.1055274 13.1269113,18.1924845 13.01,18.27 C12.9283224,18.4505775 12.9774524,18.6634744 13.13,18.79 C14.6093889,18.6839273 15.9929959,18.0189379 17,16.93 C17.6488758,16.3144963 18.2167723,15.6189072 18.69,14.86 C18.9701284,14.5691697 19.1307434,14.1836935 19.14,13.78 C18.7187543,13.6484248 18.2701074,13.6311692 17.84,13.73 C17.7903849,13.7936878 17.7592487,13.8697986 17.75,13.95 Z" id="Path" fill="#FFFFFF" opacity="0.1" style="mix-blend-mode: screen;"></path>
                    <path d="M16.85,7.82 C16.1414692,8.11329491 15.5285863,8.59806098 15.08,9.22 C14.9842588,9.33354598 14.9439524,9.48377897 14.97,9.63 C15.2293349,9.78184301 15.5358945,9.83174807 15.83,9.77 C16.2041666,9.63924786 16.6190381,9.78445287 16.83,10.12 C16.9794966,10.3512782 16.9794966,10.6487218 16.83,10.88 L16.74,11 L16.69,11.07 C16.6490895,11.1447698 16.6490895,11.2352302 16.69,11.31 C16.7694517,11.6339465 17.0393583,11.8760686 17.37,11.92 C17.6429598,11.9718025 17.8820645,12.1348284 18.03,12.37 C18.0500553,12.4894821 18.0980217,12.6025458 18.17,12.7 C18.6500167,12.8642193 19.1809529,12.7656168 19.57,12.44 C20.02,11.29 18.36,10.6 18.16,9.73 C17.96,8.86 18.73,7.73 18.56,7.63 C17.9836749,7.52501954 17.3892239,7.59106965 16.85,7.82 Z" id="Path" fill="#FFFFFF" opacity="0.1" style="mix-blend-mode: screen;"></path>
                    <path d="M18.85,13.32 C18.85,13.54 18.42,13.71 17.85,13.7 C17.429744,13.7653202 17.0065754,13.6013901 16.74,13.27 C16.74,13.05 17.17,12.88 17.74,12.89 C18.1604856,12.8225315 18.5847021,12.9868676 18.85,13.32 Z" id="Path" fill="url(#radialGradient-1)"></path>
                    <path d="M18.67,13.29 C18.67,13.44 18.38,13.55 18,13.54 C17.720788,13.5879807 17.4375129,13.4807955 17.26,13.26 C17.26,13.11 17.54,13 17.93,13.01 C18.2089996,12.9641882 18.4912106,13.0709707 18.67,13.29 Z" id="Path" fill="url(#linearGradient-2)" style="mix-blend-mode: screen;"></path>
                    <path d="M16.24,17.64 C16.44,17.55 16.35,17.07 16.04,16.56 C15.8853295,16.1624798 15.5312646,15.8769436 15.11,15.81 C14.91,15.9 15,16.38 15.31,16.89 C15.4629465,17.2887783 15.8178711,17.5750079 16.24,17.64 Z" id="Path" fill="url(#radialGradient-3)"></path>
                    <path d="M16.12,17.5 C16.25,17.44 16.19,17.12 15.99,16.79 C15.8874896,16.5263145 15.6502363,16.3388078 15.37,16.3 C15.24,16.36 15.29,16.68 15.5,17.01 C15.6042552,17.2723912 15.8406199,17.4591955 16.12,17.5 Z" id="Path" fill="url(#linearGradient-4)" style="mix-blend-mode: screen;"></path>
                    <path d="M12.7,19.18 C12.93,19.18 13,18.69 12.85,18.18 C12.8119145,17.7630304 12.546389,17.4013 12.16,17.24 C11.93,17.24 11.86,17.73 12.01,18.24 C12.0480855,18.6569696 12.313611,19.0187 12.7,19.18 Z" id="Path" fill="url(#radialGradient-5)"></path>
                    <path d="M12.62,19 C12.77,19 12.82,18.67 12.72,18.31 C12.6929728,18.0342256 12.516093,17.7958224 12.26,17.69 C12.11,17.69 12.06,18.02 12.16,18.38 C12.1870272,18.6557744 12.363907,18.8941776 12.62,19 Z" id="Path" fill="url(#linearGradient-6)" style="mix-blend-mode: screen;"></path>
                    <path d="M17.43,10.51 C17.52,10.71 17.22,10.97 16.77,11.09 C16.4389731,11.2495115 16.0444955,11.1942846 15.77,10.95 C15.68,10.75 15.98,10.49 16.44,10.37 C16.7683743,10.2149562 17.1574929,10.269983 17.43,10.51 Z" id="Path" fill="url(#radialGradient-7)"></path>
                    <path d="M17.28,10.51 C17.34,10.64 17.11,10.82 16.78,10.91 C16.546878,11.0174835 16.2733588,10.9866644 16.07,10.83 C16.01,10.7 16.24,10.52 16.57,10.43 C16.803122,10.3225165 17.0766412,10.3533356 17.28,10.51 Z" id="Path" fill="url(#linearGradient-8)" style="mix-blend-mode: screen;"></path>
                    <path d="M15.5,9.45 C15.5884469,9.69301146 15.4810084,9.96375653 15.25,10.08 C15.0811589,10.2866575 14.7975868,10.3595761 14.55,10.26 C14.4673825,10.0199152 14.573952,9.7556229 14.8,9.64 C14.9643102,9.42683621 15.2504619,9.34916646 15.5,9.45 Z" id="Path" fill="url(#radialGradient-9)"></path>
                    <path d="M15.4,9.5 C15.4472125,9.67562918 15.3633672,9.86008888 15.2,9.94 C15.0823253,10.0914377 14.8816024,10.1516545 14.7,10.09 C14.6527875,9.91437082 14.7366328,9.72991112 14.9,9.65 C15.0176747,9.49856234 15.2183976,9.43834547 15.4,9.5 Z" id="Path" fill="url(#linearGradient-10)" style="mix-blend-mode: screen;"></path>
                    <ellipse id="Oval" fill="url(#radialGradient-11)" transform="translate(16.540817, 14.912743) rotate(-57.260000) translate(-16.540817, -14.912743) " cx="16.5408169" cy="14.9127435" rx="1" ry="1"></ellipse>
                    <ellipse id="Oval" fill="url(#linearGradient-12)" style="mix-blend-mode: screen;" transform="translate(16.609952, 14.936155) rotate(-57.210000) translate(-16.609952, -14.936155) " cx="16.6099521" cy="14.936155" rx="1" ry="1"></ellipse>
                    <path d="M14.14,17.64 C14.28,17.57 14.23,17.26 14.02,16.94 C13.9144276,16.6794443 13.6703297,16.5012142 13.39,16.48 C13.25,16.55 13.3,16.86 13.51,17.18 C13.6155724,17.4405557 13.8596703,17.6187858 14.14,17.64 Z" id="Path" fill="url(#radialGradient-13)"></path>
                    <path d="M14.06,17.56 C14.16,17.56 14.06,17.29 13.95,17.05 C13.875052,16.859999 13.7026035,16.7258725 13.5,16.7 C13.41,16.7 13.5,16.97 13.61,17.21 C13.684948,17.400001 13.8573965,17.5341275 14.06,17.56 Z" id="Path" fill="url(#linearGradient-14)" style="mix-blend-mode: screen;"></path>
                    <path d="M10.82,18.38 C10.99,18.38 11.16,18.18 11.21,17.83 C11.2947445,17.5787575 11.2103416,17.3014337 11,17.14 C10.83,17.14 10.66,17.35 10.61,17.69 C10.5252555,17.9412425 10.6096584,18.2185663 10.82,18.38 Z" id="Path" fill="url(#radialGradient-15)"></path>
                    <path d="M10.81,18.27 C10.92,18.27 11.04,18.12 11.08,17.86 C11.1379853,17.6803419 11.0828485,17.4834246 10.94,17.36 C10.83,17.36 10.71,17.51 10.67,17.77 C10.6120147,17.9496581 10.6671515,18.1465754 10.81,18.27 Z" id="Path" fill="url(#linearGradient-16)" style="mix-blend-mode: screen;"></path>
                    <path d="M14.46,10.95 C15.12,11.95 13.03,14.51 13.03,14.51 C13.03,14.51 9.86,15.51 9.19,14.58 C8.52,13.65 9.19,12.02 10.62,11.02 C12.05,10.02 13.79,10 14.46,10.95 Z" id="Path" fill="#EC5332" style="mix-blend-mode: screen;"></path>
                </g>
            </g>
        </g>
    </g>
</svg>