<?xml version="1.0" encoding="UTF-8"?>
<svg width="26px" height="28px" viewBox="0 0 26 28" version="1.1" xmlns="http://www.w3.org/2000/svg" xmlns:xlink="http://www.w3.org/1999/xlink">
    <!-- Generator: Sketch 52.6 (67491) - http://www.bohemiancoding.com/sketch -->
    <title>ph_icon_Green Chillies</title>
    <desc>Created with Sketch.</desc>
    <g id="Icon-list" stroke="none" stroke-width="1" fill="none" fill-rule="evenodd">
        <g id="Icons-Copy-3" transform="translate(-89.000000, -1178.000000)">
            <g id="ph_icon_Green-Chillies" transform="translate(89.000000, 1178.000000)">
                <g id="Background_Shadow" transform="translate(0.000000, 6.000000)" fill="#B3B3B3">
                    <path d="M25.14,4.21 C25.0277563,3.4852003 24.6134744,2.84197312 24,2.44 L23.87,2.36 C22.43,1 21.34,1.74 21.75,0.61 C22.16,-0.52 21.29,0.38 20.75,1.08 C20.6702594,1.19071733 20.558616,1.27444983 20.43,1.32 C18.96,1.83 18.92,2.53 18.92,2.53 C18.5759191,2.6400174 18.2886955,2.88056718 18.12,3.2 C17.52,6.64 15.19,12.82 9.62,15.1 C6.30854983,16.3261827 3.30512802,18.261342 0.82,20.77 C-0.09,21.77 1.21,21.27 1.44,21.15 C4.06,19.86 7.63,19.69 10.98,18.81 C17.43,17.12 26.6,11.61 25.14,4.21 Z" id="Path" style="mix-blend-mode: multiply;"></path>
                </g>
                <g id="Icon">
                    <path d="M1,26.46 C3.34195933,23.6478718 6.27030291,21.3816478 9.58,19.82 C15.13,17 17,10.37 17.29,6.76 C17.38,5.76 23.49,3.3 24.61,7.17 C26.77,14.69 17.81,21.17 11.32,23.52 C7.94,24.73 4.26,25.23 1.67,26.79 C1.44,26.93 0.16,27.61 1,26.46 Z" id="Path" fill="#74AB1F"></path>
                    <path d="M11.77,22.36 C12.5097443,22.1448131 13.1415435,21.6593629 13.54,21 C14.4656795,19.6115313 15.6384619,18.4048534 17,17.44 C18.24,16.63 18.56,15.15 19.51,14 C19.96,13.46 20.51,13 20.97,12.55 C21.3639004,12.0799962 21.6444611,11.5257176 21.79,10.93 C22.061724,10.3137082 22.2889717,9.67875135 22.47,9.03 C22.56,8.62 22.47,7.74 22.98,7.62 C23.3,8.22 23.87,11.13 21.98,14.53 C20.9472816,16.2069581 19.662186,17.7146687 18.17,19 C14.17,22.2 11.14,22.58 11.77,22.36 Z" id="Path" fill="#61981C"></path>
                    <path d="M5.64,23.06 C6.22446304,22.6234968 6.78525766,22.156168 7.32,21.66 C7.82,21.29 8.42,21.12 8.9,20.71 C9.71,20.02 10.68,19.58 11.51,18.99 C12.5427979,18.338059 13.4365848,17.4884517 14.14,16.49 C14.73,15.49 15.8,14.69 16.22,13.55 C16.52,12.72 17.69,6.61 19.07,7.3 C19.4034129,7.71774575 19.6021743,8.22685379 19.64,8.76 C19.5781037,9.37883232 19.436948,9.98714653 19.22,10.57 C19.0823416,11.196142 18.9087205,11.8138322 18.7,12.42 C18.3746893,13.0443144 18.0071695,13.6457104 17.6,14.22 C17.3570431,14.7979769 17.1565124,15.3928845 17,16 C16.688465,16.5905934 16.2716169,17.1192788 15.77,17.56 C14.8931544,18.5102826 13.9363042,19.383492 12.91,20.17 C11,21.93 8.31,22.57 6,23.8 C5.53,24.05 5,24.31 4.5,24.56 C4.16619446,24.7956943 3.79400023,24.9716406 3.4,25.08 C3.11,24.64 4.09,24.4 4.4,24.22 C4.75879729,23.8777942 5.14325277,23.5635436 5.55,23.28" id="Path" fill="#8CC125"></path>
                    <path d="M10.06,21.14 C10.3,20.84 11.67,20.06 11.93,19.8 C12.55,19.19 13.19,18.65 13.78,18.01 C14.3769148,17.3888551 14.9220629,16.7199617 15.41,16.01 C15.79,15.43 16.51,15.01 16.17,15.41 C16.0097689,15.7077265 15.8759241,16.0189157 15.77,16.34 C15.5721343,16.6186812 15.3584501,16.8857863 15.13,17.14 C14.9056448,17.5573065 14.6374644,17.9495203 14.33,18.31 C14.0320715,18.5322184 13.7481945,18.7726789 13.48,19.03 C13.34,19.19 13.24,19.4 13.09,19.56 C12.8380154,19.7733164 12.5629741,19.9577952 12.27,20.11 C11.6010755,20.5831096 10.8524829,20.9320012 10.06,21.14 Z" id="Path" fill="#C8F092"></path>
                    <path d="M16.5,14.8 C16.4566101,14.539089 16.4914044,14.2711726 16.6,14.03 C16.6,13.8 16.6,13.44 16.92,13.43 C17.0496981,13.6535806 17.1023971,13.9135622 17.07,14.17 C16.9827628,14.2786805 16.8892712,14.382189 16.79,14.48 C16.7464453,14.6075415 16.6859003,14.7286313 16.61,14.84" id="Path" fill="#C8F092"></path>
                    <path d="M20,2.55 C19.4,1.3 18.66,0.76 19.32,0.23 C19.2152339,0.201523341 19.1047661,0.201523341 19,0.23 C18.4681664,0.276503707 18.0465037,0.69816644 18,1.23 C19.7,1.72 20.28,3.6 19.79,4.38 C20.2738319,3.89151089 20.3605997,3.13539109 20,2.55 Z" id="Path" fill="#465B38"></path>
                    <path d="M20.78,3.76 C21.07,2.68 20.2,0.57 19.33,0.22 C18.67,0.75 19.33,1.28 19.94,2.53 C20.2960842,3.09358702 20.2433734,3.82342936 19.81,4.33 C19.7380799,4.45312217 19.6297822,4.55093947 19.5,4.61 C18,5.27 18,6 18,6 C20.86,5.47 19.92,7.7 20.76,6.39 C21.2367803,5.57454814 22.1918148,5.16815047 23.11,5.39 C21.53,4.14 20.46,5 20.78,3.76 Z" id="Path" fill="#5B8433"></path>
                    <path d="M20.62,6.65 C20.62,6.65 22,5.19 23.28,5.46 C23.28,5.46 21.52,4.4 20.62,6.65 Z" id="Path" fill="#465B38"></path>
                    <path d="M18.59,5.69 C19.1773777,5.5748742 19.7825344,5.7715501 20.19,6.21 C20.0962225,5.95091043 19.9161392,5.73198559 19.68,5.59 C19.5335792,5.49291569 19.4535275,5.32227576 19.4724664,5.14761684 C19.4914053,4.97295791 19.6061726,4.82344293 19.77,4.76 C19.2351042,4.82830133 18.781408,5.18587547 18.59,5.69 Z" id="Path" fill="#7C9D5C"></path>
                    <path d="M20.36,7.71 C20.3766267,8.04705844 20.3394954,8.38461499 20.25,8.71 C20.2596779,8.97376798 20.2999475,9.23552043 20.37,9.49 C20.3237869,9.73906931 20.3738225,9.99639553 20.51,10.21 C20.92,10.41 20.94,9.85 20.96,9.65 C21,9 21.5,8.37 21.52,7.74 C21.5428299,7.60408701 21.5085484,7.46477767 21.4252536,7.35498001 C21.3419589,7.24518235 21.2170379,7.17463397 21.08,7.16 C20.86,7.16 20.4,7.16 20.43,7.49" id="Path" fill="#8CC125"></path>
                </g>
            </g>
        </g>
    </g>
</svg>