<?xml version="1.0" encoding="UTF-8"?>
<svg width="29px" height="27px" viewBox="0 0 29 27" version="1.1" xmlns="http://www.w3.org/2000/svg" xmlns:xlink="http://www.w3.org/1999/xlink">
    <!-- Generator: Sketch 52.6 (67491) - http://www.bohemiancoding.com/sketch -->
    <title>ph_icon_Merguez</title>
    <desc>Created with Sketch.</desc>
    <g id="Icon-list" stroke="none" stroke-width="1" fill="none" fill-rule="evenodd">
        <g id="Icons-Copy-3" transform="translate(-442.000000, -836.000000)">
            <g id="ph_icon_Merguez" transform="translate(442.000000, 836.000000)">
                <path d="M28.52,6.91 L28.41,6.71 C28.41,6.34 29.04,6.77 28.88,6.59 L28.8,6.5 C28.76085,6.46590376 28.7240962,6.42915002 28.69,6.39 C28.51,6.17 28.86,6.3 28.69,6 C28.6769777,5.96294772 28.6565651,5.92892661 28.63,5.9 C28.51,5.74 28.39,6.1 28.15,5.83 C28.09,5.83 28,5.49 27.95,5.44 C27.71,5.19 27.52,5.19 27.7,5.44 C27.8696849,5.57479832 27.9125431,5.81480382 27.8,6 L27.62,5.83 C26.57,4.9 25.44,4.64 23.56,5.34 C23.6427076,4.72987645 23.5270122,4.10932833 23.23,3.57 L23.11,3.36 C23.11,2.99 23.75,3.43 23.58,3.24 L23.5,3.1 C23.4618138,3.0719011 23.4280989,3.03818619 23.4,3 C23.21,2.78 23.56,2.91 23.4,2.61 C23.3869777,2.57294772 23.3665651,2.53892661 23.34,2.51 C23.22,2.35 23.09,2.71 22.85,2.45 C22.8,2.4 22.71,2.1 22.66,2.05 C22.41,1.8 22.23,1.8 22.41,2.05 C22.5305158,2.17757246 22.5509792,2.36992807 22.46,2.52 L22.28,2.35 C20.92,1.13 19.37,1.08 16,3 C13.3266519,4.47836238 10.8190618,6.23836883 8.52,8.25 C6.29022108,10.328688 4.27968604,12.6307506 2.52,15.12 C0.3,18.2 0.18,19.74 1.27,21.28 C1.1277137,21.3015142 0.984318428,21.2486843 0.89,21.14 C0.62,20.92 0.6,21.14 0.82,21.38 C0.87,21.43 1.15,21.56 1.19,21.62 C1.42,21.89 1.05,21.96 1.19,22.11 L1.28,22.18 C1.57,22.34 1.48,21.98 1.67,22.18 C1.70776815,22.2160858 1.7413164,22.2563437 1.77,22.3 L1.82,22.36 C2.01,22.59 1.75,22.11 1.89,21.97 C1.92862502,22.0118939 1.97229083,22.0488419 2.02,22.08 L2.19,22.21 L2.26,22.21 C3.4025775,23.0225331 4.95556473,22.9353333 6,22 C5.77092342,22.9349928 5.98483005,23.9233889 6.58,24.68 C6.43791114,24.6996343 6.29538778,24.6471257 6.2,24.54 C5.94,24.32 5.92,24.54 6.14,24.77 C6.14,24.83 6.46,24.96 6.51,25.02 C6.74,25.29 6.37,25.36 6.51,25.5 C6.53529575,25.5315305 6.56572129,25.5585754 6.6,25.58 C6.89,25.74 6.8,25.38 7,25.58 L7.1,25.69 C7.11165784,25.7165335 7.12868162,25.7403668 7.15,25.76 C7.33,25.98 7.08,25.51 7.22,25.37 L7.35,25.48 L7.52,25.6 L7.6,25.65 C8.76,26.42 10.32,26.39 12.09,24.65 C13.09,23.65 16.88,19.44 19.39,17.19 C22.31,14.57 26.22,11.93 27.02,11.25 C29.02,9.71 29.17,8.14 28.5,6.87 L28.52,6.91 Z" id="Path" fill="#CCCCCC" style="mix-blend-mode: multiply;"></path>
                <g id="Icon" fill="#802412">
                    <path d="M6.45,20.51 C4.09,22.83 2.1,22.12 0.92,20.51 C-0.26,18.9 -0.08,17.43 2.18,14.32 C3.93968604,11.8307506 5.95022108,9.52868795 8.18,7.45 C10.4808416,5.44063779 12.9881808,3.68080748 15.66,2.2 C19,0.31 20.56,0.35 22,1.6 C23.44,2.85 24.05,5.07 21.41,7.1 C20.61,7.79 16.7,10.43 13.78,13.1 C11.25,15.3 7.48,19.53 6.45,20.51 Z" id="Path"></path>
                    <path d="M22.75,2.65 C22.59,1.98 23.56,2.72 23.14,2.32 C22.72,1.92 23.21,2.16 23.07,1.81 C22.93,1.46 22.81,1.95 22.53,1.66 C22.48,1.66 22.39,1.32 22.34,1.26 C22.1,1.01 21.91,1.01 22.09,1.26 C22.2102021,1.4124941 22.2102021,1.6275059 22.09,1.78" id="Path"></path>
                </g>
                <g id="Icon-2" transform="translate(0.000000, 4.000000)">
                    <path d="M12.52,8.26 C12.25,8.51 11.52,7.26 10.79,6.45 C10.06,5.64 8.46,4.91 8.79,4.53 C9.12,4.15 10.7,5.53 11.18,6.08 C11.49,6.4 12.8,8 12.52,8.26 Z" id="Path" fill="#000000" opacity="0.2" style="mix-blend-mode: multiply;"></path>
                    <path d="M10.45,10.12 C10.18,10.37 9.45,9.07 8.73,8.3 C8.01,7.53 6.39,6.76 6.73,6.39 C7.07,6.02 8.65,7.39 9.12,7.94 C9.42,8.26 10.73,9.88 10.45,10.12 Z" id="Path" fill="#000000" opacity="0.2" style="mix-blend-mode: multiply;"></path>
                    <path d="M14.59,6.41 C14.32,6.65 13.59,5.36 12.86,4.59 C12.13,3.82 10.53,3.05 10.86,2.67 C11.19,2.29 12.78,3.67 13.26,4.23 C13.56,4.55 14.86,6.16 14.59,6.41 Z" id="Path" fill="#000000" opacity="0.2" style="mix-blend-mode: multiply;"></path>
                    <path d="M16.69,4.83 C16.41,5.06 15.77,3.72 15.08,2.91 C14.39,2.1 12.84,1.23 13.21,0.91 C13.58,0.59 15.06,2 15.5,2.57 C15.77,2.91 17,4.6 16.69,4.83 Z" id="Path" fill="#000000" opacity="0.2" style="mix-blend-mode: multiply;"></path>
                    <path d="M8.94,12.24 C8.67,12.49 7.86,11.24 7.05,10.56 C6.24,9.88 4.53,9.19 4.87,8.8 C5.21,8.41 6.92,9.67 7.45,10.17 C7.77,10.47 9.21,12 8.94,12.24 Z" id="Path" fill="#000000" opacity="0.2" style="mix-blend-mode: multiply;"></path>
                    <path d="M1.06,16.48 C0.884633967,16.5624349 0.675795683,16.5173913 0.55,16.37 C0.29,16.16 0.26,16.37 0.48,16.61 C0.48,16.67 0.81,16.79 0.85,16.85 C1.11,17.16 0.61,17.21 0.94,17.4 C1.27,17.59 1.1,17.08 1.44,17.54 C1.78,18 1.17,16.95 1.81,17.2" id="Path" fill="#802412"></path>
                </g>
                <path d="M22.55,1.67 C18.6159102,4.19095828 14.8755155,7.00210394 11.36,10.08 C7.62153236,13.433414 4.11669435,17.0384857 0.87,20.87 C1.13,21.18 0.62,21.23 0.95,21.41 C1.28,21.59 1.11,21.09 1.46,21.55 C1.81,22.01 1.46,21.36 1.56,21.22 C2.77,22.28 4.48,22.47 6.46,20.53 C7.46,19.53 11.26,15.32 13.77,13.07 C16.69,10.45 20.59,7.81 21.4,7.07 C23.5,5.45 23.56,3.78 22.75,2.48 C22.75,2.08 23.53,2.65 23.16,2.29 C22.79,1.93 23.22,2.12 23.08,1.77 C22.94,1.42 22.82,2 22.55,1.67 Z" id="Path" fill="#000000" opacity="0.2" style="mix-blend-mode: multiply;"></path>
                <path d="M19.5,1.45 C19.76,1.39 19.64,1.33 19.5,1.32 C17,1.09 11.72,4.85 8.65,7.74 C6.6,9.67 0.65,16.2 0.65,18.88 C0.65,19.02 0.65,19.15 0.77,18.88 C1.48,17.3 6.38,10.88 9.23,8.23 C12.3432006,5.53204928 15.7957971,3.25273049 19.5,1.45 Z" id="Path" fill="#FFFFFF" opacity="0.2" style="mix-blend-mode: screen;"></path>
                <g id="Icon-3" transform="translate(5.000000, 4.000000)" fill="#802412">
                    <path d="M6.75,19.91 C4.38,22.23 2.4,21.52 1.21,19.91 C0.02,18.3 0.21,16.83 2.47,13.72 C4.22761796,11.2291242 6.23833116,8.92685758 8.47,6.85 C10.7825081,4.82966037 13.3072633,3.06601997 16,1.59 C19.31,-0.3 20.85,-0.25 22.26,1 C23.67,2.25 24.32,4.47 21.68,6.5 C20.88,7.19 16.97,9.83 14.05,12.45 C11.54,14.7 7.77,18.93 6.75,19.91 Z" id="Path"></path>
                    <path d="M23,2.05 C22.85,1.38 23.81,2.12 23.4,1.72 C22.99,1.32 23.46,1.55 23.32,1.2 C23.18,0.85 23.06,1.35 22.79,1.06 C22.73,1.01 22.65,0.71 22.59,0.66 C22.35,0.41 22.17,0.41 22.34,0.66 C22.4665537,0.8064473 22.4665537,1.0235527 22.34,1.17" id="Path"></path>
                </g>
                <g id="Icon-4" transform="translate(5.000000, 8.000000)">
                    <path d="M12.82,7.66 C12.54,7.91 11.82,6.66 11.09,5.85 C10.36,5.04 8.75,4.3 9.09,3.93 C9.43,3.56 11.01,4.93 11.49,5.48 C11.78,5.8 13.09,7.42 12.82,7.66 Z" id="Path" fill="#000000" opacity="0.2" style="mix-blend-mode: multiply;"></path>
                    <path d="M10.75,9.52 C10.48,9.76 9.75,8.47 9.02,7.7 C8.29,6.93 6.69,6.16 7.02,5.79 C7.35,5.42 8.94,6.79 9.42,7.34 C9.72,7.66 11,9.27 10.75,9.52 Z" id="Path" fill="#000000" opacity="0.2" style="mix-blend-mode: multiply;"></path>
                    <path d="M14.88,5.81 C14.61,6.05 13.88,4.81 13.16,3.99 C12.44,3.17 10.82,2.45 11.16,2.07 C11.5,1.69 13.08,3.07 13.55,3.62 C13.85,4 15.16,5.56 14.88,5.81 Z" id="Path" fill="#000000" opacity="0.2" style="mix-blend-mode: multiply;"></path>
                    <path d="M17,4.23 C16.71,4.46 16.08,3.12 15.38,2.31 C14.68,1.5 13.14,0.63 13.51,0.31 C13.88,-0.01 15.36,1.44 15.81,2 C16.07,2.31 17.28,4 17,4.23 Z" id="Path" fill="#000000" opacity="0.2" style="mix-blend-mode: multiply;"></path>
                    <path d="M9.24,11.63 C8.96,11.89 8.16,10.63 7.34,9.96 C6.52,9.29 4.83,8.59 5.17,8.19 C5.51,7.79 7.22,9.07 7.74,9.57 C8.06,9.87 9.51,11.38 9.24,11.63 Z" id="Path" fill="#000000" opacity="0.2" style="mix-blend-mode: multiply;"></path>
                    <path d="M1.35,15.88 C1.17463397,15.9624349 0.965795683,15.9173913 0.84,15.77 C0.58,15.55 0.56,15.77 0.78,16.01 C0.78,16.01 1.11,16.19 1.15,16.25 C1.41,16.56 0.91,16.61 1.23,16.79 C1.55,16.97 1.4,16.48 1.74,16.94 C2.08,17.4 1.46,16.35 2.11,16.6" id="Path" fill="#802412"></path>
                </g>
                <path d="M27.84,5.07 C23.9097662,7.59650424 20.1697704,10.4073501 16.65,13.48 C12.9089314,16.8307055 9.4039136,20.4359622 6.16,24.27 C6.42,24.57 5.92,24.62 6.25,24.81 C6.58,25 6.41,24.49 6.75,24.95 C7.09,25.41 6.75,24.76 6.86,24.61 C8.06,25.68 9.78,25.87 11.76,23.92 C12.76,22.92 16.56,18.72 19.06,16.46 C21.98,13.84 25.89,11.2 26.69,10.52 C28.79,8.9 28.86,7.23 28.05,5.93 C28.05,5.52 28.83,6.1 28.45,5.74 C28.07,5.38 28.52,5.57 28.38,5.22 C28.24,4.87 28.12,5.37 27.84,5.07 Z" id="Path" fill="#000000" opacity="0.2" style="mix-blend-mode: multiply;"></path>
                <path d="M24.79,4.84 C25.05,4.84 24.94,4.73 24.79,4.72 C22.23,4.49 17.01,8.25 13.93,11.14 C11.93,13.07 5.93,19.59 5.93,22.28 C5.93,22.42 5.93,22.55 6.05,22.28 C6.75,20.71 11.65,14.28 14.51,11.64 C17.628301,8.93846927 21.0837838,6.65274134 24.79,4.84 Z" id="Path" fill="#FFFFFF" opacity="0.2" style="mix-blend-mode: screen;"></path>
            </g>
        </g>
    </g>
</svg>