<?xml version="1.0" encoding="UTF-8"?>
<svg width="30px" height="29px" viewBox="0 0 30 29" version="1.1" xmlns="http://www.w3.org/2000/svg" xmlns:xlink="http://www.w3.org/1999/xlink">
    <!-- Generator: Sketch 52.6 (67491) - http://www.bohemiancoding.com/sketch -->
    <title>ph_icon_Chicken</title>
    <desc>Created with Sketch.</desc>
    <g id="Icon-list" stroke="none" stroke-width="1" fill="none" fill-rule="evenodd">
        <g id="Icons-Copy-3" transform="translate(-93.000000, -741.000000)">
            <g id="ph_icon_Chicken" transform="translate(93.000000, 741.000000)">
                <g id="Background_Shadow" transform="translate(1.000000, 1.000000)" fill="#CCCCCC">
                    <path d="M28.27,5.92 C28.27,5.79 28.18,5.67 28.14,5.56 L28.14,5.48 L28,5.24 L27.9,5.12 L27.81,5 L27.7,4.81 L27.63,4.71 L27.48,4.55 L27.48,4.5 L27.3,4.33 C27.1387408,4.2020379 26.9644449,4.09142701 26.78,4 L26.62,3.9 C26.2259679,3.58181693 25.8732358,3.21564737 25.57,2.81 C25.4410203,2.62500057 25.3461919,2.41841023 25.29,2.2 C25.2897793,1.31678351 24.7102483,0.538282506 23.8642169,0.284703607 C23.0181855,0.0311247081 22.1059898,0.36251418 21.62,1.1 C20.81,2.59 21.88,2.88 21.33,4.24 C20.86885,5.12673387 20.2639962,5.93095294 19.54,6.62 C19.69,6.18 17.42,8.99 14.24,9.97 C10.44,11.14 4.06,13.7 2,15.68 C-0.73,18.28 2.15,29.27 9.74,26.96 C13.74,25.74 15.95,20.72 17.35,17.35 L17.35,17.43 C18.45,13.31 21.98,7.25 25.82,8.8 C28,9.71 28.88,7.84 28.27,5.92 Z" id="Path" style="mix-blend-mode: multiply;"></path>
                </g>
                <g id="Icon">
                    <path d="M19.3,7.88 C19.3,7.88 21.66,5.78 22.21,4.42 C22.76,3.06 21.69,2.77 22.5,1.28 C22.9912756,0.548932483 23.9029898,0.225322406 24.7452386,0.483059716 C25.5874873,0.740797027 26.1619733,1.51920064 26.16,2.4 C26.4329064,3.15463051 26.9596279,3.79093835 27.65,4.2 C28.3793201,4.61028196 28.9154182,5.29389701 29.14,6.1 C29.75,8.02 28.29,9.1 26.04,8.1 C23.79,7.1 21.89,10.7 20.23,11.37 C19.0343261,11.8296512 17.794433,12.1647575 16.53,12.37 C16.8374333,10.5712413 17.8303624,8.96176406 19.3,7.88 Z" id="Path" fill="#E8DBCD"></path>
                    <path d="M28.13,5 C28.3516368,5.16934223 28.5934975,5.31042761 28.85,5.42 C28.5819311,4.88903695 28.1649288,4.44770958 27.65,4.15 C27.1841373,3.83476727 26.7721785,3.44644553 26.43,3 C26.85,3.92 27.86,4.51 28.13,5 Z" id="Path" fill="#B8B1A8"></path>
                    <path d="M24.89,1 C24.1842787,0.654896144 23.3322033,0.880696132 22.89,1.53 C22.69,1.89 22.74,2.07 22.89,1.86 C23.3713729,1.19686285 24.2501921,0.959456699 25,1.29 C25.25,1.39 25.18,1.17 24.89,1 Z" id="Path" fill="#FFFFFF"></path>
                    <path d="M29.14,6.1 C28.9179522,5.30649813 28.3938227,4.6315916 27.68,4.22 C28.13,4.93 28.68,6.02 28.01,6.4 C27.01,6.96 26.35,6.13 25.13,6.49 C23.91,6.85 23.8,5.49 23.33,4.68 C22.86,3.87 24.04,6.8 23.55,7.04 C22.321423,7.66426344 21.1354992,8.36913649 20,9.15 C19,9.87 20.13,8.07 20.4,6.81 C19.8,7.43 19.29,7.88 19.29,7.88 C17.8419441,8.9377843 16.8514032,10.5076307 16.52,12.27 C17.784433,12.0647575 19.0243261,11.7296512 20.22,11.27 C21.88,10.61 23.86,7.04 26.11,8.04 C28.36,9.04 29.75,8 29.14,6.1 Z" id="Path" fill="#B8B1A8"></path>
                    <path d="M18.35,14.95 C19.1806741,12.8491972 20.5837884,11.0234163 22.4,9.68 C22.68,9.44 22.88,9.16 22.72,9.23 C21.08,10 19.37,11 19.43,10.65 C19.49,10.3 20.89,9.26 19.94,9.55 C18.99,9.84 17.17,10.84 18.05,10.08 C18.9959534,9.11057462 19.7914372,8.00498695 20.41,6.8 C20.56,6.35 18.3,9.17 15.11,10.15 C11.3,11.32 4.93,13.88 2.84,15.86 C0.108951912,18.4557383 -0.000738324205,22.7739519 2.595,25.505 C5.19073832,28.2360481 9.50895191,28.3457383 12.24,25.75 C14.74,23.38 16.92,18.68 18.35,14.95 Z" id="Path" fill="#B96F51"></path>
                    <ellipse id="Oval" fill="#C69C6D" transform="translate(4.647728, 16.965041) rotate(-31.690000) translate(-4.647728, -16.965041) " cx="4.64772776" cy="16.9650415" rx="1.19" ry="1"></ellipse>
                    <ellipse id="Oval" fill="#C69C6D" transform="translate(4.268356, 19.464927) rotate(-31.710000) translate(-4.268356, -19.464927) " cx="4.26835551" cy="19.4649271" rx="1" ry="1"></ellipse>
                    <ellipse id="Oval" fill="#C69C6D" transform="translate(6.724016, 15.492553) rotate(-31.700000) translate(-6.724016, -15.492553) " cx="6.72401566" cy="15.4925533" rx="1" ry="1"></ellipse>
                    <ellipse id="Oval" fill="#C69C6D" transform="translate(3.011700, 18.458900) rotate(-31.944753) translate(-3.011700, -18.458900) " cx="3.0117" cy="18.4589" rx="1" ry="1"></ellipse>
                    <ellipse id="Oval" fill="#C69C6D" transform="translate(5.758586, 18.686895) rotate(-31.680000) translate(-5.758586, -18.686895) " cx="5.75858579" cy="18.6868953" rx="1" ry="1"></ellipse>
                    <ellipse id="Oval" fill="#C69C6D" transform="translate(3.009700, 20.173300) rotate(-31.944753) translate(-3.009700, -20.173300) " cx="3.0097" cy="20.1733" rx="1" ry="1"></ellipse>
                    <path d="M2.14,23.94 C1.55689464,23.4093525 1.11378894,22.7429765 0.85,22 C1.2988343,24.4652128 3.06337238,26.4857634 5.44569308,27.262471 C7.82801378,28.0391785 10.4443991,27.4469395 12.26,25.72 C14.39,23.72 16.26,19.98 17.69,16.61 C11.76,26.15 13.69,19.51 12.11,21.61 C8.38,26.62 4.85,26.79 2.14,23.94 Z" id="Path" fill="#8B533D"></path>
                </g>
            </g>
        </g>
    </g>
</svg>