<?xml version="1.0" encoding="UTF-8"?>
<svg width="30px" height="24px" viewBox="0 0 30 24" version="1.1" xmlns="http://www.w3.org/2000/svg" xmlns:xlink="http://www.w3.org/1999/xlink">
    <!-- Generator: Sketch 52.6 (67491) - http://www.bohemiancoding.com/sketch -->
    <title>ph_icon_Cheese</title>
    <desc>Created with Sketch.</desc>
    <g id="Icon-list" stroke="none" stroke-width="1" fill="none" fill-rule="evenodd">
        <g id="Icons-Copy-3" transform="translate(-93.000000, -1085.000000)">
            <g id="ph_icon_Cheese" transform="translate(93.000000, 1085.000000)">
                <g id="Background_Shadow" transform="translate(1.000000, 0.000000)" fill="#CCCCCC">
                    <path d="M28.51,13 L23.88,3.78 C23.88,3.78 21.78,-1.15 9.54,1.87 L8.39,3.31 C8.45397422,3.31706281 8.51378107,3.34520721 8.56,3.39 C8.72774165,3.74889549 8.60372748,4.17653056 8.27,4.39 C8.05965191,4.72739399 7.63133318,4.85588961 7.27,4.69 L0.05,13.69 L0.36,14.3 C1.53,14.16 2.5,14.47 2.79,15.17 C3.08,15.87 2.61,16.78 1.69,17.51 L4,23.19 L19.36,16.82 C19.2321572,16.7418918 19.1310332,16.6268196 19.07,16.49 C18.81,15.87 19.54,14.98 20.7,14.49 C21.86,14 23.01,14.12 23.26,14.74 C23.3046122,14.8832742 23.3046122,15.0367258 23.26,15.18 L28.51,13 Z" id="Path" style="mix-blend-mode: multiply;"></path>
                </g>
                <g id="Icon">
                    <path d="M17.7,5.67 L24.45,2.43 C24.45,2.43 21.45,-2.09 9.36,1.6 L8.29,3.1 C8.35293016,3.10353436 8.41282717,3.12819783 8.46,3.17 C8.63970769,3.51453461 8.54217312,3.93859797 8.23,4.17 C8.04041798,4.49613197 7.64670978,4.64272545 7.29,4.52 L0.58,13.89 L6.69,11 L17.7,5.67 Z" id="Path" fill="#FBE270"></path>
                    <path d="M24.45,2.43 L17.7,5.67 C17.7433874,5.72202389 17.7803223,5.77910516 17.81,5.84 C18.34,6.95 16.3,9.03 13.24,10.5 C10.18,11.97 7.24,12.26 6.75,11.15 C6.72544297,11.1019455 6.70535835,11.051734 6.69,11 L0.58,13.89 L0.88,14.51 C2.04,14.31 3.03,14.56 3.36,15.25 C3.69,15.94 3.27,16.87 2.36,17.65 L5,23.19 L20,16 C19.8658457,15.928243 19.757463,15.8163642 19.69,15.68 C19.4,15.08 20.08,14.14 21.21,13.6 C22.34,13.06 23.49,13.11 23.78,13.71 C23.8445733,13.8470656 23.8655165,14.0006494 23.84,14.15 L28.84,11.73 L24.45,2.43 Z" id="Path" fill="#DD9D36"></path>
                    <path d="M10.65,6.81 C7.76,8.2 5.78,10.14 6,11.28 L17,6 C16.28,5.09 13.53,5.43 10.65,6.81 Z" id="Path" fill="#FDF0CA"></path>
                    <path d="M12.58,10.82 C15.63,9.35 17.68,7.27 17.15,6.16 C17.1069495,6.10055275 17.0565491,6.04679236 17,6 L6,11.28 C6.01239121,11.3454894 6.03253287,11.4092714 6.06,11.47 C6.61,12.58 9.52,12.29 12.58,10.82 Z" id="Path" fill="#EDB765"></path>
                    <ellipse id="Oval" fill="#EDB765" transform="translate(8.416571, 18.712969) rotate(-25.650000) translate(-8.416571, -18.712969) " cx="8.41657123" cy="18.7129685" rx="3.46" ry="1.94"></ellipse>
                    <ellipse id="Oval" fill="#EDB765" transform="translate(21.177281, 10.475722) rotate(-25.660000) translate(-21.177281, -10.475722) " cx="21.177281" cy="10.4757222" rx="2.98" ry="1.59"></ellipse>
                    <ellipse id="Oval" fill="#A67629" transform="translate(21.261251, 6.426001) rotate(-25.650000) translate(-21.261251, -6.426001) " cx="21.2612509" cy="6.42600119" rx="1.44" ry="1"></ellipse>
                    <ellipse id="Oval" fill="#F1AE43" transform="translate(9.222971, 5.459835) rotate(-25.660000) translate(-9.222971, -5.459835) " cx="9.22297143" cy="5.45983455" rx="1.44" ry="1"></ellipse>
                    <ellipse id="Oval" fill="#FDF0CA" transform="translate(15.157542, 2.987926) rotate(-25.670000) translate(-15.157542, -2.987926) " cx="15.1575419" cy="2.98792591" rx="2.16" ry="1"></ellipse>
                    <ellipse id="Oval" fill="#A67629" transform="translate(7.111854, 14.929592) rotate(-25.660000) translate(-7.111854, -14.929592) " cx="7.1118538" cy="14.929592" rx="1.44" ry="1"></ellipse>
                    <ellipse id="Oval" fill="#A67629" transform="translate(16.020794, 15.463408) rotate(-25.650000) translate(-16.020794, -15.463408) " cx="16.0207942" cy="15.4634078" rx="1.44" ry="1"></ellipse>
                    <path d="M13.24,10.5 C16.29,9.03 18.34,6.95 17.81,5.84 C17.7803223,5.77910516 17.7433874,5.72202389 17.7,5.67 L6.69,11 C6.70274245,11.0654006 6.72287144,11.1291424 6.75,11.19 C7.28,12.26 10.19,12 13.24,10.5 Z" id="Path" fill="#A67629"></path>
                    <ellipse id="Oval" fill="#A67629" transform="translate(21.412726, 10.057546) rotate(-25.660000) translate(-21.412726, -10.057546) " cx="21.4127258" cy="10.0575459" rx="2.88" ry="1.54"></ellipse>
                    <path d="M6.75,11.15 C7.28,12.26 10.19,11.97 13.24,10.5 C16.29,9.03 18.34,6.95 17.81,5.84 C17.7803223,5.77910516 17.7433874,5.72202389 17.7,5.67 L6.69,11 C6.70535835,11.051734 6.72544297,11.1019455 6.75,11.15 Z" id="Path"></path>
                    <ellipse id="Oval" fill="#A67629" transform="translate(8.588912, 18.169178) rotate(-25.660000) translate(-8.588912, -18.169178) " cx="8.58891245" cy="18.1691775" rx="3.46" ry="1.94"></ellipse>
                    <path d="M11.32,6.49 C8.43,7.88 6.45,9.81 6.69,11 L17.69,5.71 C17,4.77 14.2,5.11 11.32,6.49 Z" id="Path" fill="#F1AE43"></path>
                    <ellipse id="Oval" fill="#F1AE43" transform="translate(15.643377, 3.017179) rotate(-25.640000) translate(-15.643377, -3.017179) " cx="15.643377" cy="3.01717899" rx="2.16" ry="1"></ellipse>
                </g>
            </g>
        </g>
    </g>
</svg>