<?xml version="1.0" encoding="UTF-8"?>
<svg width="26px" height="28px" viewBox="0 0 26 28" version="1.1" xmlns="http://www.w3.org/2000/svg" xmlns:xlink="http://www.w3.org/1999/xlink">
    <!-- Generator: Sketch 52.6 (67491) - http://www.bohemiancoding.com/sketch -->
    <title>ph_icon_Red Chillies</title>
    <desc>Created with Sketch.</desc>
    <g id="Icon-list" stroke="none" stroke-width="1" fill="none" fill-rule="evenodd">
        <g id="Icons-Copy-3" transform="translate(-89.000000, -1224.000000)">
            <g id="ph_icon_Red-Chillies" transform="translate(89.000000, 1224.000000)">
                <g id="Background_Shadow" transform="translate(0.000000, 6.000000)" fill="#B3B3B3">
                    <path d="M25.14,4.21 C25.0277563,3.4852003 24.6134744,2.84197312 24,2.44 L23.87,2.36 C22.43,1 21.34,1.74 21.75,0.61 C22.16,-0.52 21.29,0.38 20.75,1.08 C20.6702594,1.19071733 20.558616,1.27444983 20.43,1.32 C18.96,1.83 18.92,2.53 18.92,2.53 C18.5759191,2.6400174 18.2886955,2.88056718 18.12,3.2 C17.52,6.64 15.19,12.82 9.62,15.1 C6.30854983,16.3261827 3.30512802,18.261342 0.82,20.77 C-0.09,21.77 1.21,21.27 1.44,21.15 C4.06,19.86 7.63,19.69 10.98,18.81 C17.43,17.12 26.6,11.61 25.14,4.21 Z" id="Path" style="mix-blend-mode: multiply;"></path>
                </g>
                <g id="Icon">
                    <path d="M0.69,26.65 C3.02712654,23.8344692 5.95225744,21.5646768 9.26,20 C14.8,17.17 16.65,10.59 17,7 C17.09,6 23.19,3.55 24.3,7.41 C26.46,14.91 17.51,21.41 11.04,23.72 C7.66,24.93 4.04,25.43 1.41,26.99 C1.14,27.12 -0.15,27.79 0.69,26.65 Z" id="Path" fill="#EB2600"></path>
                    <path d="M11.44,22.56 C12.1721192,22.3581067 12.8030035,21.8911811 13.21,21.25 C14.1220221,19.8491236 15.2848445,18.6286687 16.64,17.65 C17.88,16.84 18.2,15.36 19.15,14.22 C19.6,13.68 20.15,13.22 20.61,12.77 C21.002548,12.3028972 21.283036,11.7521828 21.43,11.16 C21.7014351,10.5470171 21.9286815,9.91540581 22.11,9.27 C22.2,8.86 22.11,7.99 22.62,7.86 C22.94,8.46 23.51,11.37 21.62,14.76 C20.5938794,16.435909 19.3155333,17.9436154 17.83,19.23 C13.83,22.4 10.81,22.77 11.44,22.56 Z" id="Path" fill="#B01D00"></path>
                    <path d="M5.32,23.26 C5.90492936,22.8240881 6.46575509,22.3567333 7,21.86 C7.5,21.5 8.1,21.32 8.58,20.92 C9.39,20.23 10.36,19.79 11.18,19.2 C12.2095216,18.5474314 13.0999156,17.6978188 13.8,16.7 C14.39,15.7 15.45,14.91 15.87,13.76 C16.17,12.94 17.34,6.83 18.72,7.53 C19.0558587,7.95017886 19.2548004,8.46323904 19.29,9 C19.2289879,9.61897817 19.087806,10.2274049 18.87,10.81 C18.7329761,11.4363006 18.5593448,12.0540274 18.35,12.66 C18.025044,13.2845148 17.6575097,13.8859346 17.25,14.46 C17.0219101,15.0292579 16.8347674,15.6140789 16.69,16.21 C16.3772625,16.7968993 15.9604944,17.3220949 15.46,17.76 C14.5861588,18.7096727 13.6326831,19.5828558 12.61,20.37 C10.61,22.14 8,22.78 5.7,24.01 C5.23,24.26 4.7,24.52 4.2,24.77 C3.86619446,25.0056943 3.49400023,25.1816406 3.1,25.29 C2.81,24.85 3.79,24.62 4.1,24.44 C4.45824114,24.0971651 4.84274688,23.7828734 5.25,23.5" id="Path" fill="#EB5800"></path>
                    <path d="M9.73,21.34 C10,21 11.34,20.26 11.6,20 C12.22,19.39 12.86,18.85 13.44,18.21 C14.0369817,17.5889144 14.5821345,16.9200153 15.07,16.21 C15.45,15.63 16.17,15.21 15.83,15.61 C15.6697689,15.9077265 15.5359241,16.2189157 15.43,16.54 C15.2323115,16.8188148 15.0186194,17.0859299 14.79,17.34 C14.5655799,17.757267 14.2974041,18.1494742 13.99,18.51 C13.6951591,18.7321234 13.4146035,18.9725996 13.15,19.23 C13.01,19.39 12.91,19.6 12.76,19.76 C12.5073728,19.9696293 12.2323736,20.1507263 11.94,20.3 C11.2721408,20.7772106 10.5233983,21.12956 9.73,21.34 Z" id="Path" fill="#F7BC99"></path>
                    <path d="M16.16,15 C16.1172092,14.7390787 16.151981,14.4713356 16.26,14.23 C16.26,14 16.26,13.64 16.58,13.63 C16.7096981,13.8535806 16.7623971,14.1135622 16.73,14.37 C16.6426947,14.4786224 16.5492066,14.5821271 16.45,14.68 C16.4070276,14.8077844 16.3464441,14.9289514 16.27,15.04" id="Path" fill="#F7BC99"></path>
                    <path d="M19.67,2.79 C19.07,1.54 18.32,1 19,0.47 C18.8952339,0.441523341 18.7847661,0.441523341 18.68,0.47 C18.1481664,0.516503707 17.7265037,0.93816644 17.68,1.47 C19.37,1.96 19.95,3.84 19.47,4.61 C19.9455146,4.12068426 20.0279084,3.37090069 19.67,2.79 Z" id="Path" fill="#465B38"></path>
                    <path d="M20.43,4 C20.72,2.92 19.85,0.81 18.98,0.47 C18.32,1 18.98,1.52 19.59,2.77 C19.9460842,3.33358702 19.8933734,4.06342936 19.46,4.57 C19.3880799,4.69312217 19.2797822,4.79093947 19.15,4.85 C17.68,5.5 17.7,6.23 17.7,6.23 C20.55,5.7 19.61,7.92 20.45,6.62 C20.9267803,5.80454814 21.8818148,5.39815047 22.8,5.62 C21.18,4.38 20.11,5.21 20.43,4 Z" id="Path" fill="#5B8433"></path>
                    <path d="M20.27,6.88 C20.27,6.88 21.63,5.42 22.92,5.7 C22.93,5.69 21.18,4.64 20.27,6.88 Z" id="Path" fill="#465B38"></path>
                    <path d="M18.24,5.92 C18.8274969,5.80287414 19.4336138,5.99986211 19.84,6.44 C19.7469481,6.18049779 19.566684,5.96135318 19.33,5.82 C19.1890505,5.7216291 19.113041,5.55416306 19.1317936,5.38330661 C19.1505461,5.21245016 19.2610694,5.06545723 19.42,5 C18.8865982,5.0643694 18.4325122,5.41840255 18.24,5.92 Z" id="Path" fill="#7C9D5C"></path>
                    <path d="M20,7.94 C20.0169698,8.2770687 19.9798326,8.61467957 19.89,8.94 C19.8997675,9.20375946 19.9400356,9.4655016 20.01,9.72 C19.9637869,9.96906931 20.0138225,10.2263955 20.15,10.44 C20.56,10.64 20.58,10.08 20.6,9.88 C20.66,9.21 21.14,8.62 21.16,8 C21.1828299,7.86408701 21.1485484,7.72477767 21.0652536,7.61498001 C20.9819589,7.50518235 20.8570379,7.43463397 20.72,7.42 C20.5,7.42 20.04,7.42 20.07,7.75" id="Path" fill="#EB5800"></path>
                </g>
            </g>
        </g>
    </g>
</svg>